<?xml version="1.0" encoding="utf-8"?>
<!-- Generator: Adobe Illustrator 25.3.1, SVG Export Plug-In . SVG Version: 6.00 Build 0)  -->
<svg version="1.1" id="Layer_1" xmlns="http://www.w3.org/2000/svg" xmlns:xlink="http://www.w3.org/1999/xlink" x="0px" y="0px"
	 viewBox="0 0 2048 1688" style="enable-background:new 0 0 2048 1688;" xml:space="preserve">
<g>
	<path d="M1024,16c264.2,0,557.5,0.4,577.3,1.2c41,1.7,65.5,7.9,84.6,21.4c22.3,15.7,39.6,43.1,56.2,88.7
		c35.5,97.8,65.9,277.7,121,604.2c38.4,227.3,90.8,537.4,165.7,940.5H19.3c74.9-403.1,127.3-713.1,165.7-940.5
		c55.1-326.5,85.5-506.3,121-604.2c16.6-45.6,33.9-73,56.2-88.7c19.1-13.5,43.6-19.7,84.6-21.4C466.5,16.4,759.8,16,1024,16 M1024,0
		C744.7,0,465.4,0.4,446,1.2C235.1,10.1,290.3,129,0,1688c22.8,0,2025.2,0,2048,0C1757.7,129,1812.9,10.1,1602,1.2
		C1582.6,0.4,1303.3,0,1024,0L1024,0z"/>
</g>
</svg>
