<svg id="Sticker_Sheet" data-name="Sticker Sheet" xmlns="http://www.w3.org/2000/svg" viewBox="0 0 1728 2048"><defs><style>.cls-1{fill:#f4f4f4;}.cls-2,.cls-3{fill:#5f3109;}.cls-3{font-size:71px;font-family:Arial-BoldMT, Arial;font-weight:700;letter-spacing:0.02em;}.cls-4{letter-spacing:0.01em;}.cls-5{letter-spacing:-0.05em;}.cls-6{letter-spacing:0.01em;}.cls-7{letter-spacing:-0.01em;}.cls-10,.cls-11,.cls-8{fill:none;stroke-miterlimit:10;}.cls-8{stroke:#fac80a;stroke-width:24px;}.cls-9{fill:#b40000;}.cls-10,.cls-11{stroke:#8a928d;}.cls-10{stroke-width:12px;}.cls-11{stroke-width:16px;}.cls-12{fill:#fac80a;}</style></defs><rect id="Background" class="cls-1" width="1728" height="2048"/><g id="Unnecessary_Stuff" data-name="Unnecessary Stuff"><rect class="cls-2" x="108" y="971.03" width="148" height="64"/><text class="cls-3" transform="translate(348.63 1909.62)">53466/4270894<tspan class="cls-4" x="508.34" y="0"> </tspan><tspan class="cls-5" x="528.49" y="0">© </tspan><tspan class="cls-6" x="593.29" y="0">2005 LEGO GROU</tspan><tspan class="cls-7" x="1210.83" y="0">P</tspan></text></g><g id="Top_Part" data-name="Top Part"><g id="_4778" data-name="4778"><line class="cls-8" x1="843.67" y1="638.33" x2="1293" y2="638.33"/><line class="cls-8" x1="1267.67" y1="847.67" x2="654.33" y2="847.67"/><path class="cls-9" d="M877,759.33V682H859l-77,75v29h60v26.67h36V784.33h14.67v-25Zm-35-2.52L806,757l36-35.64Z"/><polygon class="cls-9" points="916.67 682 908 728.33 926.67 713.33 981.33 713.33 938.67 812.67 962 812.67 1015.67 682 916.67 682"/><polygon class="cls-9" points="1036.67 682 1028 728.33 1046.67 713.33 1101.33 713.33 1058.67 812.67 1082 812.67 1135.67 682 1036.67 682"/><path class="cls-9" d="M1228.52,736.78c10.8-6.67,20.22-13.64,22.15-18.78,4.5-12,3.5-36.33-44.67-37.67s-60.17,24.17-57.33,42c1.34,8.47,12.8,17.29,26.18,25.62-10.18,7.16-12,9.25-18.52,14.88-43.61,37.89,59.17,79.17,90.34,32.5C1265.49,767.14,1247.63,748.36,1228.52,736.78ZM1192,694.17c11.67-7.17,28.68,2.52,29.67,21,.25,4.71-4.32,8.63-11,12.51-5.33-2.35-9.54-4-11.36-5C1190.22,717.56,1175.73,704.16,1192,694.17Zm.33,106.5c-20.62-21.89-9.63-37.51-1.19-43.1,9.68,5.56,18.69,10.69,24.08,15.1C1231,785.56,1206,815.17,1192.33,800.67Z"/></g><g id="Grey_Line" data-name="Grey Line"><polyline class="cls-10" points="1519.67 347.67 1354.33 347.67 1299.67 931.67 1490.33 931.67"/><line class="cls-11" x1="1329" y1="382.33" x2="1367.67" y2="382.33"/><line class="cls-11" x1="1309.67" y1="623.67" x2="1348.33" y2="623.67"/><line class="cls-11" x1="1280.33" y1="901" x2="1319" y2="901"/></g><g id="Target"><circle class="cls-9" cx="534.69" cy="440.72" r="278.69"/><circle class="cls-12" cx="534.48" cy="440.72" r="175.57"/><circle class="cls-2" cx="534.48" cy="440.72" r="79.01"/></g></g><g id="Bottom_Part" data-name="Bottom Part"><g id="_4778-2" data-name="4778"><line class="cls-8" x1="943.16" y1="1475" x2="493.83" y2="1475"/><line class="cls-8" x1="519.16" y1="1684.33" x2="1132.5" y2="1684.33"/><path class="cls-9" d="M640.67,1590.8v-77.33h-18l-77,75v29h60v26.67h36V1615.8h14.67v-25Zm-35-2.52-36,.19,36-35.64Z"/><polygon class="cls-9" points="680.34 1513.47 671.67 1559.8 690.34 1544.8 745 1544.8 702.34 1644.14 725.67 1644.14 779.34 1513.47 680.34 1513.47"/><polygon class="cls-9" points="800.34 1513.47 791.67 1559.8 810.34 1544.8 865 1544.8 822.34 1644.14 845.67 1644.14 899.34 1513.47 800.34 1513.47"/><path class="cls-9" d="M992.19,1568.25c10.8-6.67,20.22-13.64,22.15-18.78,4.5-12,3.5-36.33-44.67-37.67s-60.17,24.17-57.33,42c1.34,8.47,12.8,17.29,26.18,25.62-10.18,7.16-12,9.25-18.52,14.88-43.62,37.89,59.17,79.17,90.34,32.5C1029.16,1598.61,1011.3,1579.83,992.19,1568.25Zm-36.52-42.61c11.67-7.17,28.68,2.52,29.67,21,.25,4.71-4.32,8.63-11,12.51-5.33-2.35-9.54-4-11.36-5C953.89,1549,939.4,1535.63,955.67,1525.64Zm.33,106.5c-20.63-21.89-9.63-37.51-1.19-43.1,9.68,5.56,18.69,10.69,24.08,15.1C994.67,1617,969.67,1646.64,956,1632.14Z"/></g><g id="Target-2" data-name="Target"><circle class="cls-9" cx="1259.07" cy="1286.62" r="278.69"/><circle class="cls-12" cx="1259.07" cy="1286.62" r="175.57"/><circle class="cls-2" cx="1259.07" cy="1286.62" r="79.01"/></g><g id="Grey_Line-2" data-name="Grey Line"><polyline class="cls-10" points="272.27 1183 437.61 1183 492.27 1767 301.61 1767"/><line class="cls-11" x1="462.94" y1="1217.67" x2="424.28" y2="1217.67"/><line class="cls-11" x1="482.28" y1="1459" x2="443.61" y2="1459"/><line class="cls-11" x1="511.61" y1="1736.33" x2="472.94" y2="1736.33"/></g></g></svg>