<svg id="Decal" xmlns="http://www.w3.org/2000/svg" viewBox="0 0 2192 892"><defs><style>.cls-1{fill:#bbb29e;opacity:0.5;}.cls-19,.cls-2{fill:#fff;}.cls-3{font-size:64.28px;font-family:Arial-BoldMT, Arial;font-weight:700;letter-spacing:0.02em;}.cls-15,.cls-3{fill:#b40000;}.cls-4{letter-spacing:0.09em;}.cls-5{letter-spacing:0.08em;}.cls-6{letter-spacing:0.09em;}.cls-7{letter-spacing:0.04em;}.cls-8{letter-spacing:-0.01em;}.cls-9{letter-spacing:-0.05em;}.cls-10{letter-spacing:-0.1em;}.cls-11{letter-spacing:0.1em;}.cls-12{letter-spacing:0.01em;}.cls-13{letter-spacing:0.04em;}.cls-14{letter-spacing:-0.12em;}.cls-16,.cls-17{fill:#f6a9bb;}.cls-17,.cls-19,.cls-20,.cls-21{stroke:#b40000;}.cls-17{stroke-linecap:round;stroke-linejoin:round;}.cls-17,.cls-19,.cls-21{stroke-width:12px;}.cls-18{fill:#fac80a;}.cls-19,.cls-20,.cls-21{stroke-miterlimit:10;}.cls-20,.cls-21{fill:none;}.cls-20{stroke-width:8px;}.cls-22{fill:#00852b;}</style></defs><rect id="Should_be_Transparent" data-name="Should be Transparent" class="cls-1" width="2192" height="890.94"/><polygon id="White_Background_Part" data-name="White Background Part" class="cls-2" points="2041 733.33 2041 155.33 151 155.33 151 733.33 246 733.33 357 566.56 576 565.33 483 733.33 583 733.33 687 566.56 906 565.33 813 733.33 933 733.33 1029.5 566.56 1248.5 565.33 1155.5 733.33 1255.5 733.33 1371 565.33 1591 565.33 1491 733.33 1604 733.33 1709 565.33 1932.33 565.33 1859 733.33 2041 733.33"/><text class="cls-3" transform="translate(1135.88 761.12)">1<tspan class="cls-4" x="36.97" y="0">6</tspan><tspan class="cls-5" x="78.69" y="0">8</tspan><tspan class="cls-6" x="119.71" y="0">2</tspan><tspan class="cls-7" x="161.24" y="0">05</tspan><tspan class="cls-8" x="238.01" y="0"> </tspan><tspan class="cls-9" x="255.1" y="0">©</tspan><tspan class="cls-10" x="299.18" y="0" xml:space="preserve"> 1</tspan><tspan class="cls-4" x="339.54" y="0">9</tspan><tspan class="cls-11" x="381.27" y="0">9</tspan><tspan class="cls-12" x="423.31" y="0">3 LEGO</tspan><tspan class="cls-13" x="661.36" y="0"> </tspan><tspan class="cls-12" x="681.92" y="0">GROU</tspan><tspan class="cls-14" x="876.29" y="0">P</tspan><tspan class="cls-12" x="911.26" y="0">.</tspan></text><polygon id="Red_Triangle" data-name="Red Triangle" class="cls-15" points="1130.79 244.03 780.99 521.83 1374.39 637.63 1130.79 244.03"/><g id="Drink"><path class="cls-2" d="M1281.06,336.43l13.65-28.19,16.61-1.1,4.69-16.21,14,4.59,57.52-23.16,11.33,28.93c-5.78,2.32-11.21,4.8-16.51,7.22-13.59,6.22-25.32,11.59-39,12.59l-5.62.41.14,13.4-16.27-1.1-4.08,16.71Z"/><path class="cls-15" d="M1384.12,280.19l7,17.82c-3.88,1.66-7.61,3.37-11.27,5.05-13.07,6-24.35,11.13-36.93,12.06l-11.24.82.12,11.27v1.27l-4.75-.32-10.08-.68-2.39,9.81-1.27,5.17-24-9.27,9.28-19.19,8.94-.59,8.39-.56,2.34-8.08,1.8-6.2,6,2,4.16,1.37,4.07-1.64,49.86-20.07m6.76-15.66-61.1,24.6L1312,283.28l-5.25,18.15-15.89,1.05-18,37.2,48.89,18.9,4.5-18.45,17.7,1.2-.14-14.25c22.21-1.63,39.77-14,62.84-22.35l-15.74-40.2Z"/><polygon class="cls-2" points="1183.13 299.46 1122.08 531.93 1262.38 583.01 1366.88 366.38 1183.13 299.46"/><polygon class="cls-16" points="1236.67 321.83 1173.97 340.73 1159.58 393.83 1312.58 349.43 1236.67 321.83"/><polygon class="cls-16" points="1356.67 380.93 1146.38 440.33 1134.97 492.23 1328.47 440.33 1356.67 380.93"/><polygon class="cls-16" points="1302.38 491.63 1141.58 535.73 1221.97 563.93 1274.78 548.93 1302.38 491.63"/><path class="cls-15" d="M1190,312.11l163,59.36-96.32,199.68L1133.76,526.4,1190,312.11m-8.26-15.78-62.4,237.6,143.4,52.2,106.8-221.4-187.8-68.4Z"/></g><g id="Ice_Cream_Cup_with_Parasol" data-name="Ice Cream Cup with Parasol"><polygon class="cls-17" points="871.14 255.43 874.19 261.03 814.59 372.23 842.19 351.23 854.19 364.63 876.19 340.63 896.19 340.43 906.79 319.83 926.59 327.03 944.99 353.43 926.59 327.03 925.59 306.83 950.39 302.43 954.39 281.43 983.79 266.43 973.39 250.63 997.99 232.63 874.19 261.03 871.14 255.43"/><path class="cls-18" d="M942.81,358.77c-2.43-11.23-7.67-43.1,6.1-61.21,6.79-8.92,17.22-13.26,31.89-13.26,1.38,0,2.81,0,4.26.12,23.79,1.32,37,20.84,39.14,38.42,1.85,14.89-3.68,33.1-24.54,40.12Z"/><path class="cls-15" d="M980.8,290.3c1.27,0,2.59,0,3.93.12,20.35,1.12,31.64,18,33.52,33.16.74,6,1.43,25.63-19.4,33.31l-51.09-3.77c-2.61-14.48-4.23-38.58,5.94-51.94,5.58-7.32,14.44-10.88,27.1-10.88h0m0-12C914,278.31,938,364.43,938,364.43l62.4,4.6c49.2-15.3,33.9-87.9-15-90.6-1.58-.08-3.1-.13-4.59-.13Z"/><path class="cls-16" d="M935.11,426.59c-21.75-7.45-29.33-28.31-27.15-46,1.92-15.52,12.26-34.09,35.06-35.35,1.46-.08,2.9-.12,4.29-.12,14.64,0,25,4.31,31.58,13.16,13.62,18.21,7.6,50.32,5,61.12Z"/><path class="cls-15" d="M947.31,351.15c12.6,0,21.35,3.51,26.75,10.72,10.08,13.43,7.84,37.95,4.94,52.22l-43.27,6.35a32.68,32.68,0,0,1-17.38-14.85,39.9,39.9,0,0,1-4.43-24.23c1.64-13.22,10.33-29,29.43-30.09,1.35-.08,2.68-.12,4-.12m0-12c-1.5,0-3,.05-4.62.13-48.9,2.7-57.3,78.15-8.1,93.45l54.15-8s25.3-85.63-41.43-85.63Z"/><path class="cls-19" d="M986.19,418s-33.2-54,22-69.6,60.4,49.6,51.6,56Z"/><polygon class="cls-19" points="934.19 426.83 1061.79 404.83 1056.99 532.83 982.99 544.03 934.19 426.83"/><path class="cls-2" d="M977.82,650.86c1.94-37.76,33.1-45.45,34.5-45.78l5.51-1.27-.92-5.59-9.77-57.16,25.57-3.85,13.28,62,5.92-1.33a35.22,35.22,0,0,1,7.73-.89c21,0,34.6,21,40.28,32.09Z"/><path class="cls-15" d="M1028,544l10.84,50.57,2.54,11.85,11.82-2.66a29.51,29.51,0,0,1,6.42-.74c14.16,0,24.62,11.8,30.88,21.67L984.69,643.54c1.81-9.73,6.16-17.68,13-23.75a42.36,42.36,0,0,1,16-8.86l11.12-2.27-2-11.45-8.74-51.13L1028,544m9.37-13.55-37.2,5.6,10.8,63.2s-41.2,9.2-39.2,58.8l136.8-24.4S1092.69,591,1059.64,591a41.61,41.61,0,0,0-9.05,1l-13.2-61.6Z"/><path class="cls-20" d="M1018.59,550.63l11,64s-28,10.4-32,23.8"/><path class="cls-21" d="M1033.29,614.23c-4.8,1.2-37.67,12-34.8,25.7"/><line class="cls-21" x1="953.39" y1="437.63" x2="999.79" y2="531.23"/></g><g id="Palm_Leaves" data-name="Palm Leaves"><path class="cls-22" d="M400.73,258.35s-93.6-27.6-109.2,55.2c0,0,57.7-41.05,76-13.6,8,12-155.2-1.2-122.8,180,0,0,22.4-120.63,102.8-118.8,17.6.4-84.8,22.8-44,192.8,0,0,34.4-86.8,52.6-105s37.2-58.8,40.4-60,23.6,35,24.6,70.2,28.8,66.8,28.8,66.8,30.44-86.88,19-133.6c-4.8-19.6-6.8-22-5.4-23.8s61.6-14.6,128.6,79.8c0,0,21.41-132.8-111.4-132.8-9.2,0,11.59-14.66,29.6-14.2,31.8.8,95,11.6,142.2,35.4,0,0-25.07-95.32-165.6-83.6-4.8.4.8-7.4,10.8-10s42,1.4,42,1.4-42-27.73-83.8-17.6C422.68,235,416.78,244.1,400.73,258.35Z"/><path class="cls-22" d="M1803.27,250.35s93.6-27.6,109.2,55.2c0,0-57.7-41.05-76-13.6-8,12,155.2-1.2,122.8,180,0,0-22.4-120.63-102.8-118.8-17.6.4,84.8,22.8,44,192.8,0,0-34.4-86.8-52.6-105s-37.2-58.8-40.4-60-23.6,35-24.6,70.2-28.8,66.8-28.8,66.8-30.44-86.88-19-133.6c4.8-19.6,6.8-22,5.4-23.8s-61.6-14.6-128.6,79.8c0,0-21.41-132.8,111.4-132.8,9.2,0-11.59-14.66-29.6-14.2-31.8.8-95,11.6-142.2,35.4,0,0,25.07-95.32,165.6-83.6,4.8.4-.8-7.4-10.8-10s-42,1.4-42,1.4,42-27.73,83.8-17.6C1781.32,227,1787.22,236.1,1803.27,250.35Z"/></g></svg>