<?xml version="1.0" encoding="utf-8"?>
<!-- Generator: Adobe Illustrator 25.3.1, SVG Export Plug-In . SVG Version: 6.00 Build 0)  -->
<svg version="1.1" id="Sticker_Sheet" xmlns="http://www.w3.org/2000/svg" xmlns:xlink="http://www.w3.org/1999/xlink" x="0px"
	 y="0px" viewBox="0 0 2048 2048" style="enable-background:new 0 0 2048 2048;" xml:space="preserve">
<style type="text/css">
	.st0{fill:#F4F4F4;}
	.st1{font-family:'Arial-BoldMT';}
	.st2{font-size:36.25px;}
	.st3{letter-spacing:-2;}
	.st4{letter-spacing:-1;}
	.st5{fill:#8C8C8C;}
	.st6{fill:url(#SVGID_1_);}
	.st7{fill:none;stroke:#000000;stroke-width:19.7974;stroke-miterlimit:10;}
	.st8{fill:url(#SVGID_2_);}
	.st9{fill:#FAC80A;}
	.st10{fill:url(#SVGID_3_);}
	.st11{fill:url(#SVGID_4_);}
	.st12{fill:url(#SVGID_5_);}
	.st13{fill:url(#SVGID_6_);}
	.st14{fill:url(#SVGID_7_);}
	.st15{fill:url(#SVGID_8_);}
	.st16{fill:url(#SVGID_9_);}
	.st17{fill:url(#SVGID_10_);}
	.st18{fill:url(#SVGID_11_);}
	.st19{fill:none;stroke:#000000;stroke-width:10.61;stroke-miterlimit:10;}
</style>
<rect id="Background_Color" class="st0" width="2048" height="2048"/>
<g id="Unneccesary_Stuff">
	<rect x="132.4" y="952" width="107.6" height="50.3"/>
	<text transform="matrix(1 0 0 1 1044.89 1924.16)" class="st1 st2">43660/4173453</text>
	<text transform="matrix(1 0 0 1 1304.4399 1924.16)" class="st1 st2 st3"> </text>
	<text transform="matrix(1 0 0 1 1312.37 1924.16)" class="st1 st2 st4">© </text>
	<text transform="matrix(1 0 0 1 1345.46 1924.16)" class="st1 st2">2002 LEGO </text>
	<text transform="matrix(1 0 0 1 1551.14 1924.16)" class="st1 st2 st4">GROU</text>
	<text transform="matrix(1 0 0 1 1654.96 1924.16)" class="st1 st2 st4">P</text>
</g>
<g id="Logo_with_Nails_Bottom_1_">
	<g id="Nails_x5F_Top_1_">
		<circle class="st5" cx="847" cy="1140.1" r="19"/>
		<path d="M847,1125.1c8.3,0,15,6.7,15,15s-6.7,15-15,15s-15-6.7-15-15S838.7,1125.1,847,1125.1L847,1125.1 M847,1117.1
			c-12.7,0-23,10.3-23,23s10.3,23,23,23s23-10.3,23-23S859.7,1117.1,847,1117.1L847,1117.1z"/>
		<circle class="st5" cx="1172.4" cy="1140.1" r="19"/>
		<path d="M1172.4,1125.1c8.3,0,15,6.7,15,15s-6.7,15-15,15s-15-6.7-15-15S1164.1,1125.1,1172.4,1125.1L1172.4,1125.1
			 M1172.4,1117.1c-12.7,0-23,10.3-23,23s10.3,23,23,23s23-10.3,23-23S1185.1,1117.1,1172.4,1117.1L1172.4,1117.1z"/>
		<circle class="st5" cx="1495" cy="1140.1" r="19"/>
		<path d="M1495,1125.1c8.3,0,15,6.7,15,15s-6.7,15-15,15s-15-6.7-15-15S1486.7,1125.1,1495,1125.1L1495,1125.1 M1495,1117.1
			c-12.7,0-23,10.3-23,23s10.3,23,23,23s23-10.3,23-23S1507.7,1117.1,1495,1117.1L1495,1117.1z"/>
		<circle class="st5" cx="1820.4" cy="1140.1" r="19"/>
		<path d="M1820.4,1125.1c8.3,0,15,6.7,15,15s-6.7,15-15,15s-15-6.7-15-15S1812.1,1125.1,1820.4,1125.1L1820.4,1125.1
			 M1820.4,1117.1c-12.7,0-23,10.3-23,23s10.3,23,23,23s23-10.3,23-23S1833.1,1117.1,1820.4,1117.1L1820.4,1117.1z"/>
		<circle class="st5" cx="847" cy="1626.1" r="19"/>
		<path d="M847,1611.1c8.3,0,15,6.7,15,15s-6.7,15-15,15s-15-6.7-15-15S838.7,1611.1,847,1611.1L847,1611.1 M847,1603.1
			c-12.7,0-23,10.3-23,23c0,12.7,10.3,23,23,23s23-10.3,23-23l0,0C870,1613.4,859.7,1603.1,847,1603.1z"/>
		<circle class="st5" cx="1172.4" cy="1626.1" r="19"/>
		<path d="M1172.4,1611.1c8.3,0,15,6.7,15,15s-6.7,15-15,15s-15-6.7-15-15S1164.1,1611.1,1172.4,1611.1L1172.4,1611.1
			 M1172.4,1603.1c-12.7,0-23,10.3-23,23c0,12.7,10.3,23,23,23s23-10.3,23-23l0,0C1195.4,1613.4,1185.1,1603.1,1172.4,1603.1z"/>
		<circle class="st5" cx="1495" cy="1626.1" r="19"/>
		<path d="M1495,1611.1c8.3,0,15,6.7,15,15s-6.7,15-15,15s-15-6.7-15-15S1486.7,1611.1,1495,1611.1L1495,1611.1 M1495,1603.1
			c-12.7,0-23,10.3-23,23c0,12.7,10.3,23,23,23s23-10.3,23-23l0,0C1518,1613.4,1507.7,1603.1,1495,1603.1z"/>
		<circle class="st5" cx="1820.4" cy="1626.1" r="19"/>
		<path d="M1820.4,1611.1c8.3,0,15,6.7,15,15s-6.7,15-15,15s-15-6.7-15-15S1812.1,1611.1,1820.4,1611.1L1820.4,1611.1
			 M1820.4,1603.1c-12.7,0-23,10.3-23,23c0,12.7,10.3,23,23,23s23-10.3,23-23l0,0C1843.4,1613.4,1833.1,1603.1,1820.4,1603.1z"/>
	</g>
	<g id="Logo_x5F_Top_1_">
		<g id="Gradient_Part-3_2_">
			<g>
				
					<linearGradient id="SVGID_1_" gradientUnits="userSpaceOnUse" x1="-482.8131" y1="732.2885" x2="-482.8131" y2="1773.5269" gradientTransform="matrix(6.123234e-17 -1 1 6.123234e-17 82.1432 900.9633)">
					<stop  offset="0.2" style="stop-color:#FFF230"/>
					<stop  offset="0.5" style="stop-color:#FF8014"/>
					<stop  offset="0.8" style="stop-color:#B40000"/>
				</linearGradient>
				<path class="st6" d="M1494.7,1171.9l-29.1,33.6c-44.3-9.4-89.7-12-134.7-7.7l-29.2-34.8l0.4,38.5
					c-38.4,6.3-75.7,17.7-111.1,33.9l-9.1-23.4c0,0-368.1,141.9-367.6,177.1c0.5,35.2,371.4,168.9,371.4,168.9l8.5-23.5
					c35.7,15.4,73.3,25.9,111.8,31.4l0.4,38.5l28.4-35.5c45.1,3.3,90.5-0.3,134.5-10.7l29.9,32.9l-0.4-41.1
					c9.7-3,19.2-6.5,28.5-10.6l20.7,15.9l190.1-49l-3.3-38.1c83.4-18.5,120.7-90.8,120.7-90.8s-39-71.4-122.8-88.1l2.5-38.2
					l-191.2-44.8l-20.3,16.3c-9.4-3.9-19-7.2-28.7-10L1494.7,1171.9z M1732.4,1377.3l-99.2,45.8l-26.9-45.2l26.7-39.9L1732.4,1377.3
					z"/>
			</g>
			<path d="M839.7,1388.9c7.7-5.8,23.5-15.9,55.2-32c31.2-15.8,72.6-34.8,123.2-56.5c62.2-26.7,123.2-51,152.7-62.6l1.9,4.9
				l7.6,19.6l19.1-8.7c38.2-17.5,78.8-29.1,120.4-34.4c33.4-4.3,67.3-4.5,100.8-0.7c57.7,6.5,95,22.7,95.4,22.8l11,4.9l9.3-7.5
				l12.8-10.3l165.4,38.8l-1.4,21.4l-1.1,17.3l17,3.4c30.6,6,58.1,20.8,81.9,43.9c7.9,7.6,15,16,21.4,24.9
				c-6.2,9.1-13.1,17.6-20.8,25.5c-23.3,23.7-50.4,39.2-80.8,45.9l-17,3.7l1.5,17.3l1.9,21.4l-164.6,42.3l-13.1-10l-9.6-7.3
				l-10.9,5.1c-0.4,0.2-37.3,17.2-94.9,24.9c-33.4,4.5-67.2,5-100.8,1.5c-41.7-4.4-82.6-15.1-121.1-31.7l-19.3-8.3l-7.1,19.7
				l-1.9,4.9c-29.8-11-91.2-33.9-154-59.2c-51-20.5-92.8-38.7-124.4-53.8c-32.1-15.4-48.1-25.2-56-30.8 M814.2,1389.1L814.2,1389.1
				c0.4,35.2,371.5,169,371.5,169l8.5-23.5c179.8,77.2,333,5.1,333,5.1l20.7,15.9l190.1-49l-3.3-38.1
				c83.4-18.5,120.7-90.8,120.7-90.8s-38.8-71.4-122.6-88.1l2.5-38.2l-191.2-44.8l-20.3,16.3c0,0-154.8-68.7-332.8,12.5l-9.1-23.4
				c0,0-367.6,141.8-367.6,177.1L814.2,1389.1z"/>
			<path class="st7" d="M900.9,1388.2c-0.2-18.7,223.4-91.6,223.4-91.6l21,10.8l67.8-14.3l182.7-17l2.4,216.7l-180.7-14.3
				l-70.4-11.6l-20.8,11.2c0,0-225.2-71.2-225.4-89.9"/>
			<path d="M1630.5,1432.4l6.1-19.6l-18.9-32.5l18.2-32.9l-6.6-19.5l-25.6,28.6l-4-6.9l-46.4,0.5c0,0,28.6,23.5,28.7,30.6
				c0.1,7.2-28,31.3-28,31.3l46.4-0.5l3.9-7L1630.5,1432.4z"/>
			<polygon points="1164.6,1359.5 988.9,1388.3 1169.2,1411.5 1151.5,1437.9 967.6,1390.8 1160.6,1329.2 			"/>
			<polygon points="1216.6,1352.1 1240.9,1359.9 1350.8,1358.7 1363,1325.6 1233.2,1327.7 			"/>
			<polygon points="1217.3,1417.7 1241.4,1409.4 1351.4,1408.2 1364.2,1441.1 1234.4,1441.8 			"/>
			<path d="M1007.6,1387c35.2-12,90.2-28.7,141.8-43.4l3.4,5.6l6.6,10.9l12.7-1.5l41.7-4.9l5.2-0.6l4.2-3.1l15.2-11.2
				c122.7-11.2,205-4.1,252.7,3.8c51,8.5,74.1,19.6,75.4,20.4l4.3,2.4h5.2l34.1-0.4h7.6l5.6-5.1l12.6-11.6l77,30.9l-76.3,32.7
				l-12.8-11.3l-5.7-5l-7.6,0.1l-34.1,0.4h-5l-4.4,2.6c-1.3,0.7-24.1,12.4-74.9,22c-47.5,9-129.6,17.8-252.5,9.3l-15.4-10.9l-4.3-3
				l-5.3-0.5l-41.8-3.9l-12.7-1.2l-6.3,11.1l-3.3,5.7C1098.4,1413.8,1043.1,1398.3,1007.6,1387 M958.1,1387.6L958.1,1387.6
				c0.1,11,202,62.7,202,62.7l10.8-18.9l41.9,4l20,14.1c252.1,18.1,343.9-33.5,343.9-33.5l34.1-0.4l22.2,19.6l131.4-56.4
				l-132.6-53.6l-21.8,20.1l-34.1,0.4c0,0-93-49.6-344.6-25.9l-19.6,14.5l-41.7,4.9l-11.2-18.7
				C1158.7,1320.4,958.1,1376.5,958.1,1387.6L958.1,1387.6z"/>
		</g>
		<g id="X-3_2_">
			<path class="st5" d="M1512.5,1591.4c0,7.3-5.9,13.2-13.2,13.2c-3.7,0-7.3-1.6-9.8-4.4l-74.2-82.1c-3.7-4-4.5-9.9-2-14.8l6.2-12.3
				l-12-10.5l-21.3,20.9l0.2,20.2c0,3-1,5.9-2.9,8.3l-66.6,82.9c-4.6,5.7-12.9,6.6-18.5,2.1c-3.1-2.5-4.9-6.2-4.9-10.2l-1.9-160.7
				c0-3.4,1.3-6.6,3.6-9l48.5-51.5l-49.7-50.4c-2.4-2.4-3.7-5.7-3.7-9.1l-1.8-160.7c0-7.3,5.9-13.2,13.2-13.2
				c3.9,0,7.6,1.7,10.1,4.7l68.4,81.4c2,2.3,3.1,5.3,3.1,8.4l0.2,20l21.8,20.4l11.8-10.8l-6.4-12.1c-1-1.9-1.5-4-1.5-6.2
				c0-3.2,1.1-6.3,3.2-8.7l72.4-83.7c4.8-5.5,13.1-6.1,18.6-1.4c2.9,2.5,4.5,6.1,4.6,9.9l1.9,176.1c0,3.7-1.6,7.3-4.3,9.8
				l-26.7,24.1l27.2,23.5c2.9,2.5,4.5,6.1,4.6,9.8L1512.5,1591.4z"/>
			<path d="M1301.8,1163l68.4,81.4l0.3,25.7l34.8,32.5l28.3-26l-11.2-21.2l72.4-83.7l1.9,176l-37.7,34.2l38.5,33.3l1.9,176
				l-74.2-82.1l10.8-21.4l-28.8-25.2l-34.1,33.4l0.3,25.7l-66.6,82.9l-1.8-160.6l57.4-60.8l-58.6-59.5L1301.8,1163 M1275.4,1163v0.3
				l1.8,160.6c0.1,6.8,2.8,13.4,7.6,18.2l40.7,41.4l-39.8,42.2c-4.6,4.9-7.2,11.4-7.2,18.1v0.3l1.8,160.6
				c0.1,14.6,12.1,26.3,26.6,26.1c7.9-0.1,15.4-3.7,20.3-9.9l66.6-82.9c3.8-4.7,5.8-10.5,5.8-16.5v-0.3v-5.6c1.1,4.2,3.1,8,6,11.2
				l74.2,82.1c9.8,10.8,26.5,11.6,37.3,1.9c5.5-5,8.7-12.1,8.7-19.6v-0.3l-1.9-176c-0.1-7.6-3.4-14.7-9.1-19.7l-15.9-13.8l15.6-14.1
				c5.5-5,8.7-12.1,8.7-19.6v-0.3l-1.9-176c-0.2-14.6-12.1-26.3-26.7-26.1c-7.6,0.1-14.7,3.4-19.7,9.1l-72.4,83.7
				c-2.8,3.3-4.8,7.2-5.8,11.4v-5.6c-0.1-6.1-2.3-12-6.2-16.7l-68.4-81.4c-9.4-11.2-26.1-12.6-37.2-3.2c-6,5-9.4,12.4-9.4,20.2
				L1275.4,1163z"/>
		</g>
	</g>
</g>
<g id="Logo_with_Nails_Top">
	<g id="Nails_x5F_Top">
		<circle class="st5" cx="847" cy="287" r="19"/>
		<path d="M847,272c8.3,0,15,6.7,15,15s-6.7,15-15,15s-15-6.7-15-15S838.7,272,847,272L847,272 M847,264c-12.7,0-23,10.3-23,23
			s10.3,23,23,23s23-10.3,23-23S859.7,264,847,264L847,264z"/>
		<circle class="st5" cx="1172.4" cy="287" r="19"/>
		<path d="M1172.4,272c8.3,0,15,6.7,15,15s-6.7,15-15,15s-15-6.7-15-15S1164.1,272,1172.4,272L1172.4,272 M1172.4,264
			c-12.7,0-23,10.3-23,23s10.3,23,23,23s23-10.3,23-23S1185.1,264,1172.4,264L1172.4,264z"/>
		<circle class="st5" cx="1495" cy="287" r="19"/>
		<path d="M1495,272c8.3,0,15,6.7,15,15s-6.7,15-15,15s-15-6.7-15-15S1486.7,272,1495,272L1495,272 M1495,264c-12.7,0-23,10.3-23,23
			s10.3,23,23,23s23-10.3,23-23S1507.7,264,1495,264L1495,264z"/>
		<circle class="st5" cx="1820.4" cy="287" r="19"/>
		<path d="M1820.4,272c8.3,0,15,6.7,15,15s-6.7,15-15,15s-15-6.7-15-15S1812.1,272,1820.4,272L1820.4,272 M1820.4,264
			c-12.7,0-23,10.3-23,23s10.3,23,23,23s23-10.3,23-23S1833.1,264,1820.4,264L1820.4,264z"/>
		<circle class="st5" cx="847" cy="773" r="19"/>
		<path d="M847,758c8.3,0,15,6.7,15,15s-6.7,15-15,15s-15-6.7-15-15S838.7,758,847,758L847,758 M847,750c-12.7,0-23,10.3-23,23
			s10.3,23,23,23s23-10.3,23-23l0,0C870,760.3,859.7,750,847,750z"/>
		<circle class="st5" cx="1172.4" cy="773" r="19"/>
		<path d="M1172.4,758c8.3,0,15,6.7,15,15s-6.7,15-15,15s-15-6.7-15-15S1164.1,758,1172.4,758L1172.4,758 M1172.4,750
			c-12.7,0-23,10.3-23,23s10.3,23,23,23s23-10.3,23-23l0,0C1195.4,760.3,1185.1,750,1172.4,750z"/>
		<circle class="st5" cx="1495" cy="773" r="19"/>
		<path d="M1495,758c8.3,0,15,6.7,15,15s-6.7,15-15,15s-15-6.7-15-15S1486.7,758,1495,758L1495,758 M1495,750c-12.7,0-23,10.3-23,23
			s10.3,23,23,23s23-10.3,23-23l0,0C1518,760.3,1507.7,750,1495,750z"/>
		<circle class="st5" cx="1820.4" cy="773" r="19"/>
		<path d="M1820.4,758c8.3,0,15,6.7,15,15s-6.7,15-15,15s-15-6.7-15-15S1812.1,758,1820.4,758L1820.4,758 M1820.4,750
			c-12.7,0-23,10.3-23,23s10.3,23,23,23s23-10.3,23-23l0,0C1843.4,760.3,1833.1,750,1820.4,750z"/>
	</g>
	<g id="Logo_x5F_Top">
		<g id="Gradient_Part-3_1_">
			<g>
				
					<linearGradient id="SVGID_2_" gradientUnits="userSpaceOnUse" x1="370.2618" y1="732.2885" x2="370.2618" y2="1773.5269" gradientTransform="matrix(6.123234e-17 -1 1 6.123234e-17 82.1432 900.9633)">
					<stop  offset="0.2" style="stop-color:#FFF230"/>
					<stop  offset="0.5" style="stop-color:#FF8014"/>
					<stop  offset="0.8" style="stop-color:#B40000"/>
				</linearGradient>
				<path class="st8" d="M1494.7,318.9l-29.1,33.6c-44.3-9.4-89.7-12-134.7-7.7l-29.2-34.8l0.4,38.5c-38.4,6.3-75.7,17.7-111.1,33.9
					L1182,359c0,0-368.1,141.9-367.6,177.1c0.5,35.2,371.4,168.9,371.4,168.9l8.5-23.5c35.7,15.4,73.3,25.9,111.8,31.4l0.4,38.5
					L1335,716c45.1,3.3,90.5-0.3,134.5-10.7l29.9,32.9l-0.4-41.1c9.7-3,19.2-6.5,28.5-10.6l20.7,15.9l190.1-49l-3.3-38.1
					c83.4-18.5,120.7-90.8,120.7-90.8s-39-71.4-122.8-88.1l2.5-38.2l-191.2-44.8l-20.3,16.3c-9.4-3.9-19-7.2-28.7-10L1494.7,318.9z
					 M1732.4,524.2l-99.2,45.8l-26.9-45.2L1633,485L1732.4,524.2z"/>
			</g>
			<path d="M839.7,535.8c7.7-5.8,23.5-15.9,55.2-32c31.2-15.8,72.6-34.8,123.2-56.5c62.2-26.7,123.2-51,152.7-62.6l1.9,4.9l7.6,19.6
				l19.1-8.7c38.2-17.5,78.8-29.1,120.4-34.4c33.4-4.3,67.3-4.5,100.8-0.7c57.7,6.5,95,22.7,95.4,22.8l11,4.9l9.3-7.5l12.8-10.3
				l165.4,38.8l-1.4,21.4l-1.1,17.3l17,3.4c30.6,6,58.1,20.8,81.9,43.9c7.9,7.6,15,16,21.4,24.9c-6.2,9.1-13.1,17.6-20.8,25.5
				c-23.3,23.7-50.4,39.2-80.8,45.9l-17,3.7l1.5,17.3l1.9,21.4l-164.6,42.3l-13.1-10l-9.6-7.3l-10.9,5.1
				c-0.4,0.2-37.3,17.2-94.9,24.9c-33.4,4.5-67.2,5-100.8,1.5c-41.7-4.4-82.6-15.1-121.1-31.7l-19.3-8.3l-7.1,19.7l-1.9,4.9
				c-29.8-11-91.2-33.9-154-59.2c-51-20.5-92.8-38.7-124.4-53.8c-32.1-15.4-48.1-25.2-56-30.8 M814.2,536L814.2,536
				c0.4,35.2,371.5,169,371.5,169l8.5-23.5c179.8,77.2,333,5.1,333,5.1l20.7,15.9l190.1-49l-3.3-38.1
				c83.4-18.5,120.7-90.8,120.7-90.8s-38.8-71.4-122.6-88.1l2.5-38.2l-191.2-44.8l-20.3,16.3c0,0-154.8-68.7-332.8,12.5L1182,359
				c0,0-367.6,141.8-367.6,177.1L814.2,536z"/>
			<path class="st7" d="M900.9,535.1c-0.2-18.7,223.4-91.6,223.4-91.6l21,10.8l67.8-14.3l182.7-17l2.4,216.7l-180.7-14.3l-70.4-11.6
				l-20.8,11.2c0,0-225.2-71.2-225.4-89.9"/>
			<path d="M1630.5,579.4l6.1-19.6l-18.9-32.5l18.2-32.9l-6.6-19.5l-25.6,28.6l-4-6.9l-46.4,0.5c0,0,28.6,23.5,28.7,30.6
				c0.1,7.2-28,31.3-28,31.3l46.4-0.5l3.9-7L1630.5,579.4z"/>
			<polygon points="1164.6,506.4 988.9,535.3 1169.2,558.4 1151.5,584.8 967.6,537.7 1160.6,476.2 			"/>
			<polygon points="1216.6,499 1240.9,506.8 1350.8,505.6 1363,472.5 1233.2,474.7 			"/>
			<polygon points="1217.3,564.7 1241.4,556.3 1351.4,555.1 1364.2,588 1234.4,588.7 			"/>
			<path d="M1007.6,534c35.2-12,90.2-28.7,141.8-43.4l3.4,5.6l6.6,10.9l12.7-1.5l41.7-4.9l5.2-0.6l4.2-3.1l15.2-11.2
				c122.7-11.2,205-4.1,252.7,3.8c51,8.5,74.1,19.6,75.4,20.4l4.3,2.4h5.2l34.1-0.4h7.6l5.6-5.1l12.6-11.6l77,30.9l-76.3,32.7
				l-12.8-11.3l-5.7-5l-7.6,0.1l-34.1,0.4h-5l-4.4,2.6c-1.3,0.7-24.1,12.4-74.9,22c-47.5,9-129.6,17.8-252.5,9.3l-15.4-10.9l-4.3-3
				l-5.3-0.5l-41.8-3.9l-12.7-1.2l-6.3,11.1l-3.3,5.7C1098.4,560.8,1043.1,545.3,1007.6,534 M958.1,534.5L958.1,534.5
				c0.1,11,202,62.7,202,62.7l10.8-18.9l41.9,4l20,14.1c252.1,18.1,343.9-33.5,343.9-33.5l34.1-0.4l22.2,19.6l131.4-56.4L1631.7,472
				l-21.8,20.1l-34.1,0.4c0,0-93-49.6-344.6-25.9l-19.6,14.5l-41.7,4.9l-11.2-18.7C1158.7,467.3,958.1,523.4,958.1,534.5
				L958.1,534.5z"/>
		</g>
		<g id="X-3_1_">
			<path class="st5" d="M1512.5,738.3c0,7.3-5.9,13.2-13.2,13.2c-3.7,0-7.3-1.6-9.8-4.4l-74.2-82.1c-3.7-4-4.5-9.9-2-14.8l6.2-12.3
				l-12-10.5l-21.3,20.9l0.2,20.2c0,3-1,5.9-2.9,8.3l-66.6,82.9c-4.6,5.7-12.9,6.6-18.5,2.1c-3.1-2.5-4.9-6.2-4.9-10.2l-1.9-160.7
				c0-3.4,1.3-6.6,3.6-9l48.5-51.5l-49.7-50.4c-2.4-2.4-3.7-5.7-3.7-9.1l-1.8-160.7c0-7.3,5.9-13.2,13.2-13.2
				c3.9,0,7.6,1.7,10.1,4.7l68.4,81.4c2,2.3,3.1,5.3,3.1,8.4l0.2,20l21.8,20.4l11.8-10.8l-6.4-12.1c-1-1.9-1.5-4-1.5-6.2
				c0-3.2,1.1-6.3,3.2-8.7l72.4-83.7c4.8-5.5,13.1-6.1,18.6-1.4c2.9,2.5,4.5,6.1,4.6,9.9l1.9,176.1c0,3.7-1.6,7.3-4.3,9.8
				l-26.7,24.1l27.2,23.5c2.9,2.5,4.5,6.1,4.6,9.8L1512.5,738.3z"/>
			<path d="M1301.8,310l68.4,81.4l0.3,25.7l34.8,32.5l28.3-26l-11.2-21.2l72.4-83.7l1.9,176l-37.7,34.2l38.5,33.3l1.9,176
				l-74.2-82.1l10.8-21.4l-28.8-25.2l-34.1,33.4l0.3,25.7l-66.6,82.9l-1.8-160.6l57.4-60.8l-58.6-59.5L1301.8,310 M1275.4,310v0.3
				l1.8,160.6c0.1,6.8,2.8,13.4,7.6,18.2l40.7,41.4l-39.8,42.2c-4.6,4.9-7.2,11.4-7.2,18.1v0.3l1.8,160.6
				c0.1,14.6,12.1,26.3,26.6,26.1c7.9-0.1,15.4-3.7,20.3-9.9l66.6-82.9c3.8-4.7,5.8-10.5,5.8-16.5v-0.3v-5.6c1.1,4.2,3.1,8,6,11.2
				l74.2,82.1c9.8,10.8,26.5,11.6,37.3,1.9c5.5-5,8.7-12.1,8.7-19.6v-0.3l-1.9-176c-0.1-7.6-3.4-14.7-9.1-19.7l-15.9-13.8l15.6-14.1
				c5.5-5,8.7-12.1,8.7-19.6v-0.3l-1.9-176c-0.2-14.6-12.1-26.3-26.7-26.1c-7.6,0.1-14.7,3.4-19.7,9.1l-72.4,83.7
				c-2.8,3.3-4.8,7.2-5.8,11.4V391c-0.1-6.1-2.3-12-6.2-16.7l-68.4-81.4c-9.4-11.2-26.1-12.6-37.2-3.2c-6,5-9.4,12.4-9.4,20.2
				L1275.4,310z"/>
		</g>
	</g>
</g>
<g id="Wakeboard">
	<path id="Wakeboard_Background" class="st9" d="M691.9,596.3c-34.5-280.5-110-569.8-204.5-568.8c-99.3,1.1-162.8,260.7-189.9,574.3
		C282,782.3,271,985.3,274,1264.2c0,0,8.4,650.8,233,648.3c222.2-2.4,227.5-652.8,227.5-652.8C732,1034.6,717.1,801.2,691.9,596.3z
		 M389.2,803.8c15.5-58.7,75.7-93.8,134.5-78.2s93.8,75.7,78.2,134.5s-75.7,93.8-134.5,78.2c0,0,0,0,0,0
		C408.7,922.7,373.7,862.5,389.2,803.8z"/>
	<g id="Bottom">
		
			<linearGradient id="SVGID_3_" gradientUnits="userSpaceOnUse" x1="-2249.6748" y1="-313.1299" x2="-2249.6748" y2="-795.9199" gradientTransform="matrix(1 -6.000000e-02 6.000000e-02 1 2661.1201 1963.9299)">
			<stop  offset="0.2" style="stop-color:#FFF230"/>
			<stop  offset="0.5" style="stop-color:#FF8014"/>
			<stop  offset="0.8" style="stop-color:#B40000"/>
		</linearGradient>
		<path class="st10" d="M398.9,1773.2l0.7-28.8l-7.9-1.1c4.7-89.3-12.5-158.7-27.8-201.5s-31.6-67.5-34.9-72.3L318.8,1319l41.1-1.2
			l22.1,52.8l-12.5,9.8l1.9,2.7c38.6,57,48.8,140.4,50.5,200.3c1.2,39.4-0.7,78.9-5.5,118l-0.6,4.1l17.9-0.4l-17.8,91.4
			L398.9,1773.2z"/>
		<path d="M357.5,1321.3l20.2,48.1l-7.8,6.1l-5.2,4.1l3.7,5.4c16.7,24.7,29.5,56.6,38,94.7c6.8,30.8,10.9,65.6,12,103.6
			c1.2,39.3-0.7,78.5-5.5,117.5l-1.2,8.2l8.3-0.2l9.3-0.2l-15.4,79.1l-11.5-15.8l0.6-24.4l0.1-6.3l-6.3-0.8l-1.5-0.2
			c4.1-88.3-12.9-157.1-28.1-199.6c-14.8-41.2-30.4-65.8-34.8-72.3l-10-146L357.5,1321.3 M362.3,1314.1l-47.3,1.4l10.7,155.3
			c0,0,72.6,100.9,62.4,275.6l8,1.1l-0.7,26.8l22.4,30.9l20.2-103.7l-18.1,0.4c0,0,30-209.1-45.6-320.8l12-9.4L362.3,1314.1
			L362.3,1314.1z"/>
		
			<linearGradient id="SVGID_4_" gradientUnits="userSpaceOnUse" x1="2894.9351" y1="-425.3791" x2="2894.9351" y2="-581.6492" gradientTransform="matrix(-1 -1.000000e-02 -2.000000e-02 1.15 3234.7 2214.47)">
			<stop  offset="0.2" style="stop-color:#FFF230"/>
			<stop  offset="0.5" style="stop-color:#FF8014"/>
			<stop  offset="0.8" style="stop-color:#B40000"/>
		</linearGradient>
		<path class="st11" d="M367.9,1696.5c-1.3,0-2.5-0.7-3.1-1.8c-21.8-39.1-36.1-168.4-36.7-173.9c-0.2-1.6,0.8-3.2,2.3-3.7
			c1.5-0.6,3.3,0,4.1,1.4c22.6,34.5,31.4,80.2,34.8,112.5c2.2,20.7,2.9,41.5,2,62.2c-0.1,1.6-1.2,2.9-2.7,3.2
			C368.4,1696.5,368.2,1696.5,367.9,1696.5z"/>
		<path d="M331.6,1520.5c43,65.7,36.3,172.5,36.3,172.5C346.2,1654.1,331.6,1520.5,331.6,1520.5 M331.6,1513.4c-3.9,0-7,3.2-7,7.1
			c0,0.3,0,0.5,0,0.8c0.6,5.5,15,135.5,37.1,175.2c1.9,3.4,6.2,4.6,9.6,2.8c2.1-1.2,3.5-3.3,3.6-5.8c0.9-21,0.3-42-2-62.8
			c-5-47.5-16.9-85.8-35.4-114C336.3,1514.6,334.1,1513.4,331.6,1513.4L331.6,1513.4z"/>
		
			<linearGradient id="SVGID_5_" gradientUnits="userSpaceOnUse" x1="-2519.4309" y1="-330.7628" x2="-2519.4309" y2="-813.5665" gradientTransform="matrix(-0.998 -6.348725e-02 -6.348725e-02 0.998 -1921.7682 1968.0615)">
			<stop  offset="0.2" style="stop-color:#FFF230"/>
			<stop  offset="0.5" style="stop-color:#FF8014"/>
			<stop  offset="0.8" style="stop-color:#B40000"/>
		</linearGradient>
		<path class="st12" d="M574.3,1705.2l17.9,0.4l-0.6-4.1c-4.9-39.1-6.7-78.6-5.5-118c1.8-59.9,12-143.3,50.5-200.3l1.8-2.7
			l-12.5-9.8l22.2-52.8l41.1,1.2l-10.3,150.6c-3.3,4.8-19.5,29.5-34.9,72.3s-32.5,112.2-27.8,201.5l-7.8,1.1l0.7,28.8l-17,23.3
			L574.3,1705.2z"/>
		<path d="M650.5,1321.3l35,1.1l-10,146c-4.4,6.5-20,31.2-34.8,72.3c-15.2,42.5-32.3,111.3-28.2,199.6l-1.5,0.2l-6.3,0.8l0.2,6.3
			l0.6,24.4l-11.6,15.8l-15.4-79.1l9.3,0.2l8.3,0.2l-1.2-8.2c-4.8-39-6.7-78.3-5.5-117.5c1.1-38,5.2-72.8,12-103.6
			c8.5-38.1,21.2-70,38-94.7l3.7-5.4l-5.2-4.1l-7.8-6.1L650.5,1321.3 M645.9,1314.1l-24.1,57.5l12,9.4
			c-75.6,111.8-45.6,320.8-45.6,320.8l-18.1-0.4l20.2,103.7l22.4-30.9l-0.7-26.8l8-1.1c-10.2-174.7,62.4-275.6,62.4-275.6
			l10.6-155.3L645.9,1314.1L645.9,1314.1z"/>
		
			<linearGradient id="SVGID_6_" gradientUnits="userSpaceOnUse" x1="3170.6677" y1="-422.28" x2="3170.6677" y2="-578.55" gradientTransform="matrix(1 -1.000000e-02 2.000000e-02 1.15 -2502.49 2214.47)">
			<stop  offset="0.2" style="stop-color:#FFF230"/>
			<stop  offset="0.5" style="stop-color:#FF8014"/>
			<stop  offset="0.8" style="stop-color:#B40000"/>
		</linearGradient>
		<path class="st13" d="M640.1,1696.5c-0.3,0-0.5,0-0.8-0.1c-1.5-0.3-2.6-1.7-2.7-3.2c-0.9-20.8-0.2-41.6,2-62.2
			c3.4-32.3,12.2-78,34.8-112.5c1.1-1.6,3.3-2.1,4.9-1c1.1,0.7,1.7,2,1.6,3.3c-0.6,5.5-14.9,134.8-36.7,173.9
			C642.6,1695.8,641.4,1696.5,640.1,1696.5z"/>
		<path d="M676.4,1520.5c0,0-14.6,133.7-36.3,172.5C640.1,1693,633.3,1586.1,676.4,1520.5 M676.4,1513.4c-2.4,0-4.6,1.2-5.9,3.2
			c-18.5,28.2-30.4,66.5-35.4,114c-2.3,20.9-2.9,41.9-2,62.8c0.2,3.9,3.6,6.9,7.5,6.6c2.4-0.1,4.6-1.5,5.8-3.6
			c22.1-39.7,36.5-169.7,37.1-175.2c0.4-3.9-2.3-7.4-6.2-7.8C676.9,1513.4,676.7,1513.4,676.4,1513.4L676.4,1513.4z"/>
	</g>
	<g id="Top">
		
			<linearGradient id="SVGID_7_" gradientUnits="userSpaceOnUse" x1="2836.7952" y1="-1390.2488" x2="2836.7952" y2="-860.2334" gradientTransform="matrix(-0.9999 1.099544e-02 1.099544e-02 0.9999 3213.6814 2083.7239)">
			<stop  offset="0.2" style="stop-color:#FFF230"/>
			<stop  offset="0.5" style="stop-color:#FF8014"/>
			<stop  offset="0.8" style="stop-color:#B40000"/>
		</linearGradient>
		<path class="st14" d="M352.3,1254.9c13-30.4,18.6-78.5,16.9-143.1c-1.1-42.8-5.3-79.8-6.6-90.5l12.9-3.4l-57.6-241.1l0.3-51.5
			c33.1,78.8,84.7,298.5,91.7,328.3l-19.4,5.1l1.5,3.7c20.5,51.2,19.9,170.2,19.6,191.9L352.3,1254.9z"/>
		<path d="M321.6,743.7c31.7,86.1,75.3,270,84,307.3l-12.2,3.2l-7.8,2l3,7.4c19.4,48.4,19.7,158.5,19.4,187.1l-50.6,0.6
			c11.7-31,16.9-77.9,15.2-139.6c-1-39.5-4.7-74.1-6.3-87.8l6.5-1.7l6.7-1.8l-1.6-6.7l-56.7-237.3L321.6,743.7 M314.8,709.4
			l-0.4,67.8l56.9,238.1l-12.5,3.3c0,0,22.7,168.8-11.9,239.9l68.4-0.8c0,0,3.2-139.2-19.9-196.7l18.8-4.9
			C414.1,1056.1,349.7,776.2,314.8,709.4z"/>
		
			<linearGradient id="SVGID_8_" gradientUnits="userSpaceOnUse" x1="2866.9438" y1="-1263.4574" x2="2866.9438" y2="-871.1831" gradientTransform="matrix(-0.9999 1.099544e-02 1.099544e-02 0.9999 3213.6814 2083.7239)">
			<stop  offset="0.2" style="stop-color:#FFF230"/>
			<stop  offset="0.5" style="stop-color:#FF8014"/>
			<stop  offset="0.8" style="stop-color:#B40000"/>
		</linearGradient>
		<path class="st15" d="M323.4,1244.3c-0.1-55.4-7.2-186.6-8.4-209.2l17.3-2l-13.3-107.5l1.9-73.5c13.6,54.2,31.5,182.5,34.5,204.4
			l-10.8,2.5l0.7,3.4c11.7,56.3,3.3,106.4-5.8,138.5C335.3,1215.7,329.9,1230.2,323.4,1244.3z"/>
		<path d="M323.6,880.9c10,50,21.3,125.1,27.8,172.8l-4.3,1l-6.7,1.6l1.4,6.8c5.1,24.8,6.8,50.1,5.1,75.3
			c-1.4,20.7-5,41.2-10.7,61.2c-3,10.6-6.3,20-9.4,27.9c-1.1-58.9-6.6-161.8-8.1-189.3l10.5-1.2l7.1-0.8l-0.9-7.1l-12.9-103.7
			L323.6,880.9 M317.9,830.8l-2.5,95l12.9,104.2l-17.1,2c0,0,10.3,183.2,8.4,227.5c0,0,52.1-87.2,29.1-197.8l10.6-2.5
			C359.3,1059.2,333,863.6,317.9,830.8z"/>
		
			<linearGradient id="SVGID_9_" gradientUnits="userSpaceOnUse" x1="-1666.2101" y1="-1390.24" x2="-1666.2101" y2="-860.1708" gradientTransform="matrix(1 -1.000000e-02 1.000000e-02 1 2319.77 2093.4502)">
			<stop  offset="0.2" style="stop-color:#FFF230"/>
			<stop  offset="0.5" style="stop-color:#FF8014"/>
			<stop  offset="0.8" style="stop-color:#B40000"/>
		</linearGradient>
		<path class="st16" d="M601.3,1252.2c-0.8-21.7-4-140.6,15.4-192.3l1.4-3.8l-19.5-4.6c6.3-30,53.1-250.8,84.4-330.3l1.5,51.5
			L632.3,1015l13,3.1c-1.1,10.7-4.5,47.8-4.7,90.7c-0.3,64.6,6.5,112.6,20.1,142.7L601.3,1252.2z"/>
		<path d="M680,739.7l0.9,32.7l-51.4,238.5l-1.5,6.8l6.7,1.6l6.6,1.6c-1.3,13.7-4.2,48.4-4.4,87.9c-0.3,61.7,5.9,108.4,18.3,139.2
			l-50.6,0.6c-0.9-28.5-3-138.7,15.3-187.4l2.8-7.5l-7.8-1.9l-12.2-2.9C610.7,1011.3,650.3,826.6,680,739.7 M686.1,705.3
			c-33.5,67.6-91.7,348.9-91.7,348.9l18.9,4.5c-21.8,58-15.5,197.1-15.5,197.1l68.4-0.8c-36.2-70.3-17.2-239.6-17.2-239.6l-12.6-3
			l51.6-239.3L686.1,705.3L686.1,705.3z"/>
		
			<linearGradient id="SVGID_10_" gradientUnits="userSpaceOnUse" x1="-1635.9117" y1="-1263.46" x2="-1635.9117" y2="-871.1985" gradientTransform="matrix(1 -1.000000e-02 1.000000e-02 1 2319.77 2093.4502)">
			<stop  offset="0.2" style="stop-color:#FFF230"/>
			<stop  offset="0.5" style="stop-color:#FF8014"/>
			<stop  offset="0.8" style="stop-color:#B40000"/>
		</linearGradient>
		<path class="st17" d="M689.3,1240.2c-6.8-13.9-12.5-28.4-17-43.2c-9.8-31.9-19.3-81.7-8.8-138.3l0.6-3.4l-10.9-2.3
			c2.5-21.9,17.6-150.6,30-205.1l3.5,73.5l-11,107.8l17.3,1.6C692.4,1053.5,688.2,1184.8,689.3,1240.2z"/>
		<path d="M681,876.9l2.2,44.5l-10.6,103.9l-0.7,7.1l7.1,0.7l10.5,1c-0.9,27.5-4.1,130.5-3.9,189.4c-3.2-7.7-6.7-16.9-9.9-27.2
			c-6.2-19.9-10.2-40.4-12.2-61.1c-2.4-25.3-1.2-50.8,3.4-75.7l1.3-6.8l-6.8-1.4l-4.3-0.9C662.5,1002.5,672.1,927.1,681,876.9
			 M685.7,826.8c-14.4,33.2-36.4,229.1-36.4,229.1l10.6,2.2c-20.6,111.1,33.4,197.1,33.4,197.1c-2.8-44.2,3.4-227.6,3.4-227.6
			l-17.1-1.6l10.6-104.5L685.7,826.8L685.7,826.8z"/>
	</g>
	<g id="Logo_x5F_Wakeboard">
		<g id="Gradient_Part-3">
			<g>
				<linearGradient id="SVGID_11_" gradientUnits="userSpaceOnUse" x1="491.515" y1="130.4598" x2="491.515" y2="688.4901">
					<stop  offset="0.2" style="stop-color:#FFF230"/>
					<stop  offset="0.5" style="stop-color:#FF8014"/>
					<stop  offset="0.8" style="stop-color:#B40000"/>
				</linearGradient>
				<path class="st18" d="M605,495.1l-18-15.6c5-23.7,6.4-48.1,4.1-72.2l18.6-15.6l-20.6,0.2c-3.4-20.6-9.5-40.6-18.2-59.5l12.5-4.9
					c0,0-76.1-197.3-94.9-197s-90.5,199-90.5,199l12.6,4.6c-8.2,19.1-13.9,39.3-16.8,59.9l-20.6,0.2l19,15.2
					c-1.8,24.2,0.2,48.5,5.7,72.1l-17.6,16l22-0.2c1.6,5.2,3.5,10.3,5.7,15.3l-8.5,11.1l26.3,101.9l20.4-1.8
					c9.9,44.7,48.7,64.7,48.7,64.7s38.2-20.9,47.2-65.8l20.5,1.3l24-102.5l-8.8-10.9c2.1-5,3.9-10.2,5.3-15.4L605,495.1z M495,622.4
					l-24.6-53.2l24.2-14.4l21.4,14.3L495,622.4z"/>
			</g>
			<path d="M488.8,144c3.1,4.1,8.5,12.6,17.1,29.6c8.5,16.7,18.7,38.9,30.3,66c14.3,33.3,27.3,66,33.6,81.8l-2.6,1l-10.5,4.1
				l4.7,10.2c9.4,20.5,15.6,42.2,18.5,64.5c2.3,17.9,2.4,36,0.4,54c-3.5,30.9-12.1,50.9-12.2,51.1l-2.6,5.9l4,5l5.5,6.9l-20.8,88.7
				l-11.5-0.8l-9.3-0.6l-1.8,9.1c-3.2,16.4-11.1,31.1-23.5,43.9c-4.1,4.2-8.6,8-13.3,11.5c-4.9-3.3-9.5-7-13.7-11.2
				c-12.7-12.5-21-27-24.6-43.3l-2-9.1l-9.3,0.8l-11.5,1L411,526l5.4-7l3.9-5.1l-2.7-5.8c-0.1-0.2-9.2-20-13.4-50.9
				c-2.4-17.9-2.7-36-0.8-54c2.4-22.4,8.1-44.3,17-64.9l4.4-10.3l-10.6-3.8l-2.6-1c5.9-16,18.1-48.9,31.7-82.5
				c11-27.3,20.7-49.8,28.9-66.6C480.5,156.7,485.8,148.2,488.8,144 M488.7,130.3L488.7,130.3c-18.9,0.2-90.6,199.1-90.6,199.1
				l12.6,4.6c-41.4,96.4-2.8,178.5-2.8,178.5l-8.5,11.1l26.3,101.9l20.4-1.8c9.9,44.7,48.7,64.7,48.7,64.7s38.3-20.8,47.2-65.7
				l20.5,1.3l24-102.5l-8.8-10.9c0,0,36.8-82.9-6.7-178.4l12.5-4.9c0,0-76-197-94.9-197L488.7,130.3z"/>
			<path class="st19" d="M489.1,176.8c10-0.1,49.1,119.7,49.1,119.7l-5.8,11.3l7.7,36.3l9.1,97.9l-116.1,1.3l7.7-96.8l6.2-37.7
				l-6-11.1C441,297.6,479.2,176.9,489.1,176.8"/>
			<path d="M465.4,567.8l10.5,3.3l17.4-10.1l17.6,9.7l10.4-3.5l-15.3-13.7l3.7-2.2l-0.3-24.8c0,0-12.6,15.3-16.4,15.4
				s-16.8-15-16.8-15l0.3,24.8l3.8,2.1L465.4,567.8z"/>
			<polygon points="504.5,318.1 489.1,223.9 476.7,320.6 462.5,311.1 487.8,212.6 520.7,316 			"/>
			<polygon points="508.5,346 504.3,359 505,417.9 522.7,424.4 521.5,354.9 			"/>
			<polygon points="473.3,346.4 477.8,359.3 478.4,418.2 460.8,425.1 460.4,355.5 			"/>
			<path d="M489.8,234c6.5,18.9,15.4,48.3,23.3,76l-3,1.8l-5.9,3.5l0.8,6.8l2.6,22.4l0.3,2.8l1.7,2.3l6,8.1
				c6,65.8,2.2,109.9-2,135.4c-4.5,27.3-10.5,39.7-10.9,40.4l-1.3,2.3v2.8l0.2,18.3v4.1l2.8,3l6.2,6.7L493.9,612l-17.6-40.9l6-6.9
				l2.7-3.1l0-4.1l-0.2-18.3v-2.7l-1.4-2.4c-0.4-0.7-6.7-12.9-11.8-40.1c-4.8-25.5-9.5-69.5-5-135.3l5.8-8.3l1.6-2.3l0.3-2.8
				l2.1-22.4l0.6-6.8l-5.9-3.4l-3.1-1.8C475.4,282.6,483.7,253,489.8,234 M489.5,207.4L489.5,207.4c-5.9,0.1-33.6,108.3-33.6,108.3
				l10.1,5.8l-2.1,22.4l-7.5,10.7c-9.7,135.1,17.9,184.3,17.9,184.3l0.2,18.3L464,569.1l30.2,70.4l28.7-71.1l-10.8-11.7l-0.2-18.3
				c0,0,26.6-49.8,13.9-184.7l-7.8-10.5l-2.6-22.4l10-6C525.5,314.9,495.4,207.4,489.5,207.4L489.5,207.4z"/>
		</g>
		<g id="X-3">
			<path class="st5" d="M380.2,504.6c-3.9,0-7.1-3.2-7.1-7.1c0-2,0.8-3.9,2.3-5.3l44-39.8c2.2-2,5.3-2.4,7.9-1.1l6.6,3.3l5.6-6.4
				l-11.2-11.4l-10.8,0.1c-1.6,0-3.2-0.6-4.4-1.6l-44.4-35.7c-3-2.4-3.5-6.9-1.1-9.9c1.3-1.7,3.3-2.6,5.5-2.7l86.1-1
				c1.8,0,3.5,0.7,4.9,1.9l27.6,26l27-26.6c1.3-1.3,3.1-2,4.9-2l86.2-0.9c3.9,0,7.1,3.2,7.1,7.1c0,2.1-0.9,4.1-2.5,5.4l-43.6,36.6
				c-1.3,1.1-2.8,1.6-4.5,1.7l-10.7,0.1l-10.9,11.7l5.8,6.3l6.5-3.5c1-0.5,2.2-0.8,3.3-0.8c1.7,0,3.4,0.6,4.6,1.7l44.8,38.8
				c3,2.6,3.3,7,0.7,10c-1.3,1.5-3.3,2.4-5.3,2.4l-94.4,1c-2,0-3.9-0.8-5.2-2.3l-12.9-14.3l-12.6,14.6c-1.3,1.5-3.2,2.4-5.3,2.4
				L380.2,504.6z"/>
			<path d="M609.8,391.6l-43.6,36.6l-13.8,0.1L535,447.1l13.9,15.2l11.3-6l44.8,38.8l-94.3,1l-18.3-20.2l-17.9,20.6l-94.3,1l44-39.8
				l11.5,5.8l13.5-15.5l-17.9-18.3l-13.8,0.2l-44.4-35.7l86.1-0.9l32.6,30.7l31.9-31.4L609.8,391.6 M609.8,377.5h-0.2l-86.1,1
				c-3.7,0-7.2,1.5-9.8,4.1l-22.2,21.8L469,383c-2.6-2.5-6.1-3.8-9.7-3.9h-0.2l-86.1,1c-7.8,0.1-14.1,6.5-14,14.3
				c0,4.2,2,8.2,5.3,10.9l44.4,35.7c2.5,2,5.6,3.1,8.9,3.1h0.2h3c-2.2,0.6-4.3,1.7-6,3.2l-44,39.8c-5.8,5.2-6.2,14.2-1,20
				c2.7,3,6.5,4.7,10.5,4.7h0.2l94.3-1c4.1,0,7.9-1.8,10.5-4.9l7.4-8.5l7.6,8.4c2.7,3,6.5,4.7,10.5,4.7h0.1l94.3-1
				c7.8-0.1,14.1-6.5,14-14.3c0-4-1.8-7.9-4.9-10.5l-44.8-38.8c-1.7-1.5-3.8-2.6-6.1-3.1h3c3.3,0,6.4-1.2,9-3.3l43.6-36.6
				c6-5,6.8-14,1.7-20c-2.7-3.2-6.7-5-10.8-5L609.8,377.5z"/>
		</g>
	</g>
</g>
</svg>
