<svg id="Sticker_Sheet" data-name="Sticker Sheet" xmlns="http://www.w3.org/2000/svg" xmlns:xlink="http://www.w3.org/1999/xlink" viewBox="0 0 2048 2048"><defs><style>.cls-1,.cls-13,.cls-29{fill:none;}.cls-2{fill:#fff;}.cls-3{font-size:36.25px;font-family:Arial-BoldMT, Arial;font-weight:700;letter-spacing:0.02em;}.cls-4{letter-spacing:-0.06em;}.cls-5{letter-spacing:-0.05em;}.cls-6{letter-spacing:0.01em;}.cls-7{letter-spacing:-0.03em;}.cls-8{letter-spacing:-0.05em;}.cls-9{fill:#8c8c8c;}.cls-10{clip-path:url(#clip-path);}.cls-11{fill:url(#linear-gradient);}.cls-12{fill:url(#linear-gradient-2);}.cls-13,.cls-29{stroke:#000;stroke-miterlimit:10;}.cls-13{stroke-width:19.8px;}.cls-14{clip-path:url(#clip-path-3);}.cls-15{fill:url(#linear-gradient-3);}.cls-16{fill:url(#linear-gradient-4);}.cls-17{fill:#fac80a;}.cls-18{fill:url(#linear-gradient-5);}.cls-19{fill:url(#linear-gradient-6);}.cls-20{fill:url(#linear-gradient-7);}.cls-21{fill:url(#linear-gradient-8);}.cls-22{fill:url(#linear-gradient-9);}.cls-23{fill:url(#linear-gradient-10);}.cls-24{fill:url(#linear-gradient-11);}.cls-25{fill:url(#linear-gradient-12);}.cls-26{clip-path:url(#clip-path-5);}.cls-27{fill:url(#linear-gradient-13);}.cls-28{fill:url(#linear-gradient-14);}.cls-29{stroke-width:10.61px;}</style><clipPath id="clip-path"><path class="cls-1" d="M1855.67,1374.6s-38.93-71.45-122.74-88.14l2.52-38.17-191.22-44.84-20.35,16.36a255.59,255.59,0,0,0-28.72-10l-.45-41-29.08,33.59a445.65,445.65,0,0,0-134.73-7.7l-29.21-34.77.42,38.5A437.57,437.57,0,0,0,1191,1232.27l-9.06-23.37s-368.14,141.95-367.75,177.15,371.56,169,371.56,169l8.54-23.57a437.57,437.57,0,0,0,111.84,31.42l.43,38.5L1335,1566a445.53,445.53,0,0,0,134.53-10.66l29.81,32.94-.45-41a257.74,257.74,0,0,0,28.49-10.62l20.71,15.91,190.18-49-3.35-38.11C1818.32,1446.9,1855.67,1374.6,1855.67,1374.6ZM1633.17,1420l-26.9-45.18,26.7-39.91,99.46,39.25Z"/></clipPath><linearGradient id="linear-gradient" x1="3677.71" y1="3429.66" x2="3688.91" y2="2410.23" gradientTransform="translate(4213.68 -2335.25) rotate(89.37)" gradientUnits="userSpaceOnUse"><stop offset="0.2" stop-color="#fff230"/><stop offset="0.5" stop-color="#ff8014"/><stop offset="0.8" stop-color="#b40000"/></linearGradient><linearGradient id="linear-gradient-2" x1="3679.42" y1="3296.39" x2="3688.29" y2="2490.02" xlink:href="#linear-gradient"/><clipPath id="clip-path-3"><path class="cls-1" d="M1855.67,523.94s-38.93-71.46-122.74-88.14l2.52-38.18-191.22-44.84-20.35,16.36a258.16,258.16,0,0,0-28.72-10l-.45-41-29.08,33.59A445,445,0,0,0,1330.9,344l-29.21-34.78.42,38.5A438,438,0,0,0,1191,381.6l-9.06-23.37s-368.14,142-367.75,177.16,371.56,169,371.56,169l8.54-23.56a438,438,0,0,0,111.84,31.42l.43,38.5L1335,715.36a445.53,445.53,0,0,0,134.53-10.66l29.81,32.94-.45-41A256.73,256.73,0,0,0,1527.36,686l20.71,15.91,190.18-49-3.35-38.11C1818.32,596.23,1855.67,523.94,1855.67,523.94Zm-222.5,45.35-26.9-45.18,26.7-39.9,99.46,39.25Z"/></clipPath><linearGradient id="linear-gradient-3" x1="2827.09" y1="3420.31" x2="2838.3" y2="2400.87" xlink:href="#linear-gradient"/><linearGradient id="linear-gradient-4" x1="2828.81" y1="3287.04" x2="2837.67" y2="2480.67" xlink:href="#linear-gradient"/><linearGradient id="linear-gradient-5" x1="-2244.34" y1="2361.13" x2="-2244.34" y2="2843.92" gradientTransform="matrix(1, -0.06, -0.06, -1, 2784, 4011.93)" xlink:href="#linear-gradient"/><linearGradient id="linear-gradient-6" x1="2876.46" y1="2473.52" x2="2876.46" y2="2629.79" gradientTransform="matrix(-1, -0.01, 0.02, -1.15, 3193.74, 4569.67)" xlink:href="#linear-gradient"/><linearGradient id="linear-gradient-7" x1="-2519.59" y1="2378.62" x2="-2519.59" y2="2861.41" gradientTransform="translate(-2051.79 4011.93) rotate(-176.36)" xlink:href="#linear-gradient"/><linearGradient id="linear-gradient-8" x1="3151.56" y1="2470.28" x2="3151.56" y2="2626.55" gradientTransform="matrix(1, -0.01, -0.02, -1.15, -2461.53, 4569.67)" xlink:href="#linear-gradient"/><linearGradient id="linear-gradient-9" x1="2836.8" y1="3438.24" x2="2836.8" y2="2908.23" gradientTransform="translate(3236.2 4131.6) rotate(179.37)" xlink:href="#linear-gradient"/><linearGradient id="linear-gradient-10" x1="2866.95" y1="3311.46" x2="2866.95" y2="2919.18" gradientTransform="translate(3236.2 4131.6) rotate(179.37)" xlink:href="#linear-gradient"/><linearGradient id="linear-gradient-11" x1="-1663.07" y1="3438.24" x2="-1663.07" y2="2908.23" gradientTransform="matrix(1, -0.01, -0.01, -1, 2340.25, 4141.45)" xlink:href="#linear-gradient"/><linearGradient id="linear-gradient-12" x1="-1632.92" y1="3311.46" x2="-1632.92" y2="2919.18" gradientTransform="matrix(1, -0.01, -0.01, -1, 2340.25, 4141.45)" xlink:href="#linear-gradient"/><clipPath id="clip-path-5"><path class="cls-1" d="M605.05,495.06l-18-15.58a238.72,238.72,0,0,0,4.12-72.2l18.64-15.65-20.63.23A234.71,234.71,0,0,0,571,332.32l12.52-4.86s-76.06-197.26-94.92-197S398.06,329.5,398.06,329.5l12.62,4.58A234.61,234.61,0,0,0,393.85,394l-20.63.22,19,15.24a238.77,238.77,0,0,0,5.71,72.09l-17.65,16,22-.24a136.8,136.8,0,0,0,5.69,15.26l-8.52,11.1,26.27,101.9,20.42-1.79c9.92,44.69,48.66,64.71,48.66,64.71S533.05,667.61,542,622.7l20.45,1.35,24-102.46-8.76-10.9a139,139,0,0,0,5.34-15.39ZM495,622.43l-24.56-53.18,24.21-14.42,21.38,14.31Z"/></clipPath><linearGradient id="linear-gradient-13" x1="2700.2" y1="4025.52" x2="2706.21" y2="3479.28" gradientTransform="translate(3236.2 4131.6) rotate(179.37)" xlink:href="#linear-gradient"/><linearGradient id="linear-gradient-14" x1="2701.13" y1="3954.1" x2="2705.88" y2="3522.02" gradientTransform="translate(3236.2 4131.6) rotate(179.37)" xlink:href="#linear-gradient"/></defs><rect id="Background_Color" data-name="Background Color" class="cls-2" width="2048" height="2048"/><g id="Unneccesary_Stuff" data-name="Unneccesary Stuff"><rect x="132.36" y="952" width="107.64" height="50.33"/><text class="cls-3" transform="translate(1044.89 1924.16)">43660/4173453<tspan class="cls-4" x="259.55" y="0"> </tspan><tspan class="cls-5" x="267.48" y="0">© </tspan><tspan class="cls-6" x="300.57" y="0">2002 LEGO </tspan><tspan class="cls-7" x="506.25" y="0">GROU</tspan><tspan class="cls-8" x="610.07" y="0">P</tspan></text></g><g id="Logo_with_Nails_Bottom" data-name="Logo with Nails Bottom"><g id="Nails"><circle class="cls-9" cx="847" cy="1137.67" r="19"/><path d="M847,1122.67a15,15,0,1,1-15,15,15,15,0,0,1,15-15m0-8a23,23,0,1,0,23,23,23,23,0,0,0-23-23Z"/><circle class="cls-9" cx="1172.42" cy="1137.67" r="19"/><path d="M1172.42,1122.67a15,15,0,1,1-15,15,15,15,0,0,1,15-15m0-8a23,23,0,1,0,23,23,23,23,0,0,0-23-23Z"/><circle class="cls-9" cx="1495" cy="1137.67" r="19"/><path d="M1495,1122.67a15,15,0,1,1-15,15,15,15,0,0,1,15-15m0-8a23,23,0,1,0,23,23,23,23,0,0,0-23-23Z"/><circle class="cls-9" cx="1820.42" cy="1137.67" r="19"/><path d="M1820.42,1122.67a15,15,0,1,1-15,15,15,15,0,0,1,15-15m0-8a23,23,0,1,0,23,23,23,23,0,0,0-23-23Z"/><circle class="cls-9" cx="847" cy="1623.67" r="19"/><path d="M847,1608.67a15,15,0,1,1-15,15,15,15,0,0,1,15-15m0-8a23,23,0,1,0,23,23,23,23,0,0,0-23-23Z"/><circle class="cls-9" cx="1172.42" cy="1623.67" r="19"/><path d="M1172.42,1608.67a15,15,0,1,1-15,15,15,15,0,0,1,15-15m0-8a23,23,0,1,0,23,23,23,23,0,0,0-23-23Z"/><circle class="cls-9" cx="1495" cy="1623.67" r="19"/><path d="M1495,1608.67a15,15,0,1,1-15,15,15,15,0,0,1,15-15m0-8a23,23,0,1,0,23,23,23,23,0,0,0-23-23Z"/><circle class="cls-9" cx="1820.42" cy="1623.67" r="19"/><path d="M1820.42,1608.67a15,15,0,1,1-15,15,15,15,0,0,1,15-15m0-8a23,23,0,1,0,23,23,23,23,0,0,0-23-23Z"/></g><g id="Logo"><g id="Gradient_Part" data-name="Gradient Part"><g class="cls-10"><path class="cls-11" d="M1367.38,1557.33a426.38,426.38,0,0,1-169.19-34.91l-9.64-4.14-8.74,24.11c-25-9.16-97-35.73-169.45-65.14-52.37-21.24-94.78-39.77-126-55.08-45.77-22.4-57-32.71-59.67-36.23,2.64-3.59,13.6-14.14,58.88-37.55,30.92-16,72.92-35.46,124.83-57.85,71.83-31,143.09-59.12,167.92-68.82l9.27,23.91,9.55-4.35A426,426,0,0,1,1373,1202.55c86.29,0,146.26,26,146.86,26.31l5.51,2.44,4.7-3.77,16.59-13.34L1725,1256l-2.53,38.47,8.52,1.69c32.6,6.49,62,22.37,87.29,47.19a188.38,188.38,0,0,1,25.86,31.37,188.28,188.28,0,0,1-25.17,31.93c-24.76,25.37-53.77,41.89-86.23,49.09l-8.48,1.89,3.38,38.4-177.37,45.73-21.68-16.65-5.46,2.58c-.62.29-64.32,29.63-155.73,29.63Z"/><path d="M1373,1212.45c83.94,0,142.29,25.22,142.83,25.46l11,4.9,9.41-7.57,12.83-10.31,165.47,38.81-1.41,21.42-1.14,17.33,17,3.39c30.46,6.07,58,20.9,81.81,44.09a183.57,183.57,0,0,1,21.39,24.89,183.54,183.54,0,0,1-20.84,25.36c-23.3,23.7-50.49,39.13-80.82,45.87l-17,3.76,1.52,17.31,1.88,21.38L1552.48,1531l-13.06-10-9.54-7.37-10.92,5.14c-.15.07-15.77,7.29-42.22,14.4a426.81,426.81,0,0,1-109.36,14.31,416.55,416.55,0,0,1-165.28-34.11l-19.29-8.28-7.15,19.73-1.77,4.9c-29.79-11-91.28-33.92-154.1-59.29-51-20.59-92.83-38.69-124.33-53.81-32.09-15.4-48.06-25.18-55.89-30.8,7.71-5.79,23.45-15.91,55.19-32,31.17-15.81,72.6-34.83,123.12-56.54,62.25-26.74,123.23-51,152.76-62.65l1.88,4.86,7.59,19.56,19.09-8.7A416.24,416.24,0,0,1,1373,1212.45m0-19.8a436.46,436.46,0,0,0-182,39.62l-9.06-23.37s-368.14,141.95-367.75,177.15,371.56,169,371.56,169l8.54-23.57a436.32,436.32,0,0,0,173.1,35.72c95,0,160-30.57,160-30.57l20.71,15.9,190.18-49-3.35-38.11c83.42-18.52,120.77-90.82,120.77-90.82s-38.93-71.45-122.74-88.14l2.52-38.17-191.22-44.84-20.35,16.36s-61.18-27.16-150.87-27.16Z"/></g><g class="cls-10"><path class="cls-12" d="M1232.59,1446.37c252.16,18.13,344-33.49,344-33.49l34.11-.37,22.22,19.56,131.41-56.46-132.62-53.56-21.79,20-34.1.38s-93-49.59-344.68-25.92l-19.64,14.52-41.76,4.86-11.21-18.58s-200.74,56.12-200.62,67.12,202.05,62.7,202.05,62.7l10.79-18.82,41.86,3.94Z"/></g><path class="cls-13" d="M900.73,1385.1c-.21-18.7,223.45-91.58,223.45-91.58l21,10.77,70.4-12.62,180.13-18.74,2.38,216.73-180.73-13.33L1147,1463.82l-20.79,11.23s-225.24-71.25-225.44-90"/><path d="M1630.54,1429.34l6.14-19.6-19-32.52,18.28-32.93-6.57-19.46-25.63,28.57-4-6.94-46.38.51s28.64,23.49,28.72,30.64-28,31.26-28,31.26l46.38-.51,3.9-7Z"/><polygon points="1164.48 1356.35 988.75 1385.23 1169.09 1408.38 1151.4 1434.79 967.5 1387.67 1160.48 1326.13 1164.48 1356.35"/><polygon points="1216.48 1348.99 1240.77 1356.79 1350.79 1355.58 1362.89 1322.44 1233.08 1324.6 1216.48 1348.99"/><polygon points="1217.2 1414.63 1241.32 1406.3 1351.33 1405.09 1364.16 1437.95 1234.34 1438.65 1217.2 1414.63"/><path d="M1359.45,1330c77,0,129.25,8.19,159.54,15,31.66,7.18,46.51,14.44,47.59,15l4.26,2.35,5.22-.06,34.1-.37,7.6-.09,5.59-5.14,12.57-11.57,76.95,31.07-76.24,32.76-12.83-11.29-5.7-5-7.6.08-34.11.38-5-.08-4.45,2.58c-1.12.59-17.47,9-52.86,17.38-33.78,8-92.25,17.47-179,17.47-30.26,0-62.4-1.15-95.61-3.43l-15.44-10.9-4.31-3-5.26-.49-41.85-3.94-12.69-1.2-6.35,11.06-3.27,5.71c-16.81-4.39-46-12.12-76.16-20.56s-51.55-14.86-66.72-19.71c15.06-5.18,36.31-12.08,66.27-21.18s59-17.47,75.69-22.23l3.4,5.64,6.58,10.92,12.67-1.48,41.75-4.86,5.24-.61,4.25-3.13,15.2-11.24c42.57-3.85,83.24-5.81,121-5.81m0-19.8c-37.18,0-79.79,1.84-128.29,6.4l-19.64,14.52-41.76,4.86-11.21-18.58s-200.74,56.12-200.62,67.12,202.05,62.7,202.05,62.7l10.79-18.82,41.86,3.94,20,14.08c37.66,2.71,71.77,3.86,102.51,3.86,175.07,0,241.51-37.35,241.51-37.35l34.11-.37,22.22,19.56,131.41-56.46-132.62-53.56-21.79,20-34.1.38s-60.6-32.32-216.39-32.32Z"/></g><g id="X"><path class="cls-9" d="M1306.54,1614.64a13.22,13.22,0,0,1-13.2-13.06L1291.58,1441a13.22,13.22,0,0,1,3.59-9.2l48.56-51.52-49.68-50.44a13.21,13.21,0,0,1-3.8-9.12l-1.76-160.62a13.2,13.2,0,0,1,23.31-8.64l68.38,81.4a13.16,13.16,0,0,1,3.09,8.35l.22,20,21.79,20.41,11.78-10.81-6.44-12.13a13.19,13.19,0,0,1,1.67-14.83l72.43-83.69a13.2,13.2,0,0,1,23.19,8.5l1.93,176a13.2,13.2,0,0,1-4.34,9.94l-26.7,24.15L1506,1402.3a13.24,13.24,0,0,1,4.57,9.84l1.93,176a13.2,13.2,0,0,1-8.39,12.43,13,13,0,0,1-4.81.91,13.19,13.19,0,0,1-9.79-4.34l-74.26-82.07a13.23,13.23,0,0,1-2-14.8l6.18-12.27-12-10.54-21.33,20.88.22,20a13.17,13.17,0,0,1-2.91,8.41l-66.57,82.89A13.22,13.22,0,0,1,1306.54,1614.64Z"/><path d="M1301.69,1159.9l68.38,81.4.28,25.67,34.84,32.63,28.32-26-11.24-21.15,72.44-83.69,1.93,176L1458.87,1379l38.51,33.31,1.94,176-74.26-82.07,10.77-21.39L1407,1459.49l-34.11,33.38.28,25.68-66.57,82.88-1.77-160.62,57.28-60.78-58.6-59.51-1.77-160.62m0-26.41a26.42,26.42,0,0,0-26.4,26.7l1.76,160.62a26.44,26.44,0,0,0,7.59,18.24l40.76,41.38-39.84,42.27a26.4,26.4,0,0,0-7.18,18.4l1.76,160.62a26.4,26.4,0,0,0,47,16.25l66.58-82.89a26.43,26.43,0,0,0,5.81-16.82l-.06-5.56a26.42,26.42,0,0,0,6,11.25l74.26,82.08a26.4,26.4,0,0,0,46-18l-1.93-176a26.39,26.39,0,0,0-9.13-19.67l-15.94-13.79,15.63-14.14a26.42,26.42,0,0,0,8.7-19.87l-1.94-176a26.41,26.41,0,0,0-46.37-17l-72.43,83.69a26.33,26.33,0,0,0-5.77,11.38l-.07-5.56a26.36,26.36,0,0,0-6.18-16.69l-68.38-81.4a26.38,26.38,0,0,0-20.22-9.43Z"/></g></g></g><g id="Logo_with_Nails_Top" data-name="Logo with Nails Top"><g id="Nails-2" data-name="Nails"><circle class="cls-9" cx="847" cy="287" r="19"/><path d="M847,272a15,15,0,1,1-15,15,15,15,0,0,1,15-15m0-8a23,23,0,1,0,23,23,23,23,0,0,0-23-23Z"/><circle class="cls-9" cx="1172.42" cy="287" r="19"/><path d="M1172.42,272a15,15,0,1,1-15,15,15,15,0,0,1,15-15m0-8a23,23,0,1,0,23,23,23,23,0,0,0-23-23Z"/><circle class="cls-9" cx="1495" cy="287" r="19"/><path d="M1495,272a15,15,0,1,1-15,15,15,15,0,0,1,15-15m0-8a23,23,0,1,0,23,23,23,23,0,0,0-23-23Z"/><circle class="cls-9" cx="1820.42" cy="287" r="19"/><path d="M1820.42,272a15,15,0,1,1-15,15,15,15,0,0,1,15-15m0-8a23,23,0,1,0,23,23,23,23,0,0,0-23-23Z"/><circle class="cls-9" cx="847" cy="773" r="19"/><path d="M847,758a15,15,0,1,1-15,15,15,15,0,0,1,15-15m0-8a23,23,0,1,0,23,23,23,23,0,0,0-23-23Z"/><circle class="cls-9" cx="1172.42" cy="773" r="19"/><path d="M1172.42,758a15,15,0,1,1-15,15,15,15,0,0,1,15-15m0-8a23,23,0,1,0,23,23,23,23,0,0,0-23-23Z"/><circle class="cls-9" cx="1495" cy="773" r="19"/><path d="M1495,758a15,15,0,1,1-15,15,15,15,0,0,1,15-15m0-8a23,23,0,1,0,23,23,23,23,0,0,0-23-23Z"/><circle class="cls-9" cx="1820.42" cy="773" r="19"/><path d="M1820.42,758a15,15,0,1,1-15,15,15,15,0,0,1,15-15m0-8a23,23,0,1,0,23,23,23,23,0,0,0-23-23Z"/></g><g id="Logo-2" data-name="Logo"><g id="Gradient_Part-2" data-name="Gradient Part"><g class="cls-14"><path class="cls-15" d="M1367.38,706.66a426.38,426.38,0,0,1-169.19-34.91l-9.64-4.14-8.74,24.11c-25-9.16-97-35.73-169.45-65.14-52.37-21.24-94.78-39.77-126-55.07-45.77-22.41-57-32.71-59.67-36.24,2.64-3.59,13.6-14.13,58.88-37.55,30.92-16,72.92-35.45,124.83-57.84,71.83-31,143.09-59.12,167.92-68.83l9.27,23.92,9.55-4.36A426.18,426.18,0,0,1,1373,351.89c86.29,0,146.26,26,146.86,26.31l5.51,2.43,4.7-3.77,16.59-13.34L1725,405.35l-2.53,38.46,8.52,1.7c32.6,6.49,62,22.36,87.29,47.18a188.8,188.8,0,0,1,25.86,31.37A188.28,188.28,0,0,1,1819,556c-24.76,25.37-53.77,41.89-86.23,49.1l-8.48,1.88,3.38,38.4L1550.28,691.1l-21.68-16.64-5.46,2.57c-.62.29-64.32,29.63-155.73,29.63Z"/><path d="M1373,361.79c83.94,0,142.29,25.21,142.83,25.45l11,4.9,9.41-7.56,12.83-10.31,165.47,38.8-1.41,21.42L1712,451.83l17,3.39c30.46,6.06,58,20.89,81.81,44.08a183.57,183.57,0,0,1,21.39,24.89,183.54,183.54,0,0,1-20.84,25.36c-23.3,23.7-50.49,39.14-80.82,45.87l-17,3.77,1.52,17.3,1.88,21.39-164.57,42.43-13.06-10-9.54-7.37L1519,668.05c-.15.08-15.77,7.29-42.22,14.4a426.81,426.81,0,0,1-109.36,14.31,416.55,416.55,0,0,1-165.28-34.11l-19.29-8.28-7.15,19.73-1.77,4.9c-29.79-11-91.28-33.92-154.1-59.28-51-20.59-92.83-38.7-124.33-53.82-32.09-15.4-48.06-25.17-55.89-30.79,7.71-5.79,23.45-15.91,55.19-32,31.17-15.81,72.6-34.83,123.12-56.53,62.25-26.74,123.23-51,152.76-62.66l1.88,4.86,7.59,19.57,19.09-8.71A416.39,416.39,0,0,1,1373,361.79m0-19.81a436.46,436.46,0,0,0-182,39.62l-9.06-23.37s-368.14,142-367.75,177.16,371.56,169,371.56,169l8.54-23.56a436.29,436.29,0,0,0,173.1,35.71c95,0,160-30.57,160-30.57l20.71,15.91,190.18-49-3.35-38.11c83.42-18.52,120.77-90.81,120.77-90.81s-38.93-71.46-122.74-88.14l2.52-38.18-191.22-44.84-20.35,16.36S1462.7,342,1373,342Z"/></g><g class="cls-14"><path class="cls-16" d="M1232.59,595.7c252.16,18.14,344-33.49,344-33.49l34.11-.37,22.22,19.56,131.41-56.46-132.62-53.56-21.79,20.05-34.1.37s-93-49.59-344.68-25.92l-19.64,14.52-41.76,4.86-11.21-18.58S957.81,522.8,957.93,533.81,1160,596.5,1160,596.5l10.79-18.82,41.86,3.94Z"/></g><path class="cls-13" d="M900.73,534.43c-.21-18.7,223.45-91.58,223.45-91.58l21,10.78L1215.6,441l180.13-18.74L1398.11,639l-180.73-13.33L1147,613.15l-20.79,11.23s-225.24-71.24-225.44-90"/><path d="M1630.54,578.68l6.14-19.61-19-32.52L1636,493.62l-6.57-19.46-25.63,28.58-4-6.94-46.38.51s28.64,23.48,28.72,30.63-28,31.27-28,31.27l46.38-.51,3.9-7Z"/><polygon points="1164.48 505.68 988.75 534.57 1169.09 557.71 1151.4 584.13 967.5 537 1160.48 475.46 1164.48 505.68"/><polygon points="1216.48 498.32 1240.77 506.12 1350.79 504.91 1362.89 471.77 1233.08 473.93 1216.48 498.32"/><polygon points="1217.2 563.96 1241.32 555.63 1351.33 554.42 1364.16 587.29 1234.34 587.98 1217.2 563.96"/><path d="M1359.45,459.48v19.81c77,0,129.25,8.18,159.54,15,31.66,7.17,46.51,14.43,47.59,15l4.26,2.35,5.22-.05,34.1-.38,7.6-.08,5.59-5.15,12.57-11.56,76.95,31.07-76.24,32.75L1623.8,547l-5.7-5-7.6.09-34.11.37-5-.08-4.46,2.59c-1.12.59-17.47,9-52.85,17.38-33.78,8-92.25,17.46-179,17.46-30.26,0-62.4-1.15-95.61-3.42l-15.44-10.9-4.31-3-5.26-.5L1172.63,558l-12.69-1.19-6.35,11.06-3.27,5.71c-16.81-4.4-46-12.13-76.16-20.57s-51.55-14.86-66.72-19.71c15.06-5.18,36.31-12.07,66.27-21.17s59-17.47,75.69-22.23l3.4,5.63,6.58,10.92,12.67-1.47,41.75-4.86,5.24-.61,4.25-3.14,15.2-11.23c42.57-3.86,83.24-5.81,121-5.81V459.48m0,0c-37.18,0-79.79,1.84-128.29,6.4l-19.64,14.52-41.76,4.86-11.21-18.58S957.81,522.8,957.93,533.81,1160,596.5,1160,596.5l10.79-18.82,41.86,3.94,20,14.08c37.66,2.71,71.77,3.87,102.51,3.87,175.07,0,241.51-37.36,241.51-37.36l34.11-.37,22.22,19.56,131.41-56.46-132.62-53.56-21.79,20.05-34.1.37s-60.6-32.32-216.39-32.32Z"/></g><g id="X-2" data-name="X"><path class="cls-9" d="M1306.54,764a13.22,13.22,0,0,1-13.2-13.06l-1.76-160.62a13.18,13.18,0,0,1,3.59-9.2l48.56-51.53-49.68-50.44a13.19,13.19,0,0,1-3.8-9.12l-1.76-160.62a13.2,13.2,0,0,1,23.31-8.64l68.38,81.41a13.15,13.15,0,0,1,3.09,8.34l.22,20,21.79,20.4,11.78-10.81L1410.62,408a13.19,13.19,0,0,1,1.67-14.83l72.43-83.69a13.23,13.23,0,0,1,10-4.56,13,13,0,0,1,4.54.81,13.2,13.2,0,0,1,8.66,12.25l1.93,176a13.16,13.16,0,0,1-4.34,9.93l-26.7,24.15L1506,551.63a13.25,13.25,0,0,1,4.57,9.84l1.93,176a13.2,13.2,0,0,1-23,9l-74.26-82.07a13.22,13.22,0,0,1-2-14.79l6.18-12.27-12-10.55L1386.1,647.7l.22,20a13.22,13.22,0,0,1-2.91,8.42L1316.84,759A13.22,13.22,0,0,1,1306.54,764Z"/><path d="M1301.69,309.23l68.38,81.41.28,25.67,34.84,32.62,28.32-26-11.24-21.15,72.44-83.68,1.93,176-37.77,34.16,38.51,33.32,1.94,176-74.26-82.07,10.77-21.39L1407,608.82l-34.11,33.39.28,25.67-66.57,82.89-1.77-160.63,57.28-60.78-58.6-59.5-1.77-160.63m0-26.4a26.39,26.39,0,0,0-26.4,26.69l1.76,160.63a26.46,26.46,0,0,0,7.59,18.24l40.76,41.38L1285.56,572a26.4,26.4,0,0,0-7.18,18.4l1.76,160.63a26.4,26.4,0,0,0,47,16.24l66.58-82.89a26.41,26.41,0,0,0,5.81-16.82l-.06-5.56a26.52,26.52,0,0,0,6,11.26l74.26,82.07a26.4,26.4,0,0,0,46-18l-1.93-176a26.39,26.39,0,0,0-9.13-19.68l-15.94-13.79,15.63-14.14a26.42,26.42,0,0,0,8.7-19.87l-1.94-176a26.41,26.41,0,0,0-46.37-17l-72.43,83.69a26.33,26.33,0,0,0-5.77,11.38l-.07-5.55a26.37,26.37,0,0,0-6.18-16.7l-68.38-81.4a26.41,26.41,0,0,0-20.22-9.42Z"/></g></g></g><g id="Wakeboard"><path id="Background_Color-2" data-name="Background Color" class="cls-17" d="M691.88,596.27c-34.49-280.52-110-569.83-204.46-568.8-99.29,1.09-162.78,260.72-189.88,574.3C282,782.29,271,985.35,274,1264.2c0,0,8.35,650.79,233,648.32,222.24-2.44,227.52-652.77,227.52-652.77C732,1034.56,717.09,801.22,691.88,596.27ZM389.18,803.83a110,110,0,1,1,78.18,134.45A110,110,0,0,1,389.18,803.83Z"/><g id="Bottom"><path class="cls-18" d="M398.93,1773.22l.71-28.79-7.85-1.06c4.69-89.27-12.46-158.72-27.77-201.46s-31.57-67.51-34.89-72.33L318.79,1319l41.07-1.24L382,1370.53l-12.48,9.79,1.85,2.73c38.57,57,48.78,140.4,50.55,200.33a771.71,771.71,0,0,1-5.53,118l-.59,4.13,17.88-.36-17.8,91.4Z"/><path d="M357.53,1321.32l20.18,48.09-7.77,6.1-5.18,4.07,3.69,5.45c16.73,24.73,29.5,56.6,38,94.72,6.82,30.78,10.85,65.64,12,103.61a767.45,767.45,0,0,1-5.49,117.52l-1.18,8.25,8.33-.17,9.33-.19L414,1787.89l-11.47-15.78.6-24.42.15-6.34-6.28-.85-1.48-.2c4.13-88.29-12.9-157.06-28.15-199.58-14.75-41.16-30.36-65.82-34.75-72.34l-10-146,35-1.06m4.65-7.21L315,1315.53l10.66,155.27s72.57,100.93,62.41,275.64l7.95,1.07-.66,26.82,22.44,30.87L438,1701.53l-18.09.36s30-209.06-45.6-320.82l12-9.43-24.13-57.53Z"/><path class="cls-19" d="M367.9,1696.53a3.54,3.54,0,0,1-3.09-1.81c-21.76-39.07-36.09-168.39-36.69-173.88a3.55,3.55,0,0,1,2.33-3.71,3.52,3.52,0,0,1,4.15,1.39C357.2,1553,366,1598.72,369.42,1631a414,414,0,0,1,2,62.24,3.52,3.52,0,0,1-2.74,3.23A3.59,3.59,0,0,1,367.9,1696.53Z"/><path d="M331.64,1520.46c43,65.65,36.26,172.54,36.26,172.54-21.66-38.89-36.26-172.54-36.26-172.54m0-7.07a7.05,7.05,0,0,0-7,7.84c.6,5.51,15,135.52,37.11,175.21a7.07,7.07,0,0,0,13.24-3,408.61,408.61,0,0,0-2-62.84c-5-47.48-16.92-85.84-35.38-114a7.08,7.08,0,0,0-5.92-3.19Z"/><path class="cls-20" d="M574.31,1705.15l17.88.36-.59-4.13a771.71,771.71,0,0,1-5.53-118c1.77-59.93,12-143.33,50.55-200.33l1.85-2.73L626,1370.53l22.15-52.82,41.07,1.24-10.34,150.63c-3.32,4.82-19.53,29.49-34.89,72.33s-32.46,112.19-27.77,201.46l-7.85,1.06.71,28.79-17,23.33Z"/><path d="M650.47,1321.32l35,1.06-10,146c-4.39,6.52-20,31.18-34.75,72.34-15.25,42.52-32.28,111.29-28.15,199.58l-1.48.2-6.28.85.15,6.34.6,24.42L594,1787.89l-15.41-79.12,9.33.19,8.33.17-1.18-8.25a767.45,767.45,0,0,1-5.49-117.52c1.13-38,5.16-72.83,12-103.61,8.46-38.12,21.23-70,38-94.72l3.69-5.45-5.18-4.07-7.77-6.1,20.18-48.09m-4.65-7.21-24.13,57.53,12,9.43c-75.63,111.76-45.6,320.82-45.6,320.82l-18.09-.36,20.19,103.67,22.44-30.87-.66-26.82,7.95-1.07c-10.16-174.71,62.41-275.64,62.41-275.64L693,1315.53l-47.17-1.42Z"/><path class="cls-21" d="M640.1,1696.53a3.59,3.59,0,0,1-.79-.08,3.52,3.52,0,0,1-2.74-3.23,414,414,0,0,1,2-62.24c3.41-32.26,12.22-78,34.82-112.46a3.54,3.54,0,0,1,6.48,2.32c-.6,5.49-14.93,134.81-36.69,173.88A3.54,3.54,0,0,1,640.1,1696.53Z"/><path d="M676.36,1520.46S661.76,1654.11,640.1,1693c0,0-6.75-106.89,36.26-172.54m0-7.07a7.08,7.08,0,0,0-5.92,3.19c-18.46,28.18-30.36,66.54-35.38,114a408.61,408.61,0,0,0-2,62.84,7.07,7.07,0,0,0,13.24,3c22.1-39.69,36.51-169.7,37.11-175.21a7.05,7.05,0,0,0-7-7.84Z"/></g><g id="Top"><path class="cls-22" d="M352.26,1254.9c12.95-30.43,18.65-78.52,16.94-143.11-1.13-42.83-5.34-79.84-6.65-90.54l12.88-3.38-57.56-241.1.33-51.54c33.06,78.81,84.72,298.52,91.66,328.34l-19.36,5.07,1.49,3.72c20.51,51.23,19.94,170.18,19.65,191.89Z"/><path d="M321.62,743.68c31.67,86.14,75.28,270,84,307.34l-12.16,3.18-7.75,2,3,7.45c19.36,48.36,19.69,158.54,19.43,187.07l-50.63.55c11.74-31,16.86-77.92,15.23-139.61-1-39.52-4.71-74.13-6.31-87.8l6.55-1.72,6.7-1.75-1.61-6.74L321.41,776.37l.21-32.69m-6.86-34.31-.43,67.81,56.86,238.15-12.54,3.28s22.68,168.76-11.91,239.89l68.38-.75s3.19-139.18-19.85-196.7l18.82-4.92s-64.4-279.93-99.33-346.76Z"/><path class="cls-23" d="M323.39,1244.27c-.13-55.43-7.2-186.63-8.44-209.23l17.31-2-13.34-107.5L320.85,852c13.63,54.23,31.5,182.51,34.5,204.38l-10.81,2.53.7,3.38c11.73,56.32,3.34,106.38-5.77,138.46A295.62,295.62,0,0,1,323.39,1244.27Z"/><path d="M323.63,880.87c10,50,21.27,125.11,27.78,172.79l-4.32,1-6.72,1.57,1.41,6.76a277,277,0,0,1,5.06,75.33,300.56,300.56,0,0,1-10.71,61.21c-3,10.61-6.28,20-9.39,27.9-1.09-58.92-6.57-161.79-8.07-189.27l10.45-1.19,7.09-.82-.88-7.08L322.46,925.39l1.17-44.52m-5.76-50.08-2.5,95L328.31,1030l-17.08,2s10.27,183.25,8.4,227.49c0,0,52.1-87.24,29.07-197.83l10.59-2.47S333,863.64,317.87,830.79Z"/><path class="cls-24" d="M601.27,1252.16c-.76-21.69-3.95-140.61,15.43-192.27l1.41-3.75-19.47-4.64c6.28-30,53.1-250.77,84.42-330.28l1.46,51.52-52.25,242.31,13,3.09c-1.08,10.73-4.47,47.82-4.66,90.66-.29,64.62,6.47,112.58,20.08,142.71Z"/><path d="M680.05,739.74l.92,32.67-51.42,238.51-1.46,6.77,6.73,1.6,6.59,1.57c-1.31,13.71-4.21,48.39-4.38,87.93-.27,61.71,5.88,108.45,18.29,139.24l-50.63.56c-.88-28.52-3-138.68,15.32-187.45l2.82-7.51-7.8-1.86-12.22-2.91c7.91-37.54,47.46-222.3,77.24-309.12m6.1-34.45c-33.46,67.58-91.68,348.85-91.68,348.85l18.92,4.51c-21.77,58-15.52,197.09-15.52,197.09l68.38-.76c-36.15-70.35-17.18-239.56-17.18-239.56l-12.61-3,51.61-239.34-1.92-67.78Z"/><path class="cls-25" d="M689.28,1240.25a295.32,295.32,0,0,1-17-43.17c-9.81-31.87-19.3-81.73-8.81-138.3l.62-3.39-10.86-2.29c2.52-21.93,17.56-150.57,30-205.09l3.55,73.51-11,107.76,17.35,1.6C692.38,1053.51,688.19,1184.83,689.28,1240.25Z"/><path d="M681.05,876.94l2.15,44.49-10.59,103.94-.72,7.1,7.11.66,10.47,1c-.9,27.5-4.11,130.49-3.91,189.41-3.23-7.72-6.66-16.87-9.86-27.24a300.39,300.39,0,0,1-12.16-61.12,276.77,276.77,0,0,1,3.37-75.72l1.26-6.79-6.75-1.42-4.35-.92c5.47-47.81,15-123.21,24-173.36m4.66-50.19c-14.37,33.17-36.39,229.15-36.39,229.15l10.64,2.24c-20.6,111.06,33.41,197.14,33.41,197.14-2.84-44.19,3.4-227.61,3.4-227.61l-17.12-1.58,10.64-104.47-4.58-94.87Z"/></g><g id="Logo-3" data-name="Logo"><g id="Gradient_Part-3" data-name="Gradient Part"><g class="cls-26"><path class="cls-27" d="M494.69,682.29c-8.43-5.23-35.6-24.5-43.41-59.68l-1-4.55-20.57,1.81-24.51-95,8.92-11.61-1.38-2.93c-.09-.19-9.46-20.46-13.74-52a230.94,230.94,0,0,1,16.57-122.15l2.22-5.16-12.92-4.69c4.91-13.41,19.14-51.94,34.9-90.79,33.67-83,45.74-97.13,48.93-99.52,3.23,2.32,15.61,16.16,51.1,98.42,16.61,38.49,31.69,76.7,36.89,90l-12.81,5,2.33,5.12a231,231,0,0,1,19.25,121.75c-3.58,31.59-12.51,52.06-12.6,52.27l-1.3,2.95,2,2.52,7.15,8.89-22.41,95.56L537.7,617.1l-.91,4.57C529.75,657,503,676.88,494.69,682.29Z"/><path d="M488.78,144c3.1,4.13,8.52,12.57,17.15,29.58,8.47,16.7,18.66,38.9,30.3,66,14.32,33.35,27.34,66,33.57,81.85l-2.61,1-10.48,4.07,4.66,10.23a224.41,224.41,0,0,1,18.46,64.53,227.39,227.39,0,0,1,.4,54c-3.46,30.9-12.14,50.94-12.22,51.12l-2.63,5.91,4,5,5.53,6.88-20.79,88.66-11.48-.76-9.29-.61-1.82,9.13C528.33,637,520.39,651.71,508,664.47a97.64,97.64,0,0,1-13.34,11.46A98,98,0,0,1,481,664.76c-12.7-12.48-21-27-24.58-43.3l-2-9.09-9.27.82-11.46,1L411,526l5.38-7,3.91-5.13-2.72-5.84c-.09-.2-9.22-20-13.35-50.85a227.11,227.11,0,0,1-.79-54,224.54,224.54,0,0,1,17-64.92l4.44-10.33L414.3,324.1l-2.62-1c5.87-15.95,18.15-48.86,31.74-82.52,11-27.33,20.74-49.76,28.85-66.65,8.26-17.21,13.5-25.77,16.51-30m-.12-13.6h0c-18.87.21-90.57,199.09-90.57,199.09l12.62,4.58c-41.38,96.36-2.75,178.47-2.75,178.47l-8.52,11.1,26.27,101.9,20.42-1.79c9.92,44.69,48.66,64.71,48.66,64.71S533.05,667.61,542,622.7l20.45,1.35,24-102.46-8.76-10.9s36.82-82.95-6.68-178.37l12.52-4.86s-76-197-94.89-197Z"/></g><g class="cls-26"><path class="cls-28" d="M456.31,354.61c-9.72,135.11,17.94,184.33,17.94,184.33l.2,18.28L464,569.12l30.25,70.42,28.7-71.06L512.18,556.8l-.2-18.27s26.57-49.82,13.89-184.69l-7.78-10.53-2.61-22.37,10-6s-30.07-107.56-36-107.49S455.88,315.7,455.88,315.7L466,321.48l-2.12,22.43Z"/></g><path class="cls-29" d="M489.14,176.78c10-.11,49.07,119.74,49.07,119.74l-5.77,11.26,7.67,36.33L549.24,442,433.11,443.3l7.67-96.84L447,308.72l-6-11.13s38.18-120.7,48.2-120.81"/><path d="M465.43,567.84l10.51,3.29L493.36,561,511,570.74l10.43-3.52-15.31-13.73,3.72-2.17-.27-24.85S497,541.81,493.15,541.86s-16.75-15-16.75-15l.27,24.85,3.77,2.09Z"/><polygon points="504.55 318.11 489.07 223.95 476.67 320.58 462.51 311.11 487.76 212.57 520.74 315.97 504.55 318.11"/><polygon points="508.49 345.97 504.31 358.99 504.95 417.94 522.71 424.43 521.55 354.87 508.49 345.97"/><polygon points="473.31 346.36 477.78 359.28 478.43 418.23 460.82 425.11 460.44 355.54 473.31 346.36"/><path d="M489.77,234c6.45,18.87,15.4,48.32,23.26,76l-3,1.83-5.85,3.53.79,6.79,2.61,22.37.32,2.81,1.68,2.27,6,8.15c6,65.75,2.2,109.86-2.05,135.41C509,520.49,503,532.85,502.6,533.57l-1.26,2.28,0,2.79.2,18.28,0,4.07,2.76,3,6.2,6.73L493.92,612,476.37,571.1l6.05-6.87,2.69-3.06-.05-4.07-.2-18.27,0-2.67-1.38-2.38c-.37-.71-6.67-12.93-11.81-40.14-4.81-25.45-9.53-69.47-5-135.34l5.83-8.27,1.63-2.31.27-2.82,2.11-22.42.64-6.8-5.93-3.4-3.06-1.76c7.25-27.89,15.55-57.53,21.59-76.54m-.29-26.54h0c-5.89.06-33.59,108.26-33.59,108.26L466,321.48l-2.12,22.43-7.54,10.7c-9.72,135.11,17.94,184.33,17.94,184.33l.2,18.28L464,569.12l30.25,70.42,28.7-71.06L512.18,556.8l-.2-18.27s26.57-49.82,13.89-184.69l-7.78-10.53-2.61-22.37,10-6s-30.05-107.49-36-107.49Z"/></g><g id="X-3" data-name="X"><path class="cls-9" d="M380.25,504.6a7.07,7.07,0,0,1-4.74-12.32l44-39.79a7.06,7.06,0,0,1,7.93-1.07l6.57,3.31,5.65-6.44-11.18-11.43-10.82.12a7.08,7.08,0,0,1-4.43-1.56l-44.41-35.67a7.07,7.07,0,0,1,4.35-12.59l86.15-1a7.06,7.06,0,0,1,4.85,1.93l27.61,26,27-26.62a7.08,7.08,0,0,1,4.89-2l86.15-.94a7.07,7.07,0,0,1,4.55,12.49l-43.62,36.64a7.14,7.14,0,0,1-4.48,1.66l-10.73.11L544.6,447.14l5.79,6.31,6.5-3.45a7,7,0,0,1,3.31-.83,7.09,7.09,0,0,1,4.64,1.73l44.84,38.81a7.07,7.07,0,0,1-4.56,12.42l-94.39,1a7.09,7.09,0,0,1-5.25-2.33l-12.94-14.31-12.62,14.59a7.05,7.05,0,0,1-5.27,2.44Z"/><path d="M609.81,391.63l-43.62,36.64-13.76.15L535,447.09l13.92,15.17,11.34-6,44.84,38.82-94.32,1-18.31-20.23-17.85,20.63-94.32,1,44-39.79,11.46,5.77L449.28,448l-17.89-18.28-13.76.16-44.41-35.68,86.07-.94L491.85,424l31.89-31.4,86.07-.95m0-14.15h-.16l-86.07.95a14.14,14.14,0,0,0-9.77,4.07l-22.17,21.83L469,383a14.18,14.18,0,0,0-9.7-3.85h-.16l-86.06.95a14.14,14.14,0,0,0-8.71,25.17l44.41,35.68a14.15,14.15,0,0,0,8.86,3.11h.16l3,0a14,14,0,0,0-6,3.23l-44,39.79a14.15,14.15,0,0,0,9.49,24.64h.16l94.32-1a14.18,14.18,0,0,0,10.54-4.89l7.39-8.54,7.57,8.37a14.16,14.16,0,0,0,10.5,4.66h.15l94.32-1a14.15,14.15,0,0,0,9.11-24.84l-44.84-38.81a14.17,14.17,0,0,0-6.1-3.1l3,0a14.21,14.21,0,0,0,8.95-3.31l43.62-36.64a14.16,14.16,0,0,0-9.1-25Z"/></g></g></g></svg>