<svg id="Layer_2" data-name="Layer 2" xmlns="http://www.w3.org/2000/svg" viewBox="0 0 2048 1540"><defs><style>.cls-1{fill:#bbb29e;opacity:0.5;}.cls-2{font-size:48px;font-family:Arial-BoldMT, Arial;font-weight:700;letter-spacing:-0.06em;}.cls-3{letter-spacing:0em;}.cls-4{letter-spacing:-0.04em;}.cls-5{letter-spacing:0.02em;}.cls-6{letter-spacing:0.05em;}.cls-7{letter-spacing:0.04em;}.cls-8{letter-spacing:-0.01em;}.cls-9{letter-spacing:0.03em;}.cls-10{letter-spacing:0em;}.cls-11{letter-spacing:-0.05em;}.cls-12{letter-spacing:-0.05em;}.cls-13{letter-spacing:0.01em;}.cls-14{letter-spacing:-0.05em;}.cls-15{letter-spacing:-0.03em;}.cls-16{letter-spacing:-0.05em;}.cls-17{fill:#b40000;}.cls-18{fill:#d67923;}.cls-19{fill:#fac80a;}.cls-20,.cls-23{fill:none;}.cls-20{stroke:#fff;stroke-linejoin:bevel;stroke-width:18.09px;}.cls-21{fill:#f4f4f4;}.cls-22{fill:#1e5aa8;}.cls-23{stroke:#b40000;stroke-miterlimit:10;stroke-width:4px;}</style></defs><rect id="Should_be_Transparent" data-name="Should be Transparent" class="cls-1" width="2048" height="1540"/><g id="Unnecessary_Parts" data-name="Unnecessary Parts"><text class="cls-2" transform="translate(55.45 648.22) rotate(90)">5<tspan class="cls-3" x="23.86" y="0">2</tspan><tspan class="cls-4" x="50.65" y="0">8</tspan><tspan class="cls-5" x="75.38" y="0">1</tspan><tspan class="cls-6" x="103.18" y="0">6</tspan><tspan x="132.23" y="0">/4</tspan><tspan class="cls-7" x="166.6" y="0">2</tspan><tspan class="cls-8" x="195.21" y="0">6</tspan><tspan class="cls-9" x="221.23" y="0">1</tspan><tspan class="cls-10" x="249.37" y="0">99</tspan><tspan class="cls-11" x="302.66" y="0">6</tspan><tspan x="326.77" y="0"> </tspan><tspan class="cls-12" x="337.27" y="0">© </tspan><tspan class="cls-13" x="381.08" y="0">2005 L</tspan><tspan class="cls-14" x="532.24" y="0">EGO</tspan><tspan class="cls-13" x="631.59" y="0"> </tspan><tspan class="cls-15" x="645.21" y="0">GROU</tspan><tspan class="cls-16" x="782.68" y="0">P</tspan></text><rect x="972" y="58" width="48" height="112"/></g><g id="Large_Logo" data-name="Large Logo"><rect id="Background_Color" data-name="Background Color" x="110" y="200" width="656" height="582"/><g id="Flames"><path class="cls-17" d="M370.77,436.26s10.14,25,10.56,38.46c.74,23.74-16.12,53,21,81.42,23.66,18.1,40.6,25.5,40.6,25.5s-11.73-19.79-8.92-36.59C438,520.93,444.78,464.91,370.77,436.26Z"/><path class="cls-18" d="M424,433.82s5.95,26.23,4.19,39.54c-3.12,23.57-20.14,65.15,5.35,88.26,24.43,22.13,32.88,23.22,32.88,23.22s-6.63-9.05,2.38-34.24C477.05,527.48,499.12,474.28,424,433.82Z"/><path class="cls-19" d="M483.7,433.82s-3,29.42-9.37,41.4c-11.25,21.2-44.68,42.31-21.05,81.63,16.75,27.87,22.39,29.48,22.39,29.48s-4.89-17.8,11.11-34C504.35,534.54,540.19,496,483.7,433.82Z"/></g><g id="Axes"><g id="Axe_with_Gap" data-name="Axe with Gap"><path class="cls-19" d="M558.91,712.74c-15.25-10.15-49.08-32.07-86.58-58.1l-20,15.05c39.42,28.73,75.95,53.77,89.22,63.64a8.69,8.69,0,0,0,10.9-.47l7.52-6.77a8.38,8.38,0,0,0,2.81-6.91A8.54,8.54,0,0,0,558.91,712.74Z"/><path class="cls-19" d="M430.17,624.72C360.94,575.37,288,523.93,287.22,508.39c-1.16-24.27,7.53-32,7.53-32s-16.22,3.86-30.7,24.82-46.33,65.66-85.71,87.17c0,0,5.79,57.93,88.61,55.72,0,0-3.53-86.48,29-78.34,9.75,2.45,59.4,36.84,111.68,74.39C413.92,635.74,423.7,629.29,430.17,624.72Z"/></g><g id="Intact_Axe" data-name="Intact Axe"><path class="cls-19" d="M591.85,476.4s16.11,4.28,30,25.61,47.81,61.3,86.62,83.83c0,0-10.3,59.48-93,55.13,0,0,5.58-82.56-27.11-75.26-20,4.48-210.19,138-245.93,163.25a8.7,8.7,0,0,1-10.89-.76l-7.34-7a8.42,8.42,0,0,1-2.63-7,8.55,8.55,0,0,1,4-6.34c48.55-30.53,270.91-171.78,272.94-199.34C600.33,484.34,591.85,476.4,591.85,476.4Z"/></g></g><g id="Helmet"><path class="cls-20" d="M288,408.36c2,0,179.77-47.84,354,31.64"/><path class="cls-21" d="M340.94,293.92c-4.74,1.84-2.37-32,12.64-38.64,8.84-3.89,127.62-.37,160,31.28s41.48,69.18,41.48,102.66l-15.41-1.84s.79-76.54-41.09-94.93c-29.16-12.82-81.39-17.3-122.87-17.3C358.7,275.15,345.68,292.08,340.94,293.92Z"/><path class="cls-21" d="M321.19,382.23c1.08,6.53,52.15-9.2,111.81-5.15s96,10.67,99.56,9.57-5.14-80.22-45.44-89-92.84-17.66-112.6-11.78S310.35,317.07,321.19,382.23Z"/></g></g><g id="Shield_Right" data-name="Shield Right"><path id="Background_Color_Right" data-name="Background Color_Right" d="M806.85,358a28.33,28.33,0,0,0-28.24,25.9c-5.66,66.27-2.33,145.58,18.65,199.64,45.54,117.28,151,206.79,162.87,206.79s114.21-82.71,159.74-200c21-54.06,26.74-138.65,21.67-206.14A28.31,28.31,0,0,0,1113.27,358Z"/><g id="Red_Border_Right" data-name="Red Border_Right"><path class="cls-17" d="M1092.62,411.63c2.32,81.2-5.94,135.54-27.08,179.77-21.42,44.83-55.78,78.79-103.34,125.8l-.38.37c-46.51-46.25-80.21-80.07-101.52-124.36C839.18,549.32,830,494.44,830,411.63h262.59m15.43-16H814.15c-2.84,201,44.08,241.31,147.64,344.48C1066.1,636.69,1116.59,595,1108.05,395.63Z"/></g><g id="Flames_Right"><path class="cls-17" d="M875.66,461.9S887.49,492.59,888,509c.87,29.11-18.82,65,24.48,99.79,27.64,22.19,47.42,31.26,47.42,31.26s-13.7-24.25-10.42-44.84C954.17,565.67,962.09,497,875.66,461.9Z"/><path class="cls-18" d="M937.8,458.91s7,32.14,4.9,48.46c-3.64,28.89-23.52,79.85,6.25,108.16C977.48,642.66,987.34,644,987.34,644s-7.73-11.1,2.79-42C999.78,573.7,1025.55,508.49,937.8,458.91Z"/><path class="cls-19" d="M1006.84,461.9s5.88,34.66-1.54,49.34c-13.14,26-60.88,50.26-33.28,98.46,19.56,34.15,26.65,38.52,26.65,38.52s-3.78-24.91,14.91-44.76C1034.09,581.66,1072.82,538.1,1006.84,461.9Z"/></g></g><g id="Shield_Left" data-name="Shield Left"><path id="Background_Color_Left" data-name="Background Color_Left" d="M1182.83,358a28.34,28.34,0,0,0-28.24,25.88c-5.66,65.58-2.43,142.08,18.54,196.11,45.54,117.29,151.16,210.34,163,210.34s118.95-86.71,164.49-204c21-54.13,23.06-135.74,17.08-202.54A28.3,28.3,0,0,0,1489.47,358Z"/><g id="Red_Border_Left" data-name="Red Border_Left"><path class="cls-17" d="M1468.62,411.63c2.32,81.2-5.94,135.54-27.08,179.77-21.42,44.83-55.78,78.79-103.34,125.8l-.38.37c-46.51-46.25-80.21-80.07-101.52-124.36-21.12-43.89-30.35-98.77-30.27-181.58h262.59m15.43-16h-293.9c-2.84,201,44.08,241.31,147.64,344.48C1442.1,636.69,1492.59,595,1484.05,395.63Z"/></g><g id="Flames_Left"><path class="cls-17" d="M1251.66,461.9S1263.49,492.59,1264,509c.87,29.11-18.82,65,24.48,99.79,27.64,22.19,47.42,31.26,47.42,31.26s-13.7-24.25-10.42-44.84C1330.17,565.67,1338.09,497,1251.66,461.9Z"/><path class="cls-18" d="M1313.8,458.91s7,32.14,4.9,48.46c-3.64,28.89-23.52,79.85,6.25,108.16,28.53,27.13,38.39,28.47,38.39,28.47s-7.73-11.1,2.79-42C1375.78,573.7,1401.55,508.49,1313.8,458.91Z"/><path class="cls-19" d="M1385.33,461.9s-2.91,32.75-10.33,47.43c-13.14,26-54.58,52.17-27,100.37,19.56,34.15,29.2,41.3,29.2,41.3s-6.69-28.32,12-48.17C1409.73,581,1451.31,538.1,1385.33,461.9Z"/></g></g><g id="Feuerwehr"><path class="cls-21" d="M851.7,196.72v16h-16v32h12v16h-12v48h-16V196.72Z"/><path class="cls-21" d="M881.3,292.82h16v16h-32V196.72h32v16h-16v32h12v16h-12Z"/><path class="cls-21" d="M930.92,308.83a19.94,19.94,0,0,1-20-20V196.72h16v92.09a4,4,0,1,0,8,0V196.72h16v92.09a20,20,0,0,1-20,20Z"/><path class="cls-21" d="M980.54,292.82h16v16h-32V196.72h32v16h-16v32h12v16h-12Z"/><path class="cls-21" d="M1031.07,260.79v48h-16V196.72h20a20,20,0,0,1,20,20v24a19.4,19.4,0,0,1-3.92,12,19.37,19.37,0,0,1,3.92,12v44h-16v-44a4,4,0,0,0-4-4Zm0-48.05v32h4a4,4,0,0,0,4-4v-24a4,4,0,0,0-4-4Z"/><path class="cls-21" d="M1104.55,259l-6.41,49.81h-16l-14.42-112.11h16l6.4,60.06,6.41-60.06h16l6.4,60.06,6.41-60.06h16L1127,308.83h-16Z"/><path class="cls-21" d="M1173.13,292.82h16v16h-32V196.72h32v16h-16v32h12v16h-12Z"/><path class="cls-21" d="M1223.34,260.79v48h-16V196.72h16v48.05h8V196.72h16V308.83h-16v-48Z"/><path class="cls-21" d="M1279.26,260.79v48h-16V196.72h20a20,20,0,0,1,20,20v24a19.4,19.4,0,0,1-3.92,12,19.37,19.37,0,0,1,3.92,12v44h-16v-44a4,4,0,0,0-4-4Zm0-48.05v32h4a4,4,0,0,0,4-4v-24a4,4,0,0,0-4-4Z"/></g><g id="Fire"><path class="cls-21" d="M1634.67,1259v16h-24.85v32h18.64v16h-18.64v48H1585V1259Z"/><path class="cls-21" d="M1680.6,1259v112.11h-24.85V1259Z"/><path class="cls-21" d="M1726.53,1323v48h-24.85V1259h31.06q12.93,0,22,5.85t9.07,14.17v24q0,6.81-6.09,12,6.09,5.2,6.09,12v44H1739v-44a3.39,3.39,0,0,0-1.81-2.85,8,8,0,0,0-4.41-1.16Zm0-48v32h6.21a8,8,0,0,0,4.41-1.16A3.39,3.39,0,0,0,1739,1303v-24a3.36,3.36,0,0,0-1.81-2.84,7.92,7.92,0,0,0-4.41-1.16Z"/><path class="cls-21" d="M1809.74,1355.07h24.85v16h-49.7V1259h49.7v16h-24.85v32h18.64v16h-18.64Z"/></g><g id="_7240_Left" data-name="7240 Left"><polygon class="cls-21" points="1593 1124.33 1603.67 1124.33 1603.67 1154.33 1571.67 1154.33 1571.67 1084.33 1595 1084.33 1686.33 1119.33 1686.33 1154.33 1593 1114 1593 1124.33"/><polygon class="cls-21" points="1664.11 997.89 1686.33 997.89 1686.33 1074.78 1644.11 1074.78 1612.56 1029.67 1594.78 1029.67 1594.78 1042.33 1607.89 1042.33 1607.89 1074.78 1586.33 1074.78 1571.67 1051 1571.67 1015.89 1586.78 999.67 1620.33 999.67 1653.67 1040.11 1663.89 1040.11 1664.11 997.89"/><path class="cls-21" d="M1662,917.67V907.33h-19.67v12l-70.66.34v25l68.6,49.21L1662,981.33V952h24.33V917.67ZM1641.83,968l-27.33-16.67h27.33Z"/><path class="cls-21" d="M1667,819.33h-77.33l-20.34,21.34V878l18.34,16h80.66l18-20.33V836Zm-3.17,45H1592.5V850h71.33Z"/></g><g id="_7240_Right" data-name="7240 Right"><polygon class="cls-21" points="1753 1124.33 1763.67 1124.33 1763.67 1154.33 1731.67 1154.33 1731.67 1084.33 1755 1084.33 1846.33 1119.33 1846.33 1154.33 1753 1114 1753 1124.33"/><polygon class="cls-21" points="1824.11 997.89 1846.33 997.89 1846.33 1074.78 1804.11 1074.78 1772.56 1029.67 1754.78 1029.67 1754.78 1042.33 1767.89 1042.33 1767.89 1074.78 1746.33 1074.78 1731.67 1051 1731.67 1015.89 1746.78 999.67 1780.33 999.67 1813.67 1040.11 1823.89 1040.11 1824.11 997.89"/><path class="cls-21" d="M1822,917.67V907.33h-19.67v12l-70.66.34v25l68.6,49.21L1822,981.33V952h24.33V917.67ZM1801.83,968l-27.33-16.67h27.33Z"/><path class="cls-21" d="M1827,819.33h-77.33l-20.34,21.34V878l18.34,16h80.66l18-20.33V836Zm-3.17,45H1752.5V850h71.33Z"/></g><g id="Little_Black_Shield" data-name="Little Black Shield"><path d="M1458.21,247.54c-9.21,7.65-22.79-.46-22.79-.46s-12,8.6-22.84.91c0,0-13,57.27,18.21,60.07,3.58.32,6.88,4.27,6.88,4.27s2.67-4.42,5.64-5.1C1470.55,301,1458.21,247.54,1458.21,247.54Zm-9.81,43.29a10.57,10.57,0,0,0-2.93,9.86,29.8,29.8,0,0,1-5-5.63,5.51,5.51,0,0,0,.65,3.13s-2.84.05-9.24-5.54a11.29,11.29,0,0,0,2.69,4.67,61.9,61.9,0,0,1-11.3-6.95c-10.32-7.72-5.62-15.7-5.83-22.17-.12-3.65-2.94-10.47-2.94-10.47,8.45,3.2,13.11,7.65,15.6,12.25.16-.76.29-1.48.38-2.15.49-3.62-1.17-10.77-1.17-10.77,8.46,4.46,12.49,9.48,14.14,14.3a15,15,0,0,0,1.94-2.67c1.77-3.26,2.72-11.72,2.72-11.72C1463.84,273.9,1453.29,286,1448.4,290.83Z"/><path d="M1430.6,256.8a46.79,46.79,0,0,1,1.38,6.47,28.55,28.55,0,0,1,.27,3.4,15.38,15.38,0,0,1-.42,3.57c-1,4.42-2.65,8.34-3.27,12.29a12.83,12.83,0,0,0,.14,5.51,7.08,7.08,0,0,0,1.14,2.26,8,8,0,0,0,.88,1l1.16,1.05a56,56,0,0,0,4.89,3.93,40.57,40.57,0,0,0,5.29,3.24l-.63,1.82a29.85,29.85,0,0,1-6.16-2.69,47,47,0,0,1-5.56-3.69l-1.3-1a12,12,0,0,1-1.36-1.32,10.08,10.08,0,0,1-2-3.37,15,15,0,0,1-.47-7.28c.69-4.61,2.52-8.69,3.71-12.59a12.52,12.52,0,0,0,.57-2.81,27.72,27.72,0,0,0,.09-3.05c0-2.09-.15-4.23-.26-6.35Z"/><path d="M1449.06,257a47.85,47.85,0,0,1-.23,6.33c-.1,1.06-.26,2.12-.46,3.19a13.32,13.32,0,0,1-1,3.36,46.11,46.11,0,0,1-3.5,5.42,44.3,44.3,0,0,0-3.19,5c-1.85,3.34-2.57,6.92-1.33,10.32a14.51,14.51,0,0,0,1.16,2.51,22.44,22.44,0,0,0,1.58,2.43,25.54,25.54,0,0,0,3.94,4.29l-1,1.65a20.37,20.37,0,0,1-5.2-4,24.53,24.53,0,0,1-2.1-2.55,16.48,16.48,0,0,1-1.69-3,13.66,13.66,0,0,1-1-7,18.4,18.4,0,0,1,2.18-6.52,41.09,41.09,0,0,1,3.6-5.39c1.27-1.65,2.59-3.25,3.55-4.78a12.42,12.42,0,0,0,1-2.48c.28-.93.52-1.9.74-2.88.45-2,.82-4,1.18-6Z"/><path d="M1435.41,239s8.08,4.68,17,4.68a19.25,19.25,0,0,0,12.37-4.1s15.89,66.77-19.19,74.62c-3.82.86-7.9,6.39-7.9,6.39s-3.61-4.94-8.22-5.35c-40.21-3.5-23.45-75.1-23.45-75.1a22.26,22.26,0,0,0,12.87,4,32.18,32.18,0,0,0,16.54-5.13m32.39-8.29-6.17,5a14.14,14.14,0,0,1-9.24,3c-7.35,0-14.4-4-14.47-4l-2.75-1.59-2.6,1.81a27.41,27.41,0,0,1-13.7,4.24,17.43,17.43,0,0,1-10-3.11l-6-4.15-1.67,7.13c-.44,1.89-10.65,46.57,5.48,68.84,5.36,7.39,12.89,11.56,22.4,12.39,1.64.14,3.85,2.26,4.62,3.31l4,5.49,4-5.48c1.54-2.06,4-4.24,5-4.47a29.28,29.28,0,0,0,19-13.61c14.26-22.82,4.4-65.26,4-67.05l-1.83-7.71Z"/></g><g id="Large_White_Part" data-name="Large White Part"><polygon class="cls-21" points="1109.54 803.67 826 883 542.46 803.67 373.33 803.67 826 957.67 1278.67 803.67 1109.54 803.67"/><g id="Big_White_Shield" data-name="Big White Shield"><path class="cls-21" d="M904.35,1043.52c-34.27,28.45-84.77-1.71-84.77-1.71s-44.58,32-85,3.39c0,0-48.39,213,67.72,223.37,13.31,1.2,24.65,15.89,24.65,15.89s10.87-16.45,21.92-19C950.22,1242.11,904.35,1043.52,904.35,1043.52Zm-32,161.48A50.73,50.73,0,0,0,857,1241.15s-7.34-5.59-18.58-20.94c-.07,8.27,2.41,11.65,2.41,11.65s-10.56.17-34.35-20.59c-15.62-8.43-6.87,8.23-6.87,8.23S770.5,1208.83,760.5,1196c-26-33.42-18.39-49.67-16.17-73.63,1.36-14.62-2.5-50.33-2.5-50.33,31.42,11.9,48.75,37.86,58,55,.58-2.82,1.08-5.51,1.41-8,1.82-13.49,4.76-47,4.76-47,31.45,16.57,37.33,42.17,43.47,60.1a57,57,0,0,0,7.24-9.93C863.29,1110,882,1074,882,1074,931,1135.33,890.52,1187,872.33,1205Z"/><path class="cls-21" d="M809.51,1072.31c.09,8.35-.17,16.65-.48,25-.16,4.16-.41,8.31-.65,12.49-.13,2.09-.26,4.18-.44,6.28l-.27,3.17-.18,1.7c-.07.59-.14,1.16-.23,1.74a111.72,111.72,0,0,1-2.94,12.86c-1.14,4.11-2.4,8.08-3.58,12a222.67,222.67,0,0,0-6.13,23.11c-1.43,7.54-2,15-.5,21.55a26.74,26.74,0,0,0,3.77,9,26.38,26.38,0,0,0,3.1,3.88c.32.3.55.58.93.93l1.1,1,2.22,2c1.47,1.38,3,2.65,4.51,4s3.07,2.59,4.61,3.89c3.14,2.5,6.32,5,9.58,7.31s6.62,4.58,10,6.72c1.7,1.07,3.44,2.07,5.17,3.07.87.49,1.74,1,2.62,1.44s1.79.93,2.54,1.31l-2.34,6.77c-1.19-.34-2.18-.64-3.22-1s-2-.72-3.06-1.1c-2-.76-4-1.61-5.95-2.49a128.07,128.07,0,0,1-11.43-5.85A168.4,168.4,0,0,1,797,1218.8l-2.5-2-1.25-1c-.41-.33-.91-.78-1.36-1.17a39.36,39.36,0,0,1-5.07-5.47,38.69,38.69,0,0,1-6.57-13.44,51.28,51.28,0,0,1-1.68-14.26,79.51,79.51,0,0,1,1.42-13.53,177.57,177.57,0,0,1,7-24.85l4.07-11.65c1.29-3.82,2.53-7.58,3.37-11.17l.29-1.33c.09-.43.18-.85.26-1.37l.5-3,1-6.08,1.9-12.24c1.32-8.17,2.6-16.37,4.15-24.54Z"/><path class="cls-21" d="M883.82,1073.31c-1.2,3.91-2.45,7.78-3.76,11.64s-2.65,7.71-4,11.55-2.78,7.67-4.27,11.48-3,7.64-4.59,11.46c-.39,1-.82,1.91-1.25,2.87s-.85,1.92-1.34,2.92l-.71,1.47c-.24.5-.51,1-.78,1.52-.53,1-1.08,2-1.64,2.91-2.23,3.77-4.63,7.18-7,10.55-4.71,6.66-9.33,13-13.22,19.58a93.39,93.39,0,0,0-5.14,9.91,57.39,57.39,0,0,0-3.37,10.11,40.13,40.13,0,0,0,.6,20.38,43.1,43.1,0,0,0,1.78,5,51.86,51.86,0,0,0,2.33,4.89,92.14,92.14,0,0,0,6,9.62,96.32,96.32,0,0,0,7.21,8.95c1.29,1.43,2.62,2.83,4,4.17.69.67,1.38,1.34,2.09,2s1.47,1.31,2.06,1.82l-3.74,6.11c-1.13-.56-2-1.06-3-1.63s-1.84-1.13-2.73-1.72c-1.78-1.21-3.5-2.48-5.19-3.81a87.83,87.83,0,0,1-9.41-8.79,96.42,96.42,0,0,1-8.08-10.21,57.76,57.76,0,0,1-6.2-12.1,50,50,0,0,1-3-13.66,52.66,52.66,0,0,1,.88-14,63.07,63.07,0,0,1,4.08-13,90.08,90.08,0,0,1,6.07-11.68,212.1,212.1,0,0,1,14.59-20.33c2.48-3.16,4.91-6.29,7.05-9.34.54-.77,1-1.53,1.53-2.29l.7-1.14.69-1.22c.47-.8.92-1.67,1.38-2.53s.92-1.73,1.36-2.62c1.82-3.52,3.61-7.13,5.38-10.75l2.63-5.44,2.67-5.45c3.52-7.28,7.08-14.58,10.74-21.82Z"/><path class="cls-21" d="M819.56,1011.63s30,17.42,63.12,17.42c15.6,0,31.89-3.87,46-15.27,0,0,56.76,249.55-73.68,278.76-14.23,3.18-27.37,23.14-27.37,23.14s-14-21.3-31.1-22.79c-149.51-13-86.4-277-86.4-277A82.94,82.94,0,0,0,758,1030.72c34.1,0,61.52-19.09,61.52-19.09m120.67-31L917,999.3c-9.31,7.51-20.55,11.16-34.36,11.16-27.45,0-53.57-14.79-53.83-14.94l-10.36-6.08L809,996.36c-1.11.74-23.93,15.77-50.92,15.77a64.81,64.81,0,0,1-37.35-11.58l-22.32-15.34-6.29,26.34a585.09,585.09,0,0,0-13,93.85c-1.7,30.38-.61,58.09,3.24,82.34,5,31.59,14.8,57.65,29.09,77.47,19.87,27.56,48,43.1,83.5,46.2,4.91.43,13.29,8.71,17.17,14.49l15.54,24.21,15.52-24.19c4.64-6.94,12.51-14.48,15.91-15.24,30-6.72,53.84-23.72,70.77-50.53,22.94-36.31,32.69-89.8,29-159a600.52,600.52,0,0,0-12-91.53l-6.61-29Z"/></g><polygon class="cls-21" points="483.7 1423.72 110 1304.67 110 1233.33 693.26 1423.72 483.7 1423.72"/><path class="cls-21" d="M659.5,1330.72l-546.83-175v-71.34l572.66,182.35s35,59.43,105,70.32c24.74,3.85,35.67,45.33,35.67,45.33C789.83,1361.79,749.1,1364.69,659.5,1330.72Z"/><path class="cls-21" d="M992.5,1330.72l531.5-175v-71.34L961.23,1259s-26,60.93-99.56,78c-24.39,5.66-35.67,45.33-35.67,45.33C862.17,1361.79,902.9,1364.69,992.5,1330.72Z"/><polygon class="cls-21" points="974.5 1188.06 1524 1013 1524 941.67 976.54 1114.53 974.5 1188.06"/><polygon class="cls-21" points="659.5 1188.06 110 1013 110 941.67 657.22 1114.46 659.5 1188.06"/><polygon class="cls-21" points="974.5 1050.06 1524 875 1524 803.67 964.49 980.34 974.5 1050.06"/><polygon class="cls-21" points="659.5 1050.06 110 875 110 803.67 669.51 980.34 659.5 1050.06"/><polygon class="cls-21" points="1109.54 803.67 826 883 542.46 803.67 373.33 803.67 826 957.67 1278.67 803.67 1109.54 803.67"/><polygon class="cls-21" points="1169.59 1423.72 1524 1304.67 1524 1233.33 960.02 1423.72 1169.59 1423.72"/></g><g id="Map"><rect class="cls-19" x="1524" y="196.72" width="340.33" height="538.94"/><polygon id="Map_Water" data-name="Map Water" class="cls-22" points="1534.33 312.33 1534.33 335.67 1674.33 293 1682.33 308.83 1784.33 278.83 1787.83 293 1803 289 1817.67 355 1806.33 358 1864.33 545 1873.67 545 1873.67 207 1864.33 207 1534.33 312.33"/><g id="Map_Roads" data-name="Map Roads"><path class="cls-21" d="M1825.67,196.72l-43.56,11.84V196.72h-18l7.54,16.84L1732.33,225l-6.45-28.28h-33.94L1613,227.44l-4.89-14.88,41.39-15.84H1605l-60.22,20.06-7.34-20.06H1524l7,24.95h-7v14l10.33-.89,10,39.11L1524,278.83v12.61l81-23.77,33.33-.23,221.56-70.72Zm-269.34,71-8.89-38,47.09-14.81,10.25,38.58Zm77.34-13.11H1617l-2.67-16.89L1715.44,205l2.89,23.56Z"/><polygon class="cls-21" points="1524 313.22 1528.33 312.33 1528.33 327 1524 329.44 1524 313.22"/><path class="cls-21" d="M1864.33,564.56V549.67l-18.22,2.22L1778.5,306.5l-6.83,2.17s6.66,23,7.83,30.16-1.17,10-11.33,11.5-12.5,2.5-15-8.33-10.67-42.83-10.67-42.83L1731.67,303l4.16,23.33-61.16,19s-11.17-43.16-41.84-34S1524,342,1524,342v13l43.41-13.66,8.7,34.66L1524,391.67v15.66L1579,388l13.67,55.33,1,11h-16.34c-4,0,0,15.34-7.33,15s-7.67-22-13-28.33-16.33,3.67-16.33,3.67c-3.67-6.34-16.67-4.34-16.67-4.34v9.34c17.83-2.34,19.83,22.5,19.83,22.5L1524,483.33v42c10.92,18.15,15.12,58.56,19,100l-19,2v50.5l27.67,3.76,2.66,54.08H1571l-2.65-51.74s4.26-.56,20.12-6c5.42-1.87,10.74-3.67,16-5.44,7.39,4.81,25.1,14.51,45,12.32,26.23-2.89,30.45-2.89,37.56,4.66a14.37,14.37,0,0,0,15.78,3.78l16.66,42.45h10.67L1714.33,693s51.56-9.78,63.11-14.44,22.89-.45,32.89-3.12,9.34-9.11,20-8.66,34,14,34,14V670.33s-25.11-12.22-36.89-10.89S1807,671.22,1795,669.89s-65.78,11.33-75.33,11.78-14.23,3.77-22.45.22-14.66-9.11-24.66-7.78-30.45,3.78-38.23,3.56c-4.68-.14-13.23-4.95-19.3-8.75,180-59.73,249.3-58.81,249.3-58.81V595.67s-44.22.44-67.55,3.77-116,31.56-116,31.56l-.89-10.22-28.43,10.7L1643.67,645l-77.56,20.47-2-29.33L1759,572.56ZM1728.56,395.63l-41.12,10.7L1678.33,358l59.56-18.33a26.25,26.25,0,0,0,18.22,23.55c17.33,6,27.78-3.78,27.78-3.78l9.55,40.23c-36.49,6.4-92.64,50.49-115.74,69.72h0l-56.94-2.16h-16.22l4.22-23.33L1731,407.33Zm-150.23-58s45.34-16.45,60-17.11,24.89,27.77,24.89,27.77l-74,23.78ZM1590.78,385l73.78-21.78,9.77,46.45c-14,6.89-70,22.22-70,22.22Zm4,91.78,24,1.11,48.44.44.67,30.23L1574.78,515l-4.67-12.22ZM1695.89,515l3.11,8.22-98.33,42.67-18.78-42.67Zm-142.22-61.33c3.55,6.22,7.33,24.66,16.44,24.22s11.56-13.33,11.56-13.33h7.55s-11.55,24.66-22,30c0,0-19.78-41.12-22-41.78C1545.22,452.78,1550.11,447.44,1553.67,453.67Zm-14,57.55c-.89-5.55-10.89-19.9-10.89-19.9l17.78-10.76c2.22,0,12.88,18.22,12.88,18.22C1555.22,499.67,1539.67,511.22,1539.67,511.22Zm-9.45,151.11s8.79-7.63,4.11-10.33c-10.29-6-8-11.44-8-11.44h18.89l3.56,23.77Zm12.89-143,20.56-11.87,18.22,42.89-30.22,14C1551.67,555.22,1543.11,519.31,1543.11,519.31Zm17.45,104.58-7.34-48.58,32.45-14.75L1608.11,607Zm54.44-20L1605.44,577l46-21.78,3.54,36Zm49.11-16.22-2.22-37.78L1699,533.44l2.22,41.87Zm47.09-12.36L1709.52,515l25.92-44-9.33-3.33-23.78,38-26.66.66,1.33-20.66s83.78-74.67,118-78.34l3.33,11.67-17,9.83,5.47,9.5,15.33-6.44,33.78,122.44s-57.56,1.11-82,5.78A151.19,151.19,0,0,0,1711.2,575.31Z"/></g><g id="Alarm_" data-name="Alarm!"><path d="M1603.67,633.89,1573,686.33h12l5.57-9.64h8.21l-3.11,9.64h13.11l12-52.44Zm-.65,35.2-7.13-.53,9.55-19.62Z"/><path d="M1674.33,633.89l-30.66,52.44h12l5.56-9.64h8.21l-3.11,9.64h13.11l12-52.44Zm-.65,35.2-7.12-.53,9.55-19.62Z"/><polygon points="1635.33 633.89 1615 686.33 1640.33 686.33 1643.67 679 1629.33 679 1648.33 633.89 1635.33 633.89"/><path d="M1686.33,686.33l20-52.44s28.64-3.8,26.23,9.33c-2.81,15.27-11.34,16.89-11.34,16.89s8,5.11-2.44,26.22h-12.45s10.23-17.08,5.11-26.76c0,0,10.86-7.92,7.34-12.57-3-4-9.26-.78-9.94,4-.75,5.29-11.17,35.33-11.17,35.33Z"/><polygon points="1726.11 686.33 1750.11 633.89 1768.33 633.89 1761.67 669.09 1780.78 633.89 1802.11 633.89 1779.89 686.33 1769.44 686.33 1783.22 648.95 1760.33 686.33 1749 686.33 1754.11 648.95 1739.44 686.33 1726.11 686.33"/><polygon points="1814.11 633.89 1799.94 670.11 1807.94 670.11 1824.33 633.89 1814.11 633.89"/><polygon points="1796.66 676.85 1792.11 686.33 1803.78 686.33 1805.17 676.85 1796.66 676.85"/></g><g id="Red_Map_Parts" data-name="Red Map Parts"><path class="cls-17" d="M1653.22,389a60,60,0,1,1-60,60,60.07,60.07,0,0,1,60-60m0-4a64,64,0,1,0,64,64,64,64,0,0,0-64-64Z"/><path class="cls-17" d="M1640.67,407.33s-19.34,13.67-16,39c0,0-7.75-.35-9.67-9.33,0,0-20,22.67,0,35.33s37.11,18,38.22,23.19c0,0,10-8.91,22.89-13.21s26.56-26.14,18.06-37.14-18.06-25.5-18.06-25.5,1.45,21.33,0,24.33c0,0-12.33-2.67-22.89-24,0,0-3.44,21.33,0,26.67C1653.22,446.67,1640.67,431.67,1640.67,407.33Z"/><line class="cls-23" x1="1653.22" y1="513" x2="1653.22" y2="535.89"/><path class="cls-17" d="M1736.33,536v15.22H1571.22V536h165.11m4-4H1567.22v23.22h173.11V532Z"/><line class="cls-23" x1="1578.33" y1="545" x2="1613" y2="545"/><line class="cls-23" x1="1622.33" y1="545" x2="1643.67" y2="545"/><line class="cls-23" x1="1653.78" y1="545" x2="1686.33" y2="545"/><line class="cls-23" x1="1694.17" y1="545" x2="1730" y2="545"/><line class="cls-23" x1="1737.83" y1="534.08" x2="1766.95" y2="513.35"/><path class="cls-17" d="M1784.67,478.33a20.4,20.4,0,1,1-20.4,20.4,20.42,20.42,0,0,1,20.4-20.4m0-4a24.4,24.4,0,1,0,24.39,24.4,24.4,24.4,0,0,0-24.39-24.4Z"/><line class="cls-23" x1="1784.67" y1="463.22" x2="1784.67" y2="535.89"/><line class="cls-23" x1="1747.22" y1="498.73" x2="1820.55" y2="498.73"/></g></g></svg>