<?xml version="1.0" encoding="utf-8"?>
<!-- Generator: Adobe Illustrator 25.4.0, SVG Export Plug-In . SVG Version: 6.00 Build 0)  -->
<svg version="1.1" id="Queen_Leonora" xmlns="http://www.w3.org/2000/svg" xmlns:xlink="http://www.w3.org/1999/xlink" x="0px"
	 y="0px" viewBox="0 0 2048 388" style="enable-background:new 0 0 2048 388;" xml:space="preserve">
<style type="text/css">
	.st0{fill:#FAC80A;}
	.st1{fill:#B40000;}
	.st2{fill:none;stroke:#000000;stroke-width:12;stroke-linecap:round;stroke-miterlimit:10;}
	.st3{fill:#5F3109;}
	.st4{fill:none;stroke:#5F3109;stroke-width:12;stroke-linecap:round;stroke-miterlimit:10;}
</style>
<g id="Background_Color">
	<polygon class="st0" points="2048,388 0,388 0,0 2048,0 2048,388 	"/>
</g>
<path id="Mouth" class="st1" d="M1077.5,292.4c-110.7,0-111.5-1-108.1,2.2c17.4,16.9,16.1,15.7,16.3,15.7
	c6.9,23.6,76.1,19.7,77.5-0.4c0.1-1,15.3-15.3,15.2-15.2C1079.5,293.9,1078.9,292.4,1077.5,292.4z"/>
<g id="Eyes">
	<g>
		<path d="M963.9,179.4c34.8,0,34.2,51.7,0,51.7S929.1,179.4,963.9,179.4z"/>
		<path class="st2" d="M957.3,205.9c0,0-45,12.7-50.9-17.9"/>
		<path class="st2" d="M942.4,198.2c0,0-15.5-1.1-16.6-17.6"/>
		<path class="st2" d="M960.5,190.8c0,0-20.2,3-15.6-18.6"/>
	</g>
	<g>
		<path d="M1084.1,179.4c-34.8,0-34.2,51.7,0,51.7S1118.9,179.4,1084.1,179.4z"/>
		<path class="st2" d="M1083.3,205.9c0,0,58.4,6.9,58.4-22.3"/>
		<path class="st2" d="M1098.4,199.2c0,0,19.2-3.4,20.2-19.9"/>
		<path class="st2" d="M1080.2,190.8c0,0,25.7,3,21.2-18.6"/>
	</g>
</g>
<g id="Hair">
	<g>
		<path class="st3" d="M1232.2,296.5c-25.3-11.8-46.5,30.1-38.4,37c2.8,2.4,8,8.3,22.3,5.1C1230.3,335.5,1239.9,300,1232.2,296.5z
			 M1219.8,309.9c-8,10.8-10.8,12.5-5.4,22c1,1.7-0.8,3.6-2.6,2.9c-13.5-5.7-9.1-23.8,5.8-28
			C1219.5,306.3,1220.9,308.4,1219.8,309.9z"/>
		<path class="st3" d="M844.1,298.7c-14.9-5.9-21.7-0.4-25.1,1.6c-10,5.9,6,57.5,35.2,46.7C864.7,343.1,859,304.6,844.1,298.7z
			 M847.6,328c-0.9,13.4-20.7,12.1-24.7-9c-0.4-2.1,2.3-3.2,3.5-1.5c12.3,17,18.9,15.1,7.5-7.9c-0.5-1-0.1-2.2,0.9-2.6
			C837.5,305.7,848.4,317.4,847.6,328z"/>
	</g>
	<path class="st3" d="M1239.3,189.6c-0.2-11,3-50.1,1.9-86.3c-37,8.3-87.3-4.8-117.1-26.7c-1.9-1.4-0.1-4.3,2-3.3
		c35.4,17.5,74.9,28,115,25.4c-1.3-31.9-6.3-60.4-20.4-63.8c-15.9-3.9-32.2-4.4-50.9-3.6c9.6,10.4,21,35.5,15.6,36.6
		c-3.9,0.8-7.2-13-24.4-36.1c-29.5,1.8-65.4,6-115.1,6c0,0,11.8,2.4,16.8,19.9c8.2,9.5,14.4,15,11.4,38.7
		c-4,30.7,123.7,46.1,123.7,46.1s-13.8,3.2-23.8,23.6c-13.2,26.8,15.2,57.9,31.2,60.7c0,0-25.2-3.9-20,49.2
		c3.3,33.2,52.1,11.4,53.5-8.3c1.4-19.7-15.7-42.8-15.7-42.8S1239.6,210.9,1239.3,189.6z M1130.9,45.2c7.7-0.4,9.2,24.7,1.2,24.9
		C1124.7,70.3,1122,45.7,1130.9,45.2z M1109.5,52.3c9.3-0.6,8,24.6-0.5,25.9C1102.1,79.2,1101.1,52.8,1109.5,52.3z M1084.2,80.9
		c-7.5-0.9-5.6-25,4.5-22.9C1095.3,59.3,1093,81.9,1084.2,80.9z M1195.6,123.6c-0.8,6.8-63.5,1.2-106.8-37.7c-1.7-1.5,0.2-4.3,2.3-3
		C1167.8,128.9,1196.4,116.8,1195.6,123.6z M1211.3,156.7c1.8-1.1,3.9,1.1,2.5,2.8c-11.6,14.5-16.2,36.3,3.1,45.2
		c2.6,1.2,1.9,6.7-8.9,1.8C1189.1,197.6,1194,167.4,1211.3,156.7z M1221.5,239.9c0.9,3-6.5,4.2-11.9,17c-5.3,12.5,1.7,11.8,14.8,11
		c2-0.1,5.5,3.5-5.8,6.4c-10.7,3-17.4-1.6-18.5-8.4C1196.8,251.5,1219.6,233.5,1221.5,239.9z M1173.8,166"/>
	<path class="st3" d="M1003.9,38.1c-87.8,0-130-11.1-171.4,2.3c-34.5,11.2-16.2,94.7-16.6,116c-0.4,21.3-2.7,52.6,9.6,66.1
		c-8.1,12.9-11.8,23.8-6.4,45.8c4.7,19.2,35.4,39.8,47.1,6.7s-8.3-48.1-8.3-48.1s27.1-36.5,18.1-57.4c-2.9-6.7-7.6-12-12.3-16.1
		c0.3,19.6-10.6,38.1-25.5,47.2c-1.9,1.2-4-1.2-2.6-2.9c12.5-14.8,19.9-29.5,22.6-48.4c-3.9-2.6-9.4-5.2-9.4-5.2
		s117-17.6,124.7-58.3C981.2,45.2,1003.9,38.1,1003.9,38.1z M835.7,277.9c12.5-14.4,11.5-25.6,4.5-43.6c-0.7-1.9,1.6-3.5,3.1-2.1
		c14.2,13.7,14,39.1-5.2,48.7C836.1,281.9,834.3,279.5,835.7,277.9z M942,51.6c8.5,0,2.6,24.6-6.1,24.6
		C924.7,76.1,932.3,51.6,942,51.6z M882.4,84c-13.6,3.5-31.6,1.6-29.9-2.9c1.6-4.6,14.9,6.3,55.4-17.4c0.3-7.7,5.9-21.1,11.3-19.3
		c3.4,1.2,3.8,6.6,2.7,11.8c2.5,1.4-0.3,3.9-1.7,5.3c-1.6,3.8-5.4,10.4-9.2,9.2C908.6,69.9,900.8,79.1,882.4,84z M966.1,89.2
		c-14.3,12.1-39.6,24-58.3,21.6c-13.9-2-10.2-7.1-7.7-6.5c16.7,3.5,42.9-9.2,63.9-18.3C966.2,85,967.8,87.7,966.1,89.2z M958.3,82.4
		c-9.2,0-3.8-22.4,3.4-22.4C972.7,60,966.3,82.4,958.3,82.4z"/>
</g>
<g id="Tirara">
	<path d="M1131.1,35.5c-5.6,0-10.7,3.2-13.5,9.4c-7-4.7-16.8-2.2-21,6.6c-9-8-25.4-2-26.6,18c-1.3,22.7,19.6,26.9,28.4,12.9
		c2.8,3.9,6.8,6.1,12.1,5.3c6.2-0.9,10.4-5.5,12.7-11.3c2.5,2.2,5.4,3.4,8.7,3.4C1153.3,79.8,1151.5,35.5,1131.1,35.5z M1084.2,80.9
		c-7.5-0.9-5.6-25,4.5-22.9C1095.3,59.3,1093,81.9,1084.2,80.9z M1109,78.1c-6.9,1.1-7.9-25.3,0.5-25.9
		C1118.8,51.7,1117.5,76.8,1109,78.1z M1132.1,70.1c-7.4,0.2-10-24.4-1.2-24.9C1138.5,44.7,1140,69.9,1132.1,70.1z"/>
	<g>
		<path d="M1066.5,49.1c-20.6-20.8-62.9-25.4-86.1,1.9c-18.1,21.3-19.7,55.5-0.5,76.2c20.7,22.3,63.7,22.6,86.4-1
			C1086.9,104.8,1087.1,70.1,1066.5,49.1z M1021.8,130.8c-61.5,0-52.4-85.8,0-85.8C1085.8,45,1083.3,130.8,1021.8,130.8z"/>
		<path class="st1" d="M1022.3,53.5c-40.6,0-47.7,70.6,0,70.6C1070,124.1,1072,53.5,1022.3,53.5z M1033.2,88.4
			c-0.8-12.8-13.6-4.3-14-12.9c-0.5-9.5,22.5-6.3,23.7,12.3C1043.3,94.2,1033.6,94.8,1033.2,88.4z"/>
	</g>
	<path d="M964.4,50.9c-3.4-0.7-6.5-0.1-9.3,1.4c-1.6-6.1-5.7-9.3-9.9-10.2c-5-1.1-9.6,0.4-13.5,3.3c-1.7-5.1-5.9-8.4-9.6-9.7
		c-21.9-7.5-35.3,44.7-10.3,44.7c3.9,0,7.3-1.7,10.1-4.3c3.6,9.2,14.7,12.8,23.2,6.5c1.9,5.5,6.1,9.5,13.3,9.5
		C976.7,92.1,987,55.7,964.4,50.9z M911.8,70.8c-8.7,0-1.4-25.9,6.1-25.9C927.5,44.8,919.5,70.8,911.8,70.8z M935.8,76.1
		c-11.2,0-3.5-24.6,6.1-24.6C950.5,51.6,944.5,76.1,935.8,76.1z M957.2,82.3c-8.2-2.4-1.6-23.3,5.1-21.8
		C973.5,62.8,964.6,84.5,957.2,82.3z"/>
</g>
<g id="Eyebrows">
	<path class="st4" d="M1144.1,169.9c-8.5-13.1-20.7-19.5-46-19.1"/>
	<path class="st4" d="M903.9,172c8.7-13,20.9-19.2,46.3-18.5"/>
</g>
</svg>
