<svg id="Texture" xmlns="http://www.w3.org/2000/svg" viewBox="0 0 2048 1688"><defs><style>.cls-1{fill:#c8c8c8;}.cls-2{fill:#deac66;}.cls-3{fill:#fff;}.cls-4,.cls-5{fill:none;stroke:#1e5aa8;stroke-miterlimit:10;}.cls-4{stroke-width:31.13px;}.cls-5{stroke-width:62.27px;}.cls-6{fill:#141414;}</style></defs><path id="Torso_Background" data-name="Torso Background" class="cls-1" d="M1602,1.23c-38.8-1.64-1117.1-1.64-1155.9,0C235.14,10.14,290.33,129.05,0,1688H2048C1757.67,129.05,1812.86,10.14,1602,1.23Z"/><path id="Torso_Background-2" data-name="Torso Background" d="M1568,50.81c-36.52-1.54-1051.38-1.54-1087.9,0-198.5,8.39-146.56,120.3-419.8,1587.53h1927.5C1714.51,171.11,1766.45,59.2,1568,50.81Z"/><polygon class="cls-1" points="657.45 35 720.85 107.67 768.73 67.12 814.59 107.67 859.1 67.12 913.73 107.67 955.55 67.12 998.71 107.67 1039.85 67.12 1084.36 107.67 1123.14 67.12 1166.98 107.67 1211.83 67.12 1257.69 107.67 1300.85 67.12 1339.29 107.67 1390.55 35 657.45 35"/><path class="cls-2" d="M1614.8,715.83c-31.36-29-202.33-187.13-299.45-271.34s-12.14-160.92-12.14-160.92S1196,328.48,1024,328.48s-279.21-44.91-279.21-44.91,85,76.72-12.14,160.92S449.39,700.86,433.2,715.83s-77.91,31.95-135.56,0V815s240.77,112.28,157.82,756H1592.54c-83-643.71,157.82-756,157.82-756V715.83C1692.71,747.78,1646.16,744.83,1614.8,715.83Z"/><path class="cls-1" d="M1648.91,152.65l78.36,466.64c7.59,35.91-38.49,60-67.61,35.4L1348.94,374.76c-15.26-12.91-17.77-34.36-5.85-50C1493.39,127.3,1489.82,122,1518.58,122h90.23C1628.34,122,1645.15,134.84,1648.91,152.65Z"/><path d="M1437.58,312.86c-79,0-50.65,80.5-4.12,80.5S1496.26,312.86,1437.58,312.86Z"/><path d="M1527.49,490.47c84.29,0,54.07-85.92,4.4-85.92S1464.86,490.47,1527.49,490.47Z"/><path d="M1601.29,565.17c47.82,53.88,94.89-14.18,66.71-45.94S1565.76,525.13,1601.29,565.17Z"/><path class="cls-3" d="M1422.5,321.76c-39.49,0-25.33,40.25-2.06,40.25S1451.83,321.76,1422.5,321.76Z"/><path class="cls-3" d="M1518.5,457.76c42.14,0,27-42.95,2.2-42.95S1487.18,457.76,1518.5,457.76Z"/><path class="cls-3" d="M1605.59,544.51c23.91,26.94,47.44-7.09,33.35-23S1587.83,524.49,1605.59,544.51Z"/><path class="cls-1" d="M399.09,152.65,320.73,619.29c-7.59,35.91,38.49,60,67.61,35.4L699.06,374.76c15.26-12.91,17.77-34.36,5.85-50C554.61,127.3,558.18,122,529.42,122H439.19C419.66,122,402.85,134.84,399.09,152.65Z"/><path d="M615.3,312.86c79,0,50.65,80.5,4.12,80.5S556.62,312.86,615.3,312.86Z"/><path d="M525.39,490.47c-84.29,0-54.07-85.92-4.4-85.92S588,490.47,525.39,490.47Z"/><path d="M451.59,565.17c-47.82,53.88-94.89-14.18-66.71-45.94S487.12,525.13,451.59,565.17Z"/><path class="cls-3" d="M611.16,321.76c-39.48,0-25.33,40.25-2.06,40.25S640.5,321.76,611.16,321.76Z"/><path class="cls-3" d="M504.84,457.76c42.14,0,27-42.95,2.19-42.95S473.52,457.76,504.84,457.76Z"/><path class="cls-3" d="M389.6,544.51c23.91,26.94,47.44-7.09,33.35-23S371.84,524.49,389.6,544.51Z"/><path class="cls-4" d="M598.66,50.09c0,9.67,16.39,215.82,416.8,215.82S1449.34,65.48,1449.34,50.09"/><g id="Side_Right" data-name="Side Right"><path class="cls-1" d="M1820.74,1141.58l-13.85-64.6s-17.42,22-31,75.8Z"/><path class="cls-1" d="M1839.28,1228.05l-77.57,19.38c-2.23,33.47-2.34,72.61.93,118l100.71-25.16Z"/><path class="cls-1" d="M1772.46,1454.06c5,33.76,11.6,70.18,20.26,109.45L1904,1529.82l-22.11-103.1Z"/><path class="cls-5" d="M1850.13,863c-37.38,6.91-187.22,77.43-172.55,396.93,7.66,166.76,50.15,339.72,50.15,369"/></g><g id="Side_Left" data-name="Side Left"><path class="cls-1" d="M226.89,1141.58l13.85-64.6s17.42,22,31,75.8Z"/><path class="cls-1" d="M208.35,1228.05l77.57,19.38c2.22,33.47,2.34,72.61-.93,118l-100.71-25.16Z"/><path class="cls-1" d="M275.17,1454.06c-5,33.76-11.6,70.18-20.26,109.45l-111.28-33.69,22.11-103.1Z"/><path class="cls-5" d="M198.23,860.9C235,867.78,384.72,940.46,370.05,1260c-7.66,166.76-50.15,339.72-50.15,369"/></g><g id="Lion_Head_With_Crown" data-name="Lion Head With Crown"><path id="Crown" class="cls-6" d="M1228.35,515.6V486.14l-34.61-.41-.46-28.22,27-27.09V372l-80.93,74.28v39.85H1084.7V446.29L1024,363.11l-60.7,83.18v39.85H908.67V446.29L827.74,372v58.41l27,27.09-.46,28.22-34.61.41V515.6h16.19v65.5H819.65v28.06h408.7V581.1h-16.19V515.6ZM908.67,581.1H870.23V515.6h38.44Zm64.75,0H935V515.6h38.44Zm68.79,0h-36.42V515.6h36.42Zm70.81,0h-38.44V515.6H1113Zm64.75,0h-38.44V515.6h38.44Z"/><path id="Black_Head_Background" data-name="Black Head Background" class="cls-6" d="M736.69,788.81l133.54-58L854,712.08l70.82,13.1V697.11l130.5,15V684l67.78,28.07L1167.65,684l10.12,37.43,137.58,15-46.53,11.23L1372,850.56h-14.16l61.71,93.56H1380.1s87.3,71.15,95.24,208.66l-43.65-15.92s68.79,133.12,0,245.13L1388,1325.86l-72.68,169.25-52.6-51.36-18.61,41.78-54.23-15.59,3.54,43-75-24.78L1074.58,1513l-32.37-35.55L1024,1513l-50.58-74.85L935,1475.56l-45.53-84.21s-65.75,31.81-98.13,89.82l-102.51,13.94s-22.94-81.3-80.6-152.41-112.35-110.41-42.52-202.1S708.37,1019,712.42,985.29s0-20.59,0-20.59H649.69l89-95.43-91.05,5.61,131.51-65.49Z"/><path id="Face" class="cls-2" d="M841.23,992.15s28.33-93.56-33.72-72.36S740.07,953.48,732,999.63s-176.7,148.46-176.7,190.87S587,1183,608.21,1183s9.76,59.2,0,103.54,92.74,100.18,199.3,10.17c0,0-31.37,69.38-126.13,69.38-39.46,0,21.82,101.34,21.82,101.34h66.54s74.19-95.54,110.61-102,51.25-51.41,41.81-58.89-41.81,16.22-41.81,16.22,59.35-152.2,54.63-185.88-16.86-58.63-64.75-15c0,0-3.37-58.63,38.44-111S861.46,936,841.23,992.15Z"/><path id="Ear" class="cls-2" d="M924.86,868.65s31-117.27,117.35-69.86,74.19,190.86,32.37,213.32-83.63-23.7-51.25-77.35S1004.1,828.1,1004.1,828.1s29.34,69.24,0,64.25-14.5,28.07-23.94,37.11Z"/><g id="Manes"><polygon class="cls-2" points="924.86 775.08 880.35 815 908.67 828.1 819.65 871.14 849.32 823.11 829.09 805.02 924.86 775.08"/><polygon class="cls-2" points="1158.55 775.08 1274.21 803.77 1248.58 803.77 1306.59 871.14 1177.77 815 1209.47 808.76 1158.55 775.08"/><path class="cls-2" d="M1258,911.06l77.55,73.6-29.33,7.49L1388,1126.88l-42.33-12L1374,1271.59h-48.56l-27,104.79-5.39-174.65,39.37,5L1286.35,1077l28.33,6.24L1248.58,966s39.12,7.49,39.12,3.74S1258,911.06,1258,911.06Z"/><polygon class="cls-2" points="1193.45 1070.74 1221.61 1143.72 1191.93 1143.72 1228.35 1296.73 1204.07 1281.57 1198.68 1365.41 1158.55 1228.05 1187.89 1236.66 1158.55 1114.88 1193.45 1114.88 1193.45 1070.74"/><path class="cls-2" d="M1095.49,1168.05v71.73l-16.86-8.73-26.3,83.58s-15.52-21.83-18.89-21.21-43.16,33.68-43.16,33.68l20.23-79.21,12.82,17.46,22.93-73.6,17.53,7.48Z"/></g><path id="Eye" class="cls-6" d="M800.76,1010.86s-71.48-6.24-88.34,66.12l-17.54,18.71,35.07-13.1S777.83,1090.7,800.76,1010.86Z"/></g><g id="Chainmail"><polygon class="cls-1" points="763.11 152.84 744.39 135.53 763.11 118.22 781.83 135.53 763.11 152.84"/><polygon class="cls-1" points="862.25 158.61 837.3 135.53 862.25 112.45 887.2 135.53 862.25 158.61"/><polygon class="cls-1" points="947.23 158.61 922.27 135.53 947.23 112.45 972.18 135.53 947.23 158.61"/><polygon class="cls-1" points="1032.21 158.61 1007.25 135.53 1032.21 112.45 1057.16 135.53 1032.21 158.61"/><polygon class="cls-1" points="1126.29 155.07 1101.33 131.99 1126.29 108.92 1151.24 131.99 1126.29 155.07"/><polygon class="cls-1" points="1301.58 149.3 1282.87 131.99 1301.58 114.68 1320.3 131.99 1301.58 149.3"/><polygon class="cls-1" points="807.96 189.37 793.92 176.38 807.96 163.4 822 176.38 807.96 189.37"/><polygon class="cls-1" points="903.05 201.18 884.34 183.87 903.05 166.56 921.77 183.87 903.05 201.18"/><polygon class="cls-1" points="987.36 201.18 968.64 183.87 987.36 166.56 1006.07 183.87 987.36 201.18"/><polygon class="cls-1" points="1174.32 201.18 1155.6 183.87 1174.32 166.56 1193.04 183.87 1174.32 201.18"/><polygon class="cls-1" points="1259.82 185.62 1245.79 172.64 1259.82 159.66 1273.86 172.64 1259.82 185.62"/><polygon class="cls-1" points="1211.27 155.07 1186.31 131.99 1211.27 108.92 1236.22 131.99 1211.27 155.07"/><polygon class="cls-1" points="1084.14 200.87 1065.42 183.56 1084.14 166.25 1102.85 183.56 1084.14 200.87"/></g></svg>