<svg id="Decal" xmlns="http://www.w3.org/2000/svg" viewBox="0 0 2048 1688"><defs><style>.cls-1{fill:#f4f4f4;}.cls-2{fill:#fac80a;}.cls-3{fill:#5f3109;}.cls-4{fill:#00852b;}</style></defs><g id="Torso_Background" data-name="Torso Background"><path class="cls-1" d="M1602,1.23c-38.8-1.64-1117.1-1.64-1155.9,0C235.14,10.14,290.33,129.05,0,1688H2048C1757.67,129.05,1812.86,10.14,1602,1.23Z"/></g><path id="Sand" class="cls-2" d="M1639.2,1213c17.44-.85,15.73-69.15,6.22-74.56s-16.88,2.59-41.27-10.09-39.56-36.81-64.71-41.36-11-19.41-38.55-26.33-101.08,7.4-130.6,12.07-62,5.81-105.67,27.67-80.87,19.41-102,22.5-7.52,16.15-23.81,19.91-63.08,0-89.65,7-31.52,14.53-50.82,18.23-127.33,14-112,30.68Z"/><path id="Palm_Trunk" data-name="Palm Trunk" class="cls-3" d="M1343.42,611.73c-14.71,90.59,97.33,179.19,50.66,353.73-7.49,28-16,30.37-21.35,49.09-8.75,30.93-50.88,78.68-47.06,92.11s104.23,18.81,123,9.19c13.85-7.09,1.25-70.2,12.55-90.32C1475,1001.18,1503,847,1474.33,779.67c-42.11-98.93-57.53-161.2-75.86-175.75S1343.42,611.73,1343.42,611.73Z"/><path id="Palm_Leaf" data-name="Palm Leaf" class="cls-4" d="M1252.93,400.51s15.21,25.6-6,40.7-287.09,134.6-329.43,279l53.94-29.92s12.21,7.78,12.28,14.54c0,0,51.07-41.63,66-43.08,0,0,7.68,8.07,8.11,18.24,0,0,51.71-41.58,68.17-46.28,0,0,14.53,10.68,14.5,18.78,0,0,55.91-76.35,115.69-68.63,0,0-51.09,57.17-54.19,71.09,0,0,12.64-5,17.18,2.12,0,0-35.92,44.94-34.66,83.54l14-5.58s-6.93,59.53-5.67,75.16c0,0,6,4.56,17.57-2.57,0,0-6.87,58.85,1.3,76.42,0,0,14.88-8.88,21.44-10.35,0,0-4.7,71.19,12.31,98.29l13.65-40,7.27,5.33s11.54-45.63,11.39-59.15l14.93,6s-3.6-48.93,7.36-72.33l18,7.59s-6.84-41.09,8.45-77.63L1344.27,752s6-64.32,22.13-79.86c0,0,93.78,54.48,124.78,129.35l17-3.3s21.1,39.59,39.82,54c0,0,14.85-23.74-15.28-78.28l11.18-12.57s-32.68-35.67-33.58-47.9c0,0,13.36,1.63,16.64-8.73,0,0-28.5-33.8-32.55-54.4,0,0,12.88,1.59,14.91-5.33,0,0-35.87-38-47.58-76.44,0,0,51.45,7.37,76.26,44.91,0,0,12.58-.47,14.46-11.45,0,0,40.82,36.35,39.47,52.45,0,0,8.61-4.85,9.85-13.86,0,0,33.89,32.73,38.14,62.46,0,0,11.43-4.1,12.72-13.62,0,0,42.73,53.74,48.95,71.48,0,0,26.87-182.12-178.89-298.17,0,0,20.59-15.5-34.34-21.63l8.09-16s-36.28-15.71-48.63-12.19l-1-22.87s-48.12,4.57-104.53,33.26C1342.31,423.22,1286.34,391.16,1252.93,400.51Z"/></svg>