<svg id="Decal" xmlns="http://www.w3.org/2000/svg" viewBox="0 0 2048 1410"><defs><style>.cls-1{fill:#8a928d;}.cls-2{fill:#58ab41;}.cls-3,.cls-6{fill:none;stroke-miterlimit:10;stroke-width:24px;}.cls-3{stroke:#fff;stroke-linecap:round;}.cls-4{fill:#fff;}.cls-5{fill:#b40000;}.cls-6{stroke:#8a928d;}</style></defs><rect id="Background_Color" data-name="Background Color" width="2048" height="1410"/><g id="Display"><path id="Grey_Part" data-name="Grey Part" class="cls-1" d="M39.67,338c-13.63,13-17.34,286.67,0,294.67S657,646,1089,646s902-5.33,918.33-18.67,20.34-296,7-305.33-688-28-1048-26.67S70.33,308.67,39.67,338Z"/><g id="Green_Part" data-name="Green Part"><path class="cls-2" d="M243.53,363.33c-10.75,10.95-13.68,250.08,0,256.8S726.24,614,1067,614s715.9,12.85,728.79,1.65,16-248.68,5.52-256.52-542.77-23.53-826.77-22.41S267.72,338.69,243.53,363.33Z"/></g><g id="Display_Lines" data-name="Display Lines"><line class="cls-3" x1="323.62" y1="411.33" x2="706.33" y2="411.33"/><line class="cls-3" x1="763.46" y1="411.33" x2="982.33" y2="411.33"/><line class="cls-3" x1="1232.75" y1="411.33" x2="1451.62" y2="411.33"/><line class="cls-3" x1="1036.33" y1="411.33" x2="1189.33" y2="411.33"/><line class="cls-3" x1="1494.51" y1="411.33" x2="1713.38" y2="411.33"/><line class="cls-3" x1="1630.33" y1="541.33" x2="1296.58" y2="541.33"/><line class="cls-3" x1="1241.39" y1="541.33" x2="1038.33" y2="541.33"/><line class="cls-3" x1="787.99" y1="541.33" x2="587" y2="541.33"/><line class="cls-3" x1="977.75" y1="541.33" x2="829.93" y2="541.33"/><line class="cls-3" x1="535.09" y1="541.33" x2="323.62" y2="541.33"/></g></g><g id="Lamps"><path class="cls-2" d="M1736.57,1148.43c-27.63,14.51-15.78,113.44,0,129.33s147.78,21.86,161.89,0,16.61-119.75,0-129.33S1770.22,1130.77,1736.57,1148.43Z"/><path class="cls-4" d="M1751.92,1216.64c-.39-.71-.67-1.18-1-1.76s-.57-1.1-.82-1.65c-.52-1.11-1-2.23-1.4-3.37a48.37,48.37,0,0,1-2.59-22.25,43,43,0,0,1,5.09-15.58,41.89,41.89,0,0,1,11.14-12.79c1.13-.81,2.25-1.67,3.43-2.39s2.37-1.36,3.57-2,2.43-1.11,3.65-1.64a29.93,29.93,0,0,1,3.7-1.34,59.56,59.56,0,0,1,14.71-2.71c1.2-.05,2.4-.05,3.59-.06a35.14,35.14,0,0,1,3.56.06c2.33.2,4.68.32,7,.71s4.54.79,6.75,1.39,4.38,1.29,6.53,2.09a6,6,0,0,1-.47,11.41l-.42.11q-3.12.86-6.15,1.42c-1,.18-2,.45-3,.66l-3,.62c-1,.17-1.93.42-2.88.65s-1.9.43-2.84.65c-1.87.42-3.65,1-5.46,1.41-.88.26-1.73.56-2.59.83a24.91,24.91,0,0,0-2.53.81c-.81.31-1.61.63-2.43.89s-1.52.67-2.29,1a19.06,19.06,0,0,0-2.18,1c-.68.38-1.41.7-2.07,1.08s-1.27.8-1.91,1.18-1.16.86-1.76,1.26a28.69,28.69,0,0,0-5.82,5.88,33.32,33.32,0,0,0-4.19,7.9,55.23,55.23,0,0,0-2.65,10c-.33,1.81-.6,3.68-.82,5.59-.11,1-.23,1.92-.32,2.88-.06.49-.1,1-.15,1.45a7.48,7.48,0,0,1-.17,1.31l-.7,2.24a5.56,5.56,0,0,1-10.18,1Z"/><path class="cls-5" d="M162.57,1148.43c-27.63,14.51-15.78,113.44,0,129.33s147.78,21.86,161.89,0,16.61-119.75,0-129.33S196.22,1130.77,162.57,1148.43Z"/><path class="cls-4" d="M177.92,1216.64c-.39-.71-.67-1.18-1-1.76s-.57-1.1-.82-1.65c-.52-1.11-1-2.23-1.4-3.37a48.37,48.37,0,0,1-2.59-22.25,43,43,0,0,1,5.09-15.58,41.89,41.89,0,0,1,11.14-12.79c1.13-.81,2.25-1.67,3.43-2.39s2.37-1.36,3.57-2,2.43-1.11,3.65-1.64a29.93,29.93,0,0,1,3.7-1.34,59.56,59.56,0,0,1,14.71-2.71c1.2-.05,2.4-.05,3.59-.06a35.14,35.14,0,0,1,3.56.06c2.33.2,4.68.32,7,.71s4.54.79,6.75,1.39,4.38,1.29,6.53,2.09a6,6,0,0,1-.47,11.41l-.42.11q-3.12.86-6.15,1.42c-1,.18-2,.45-3,.66l-2.95.62c-1,.17-1.93.42-2.88.65s-1.9.43-2.84.65c-1.87.42-3.65,1-5.46,1.41-.88.26-1.73.56-2.59.83a24.91,24.91,0,0,0-2.53.81c-.81.31-1.61.63-2.43.89s-1.52.67-2.29,1a19.06,19.06,0,0,0-2.18,1c-.68.38-1.41.7-2.07,1.08s-1.27.8-1.91,1.18-1.16.86-1.76,1.26a28.69,28.69,0,0,0-5.82,5.88,33.32,33.32,0,0,0-4.19,7.9,55.23,55.23,0,0,0-2.65,10c-.33,1.81-.6,3.68-.82,5.59-.11,1-.23,1.92-.32,2.88-.06.49-.1,1-.15,1.45a7.48,7.48,0,0,1-.17,1.31l-.7,2.24a5.56,5.56,0,0,1-10.18,1Z"/><path class="cls-5" d="M744.57,108.43c-27.63,14.51-15.78,113.44,0,129.33s147.78,21.86,161.89,0,16.61-119.75,0-129.33S778.22,90.77,744.57,108.43Z"/><path class="cls-4" d="M759.92,176.64c-.39-.71-.67-1.18-1-1.76s-.57-1.1-.82-1.65c-.52-1.11-1-2.23-1.4-3.37a48.37,48.37,0,0,1-2.59-22.25A43,43,0,0,1,759.24,132a41.89,41.89,0,0,1,11.14-12.79c1.13-.81,2.25-1.67,3.43-2.39s2.37-1.36,3.57-2,2.43-1.11,3.65-1.64a29.93,29.93,0,0,1,3.7-1.34,59.56,59.56,0,0,1,14.71-2.71c1.2,0,2.4,0,3.59-.06a35.14,35.14,0,0,1,3.56.06c2.33.2,4.68.32,7,.71s4.54.79,6.75,1.39,4.38,1.29,6.53,2.09a6,6,0,0,1-.47,11.41l-.42.11q-3.12.86-6.15,1.42c-1,.18-2,.45-3,.66l-2.95.62c-1,.17-1.93.42-2.88.65s-1.9.43-2.84.65c-1.87.42-3.65,1-5.46,1.41-.88.26-1.73.56-2.59.83a24.91,24.91,0,0,0-2.53.81c-.81.31-1.61.63-2.43.89s-1.52.67-2.29,1a19.06,19.06,0,0,0-2.18,1c-.68.38-1.41.7-2.07,1.08s-1.27.8-1.91,1.18-1.16.86-1.76,1.26a28.69,28.69,0,0,0-5.82,5.88,33.32,33.32,0,0,0-4.19,7.9,55.23,55.23,0,0,0-2.65,10c-.33,1.81-.6,3.68-.82,5.59-.11.95-.23,1.92-.32,2.88-.06.49-.1,1-.15,1.45a7.48,7.48,0,0,1-.17,1.31l-.7,2.24a5.56,5.56,0,0,1-10.18,1Z"/><path class="cls-2" d="M72.57,108.43c-27.63,14.51-15.78,113.44,0,129.33s147.78,21.86,161.89,0,16.61-119.75,0-129.33S106.22,90.77,72.57,108.43Z"/><path class="cls-4" d="M87.92,176.64c-.39-.71-.67-1.18-1-1.76s-.57-1.1-.82-1.65c-.52-1.11-1-2.23-1.4-3.37a48.37,48.37,0,0,1-2.59-22.25A43,43,0,0,1,87.24,132a41.89,41.89,0,0,1,11.14-12.79c1.13-.81,2.25-1.67,3.43-2.39s2.37-1.36,3.57-2,2.43-1.11,3.65-1.64a29.93,29.93,0,0,1,3.7-1.34,59.56,59.56,0,0,1,14.71-2.71c1.2,0,2.4,0,3.59-.06a35.14,35.14,0,0,1,3.56.06c2.33.2,4.68.32,7,.71s4.54.79,6.75,1.39,4.38,1.29,6.53,2.09a6,6,0,0,1-.47,11.41l-.42.11q-3.12.86-6.15,1.42c-1,.18-2,.45-3,.66l-2.95.62c-1,.17-1.93.42-2.88.65s-1.9.43-2.84.65c-1.87.42-3.65,1-5.46,1.41-.88.26-1.73.56-2.59.83a24.91,24.91,0,0,0-2.53.81c-.81.31-1.61.63-2.43.89s-1.52.67-2.29,1a19.06,19.06,0,0,0-2.18,1c-.68.38-1.41.7-2.07,1.08s-1.27.8-1.91,1.18-1.16.86-1.76,1.26a28.69,28.69,0,0,0-5.82,5.88,33.32,33.32,0,0,0-4.19,7.9,55.23,55.23,0,0,0-2.65,10c-.33,1.81-.6,3.68-.82,5.59-.11.95-.23,1.92-.32,2.88-.06.49-.1,1-.15,1.45a7.48,7.48,0,0,1-.17,1.31l-.7,2.24a5.56,5.56,0,0,1-10.18,1Z"/><path class="cls-2" d="M1627.57,108.43c-27.63,14.51-15.78,113.44,0,129.33s147.78,21.86,161.89,0,16.61-119.75,0-129.33S1661.22,90.77,1627.57,108.43Z"/><path class="cls-4" d="M1642.92,176.64c-.39-.71-.67-1.18-1-1.76s-.57-1.1-.82-1.65c-.52-1.11-1-2.23-1.4-3.37a48.37,48.37,0,0,1-2.59-22.25,43,43,0,0,1,5.09-15.58,41.89,41.89,0,0,1,11.14-12.79c1.13-.81,2.25-1.67,3.43-2.39s2.37-1.36,3.57-2,2.43-1.11,3.65-1.64a29.93,29.93,0,0,1,3.7-1.34,59.56,59.56,0,0,1,14.71-2.71c1.2,0,2.4,0,3.59-.06a35.14,35.14,0,0,1,3.56.06c2.33.2,4.68.32,7,.71s4.54.79,6.75,1.39,4.38,1.29,6.53,2.09a6,6,0,0,1-.47,11.41l-.42.11q-3.12.86-6.15,1.42c-1,.18-2,.45-3,.66l-3,.62c-1,.17-1.93.42-2.88.65s-1.9.43-2.84.65c-1.87.42-3.65,1-5.46,1.41-.88.26-1.73.56-2.59.83a24.91,24.91,0,0,0-2.53.81c-.81.31-1.61.63-2.43.89s-1.52.67-2.29,1a19.06,19.06,0,0,0-2.18,1c-.68.38-1.41.7-2.07,1.08s-1.27.8-1.91,1.18-1.16.86-1.76,1.26a28.69,28.69,0,0,0-5.82,5.88,33.32,33.32,0,0,0-4.19,7.9,55.23,55.23,0,0,0-2.65,10c-.33,1.81-.6,3.68-.82,5.59-.11.95-.23,1.92-.32,2.88-.06.49-.1,1-.15,1.45a7.48,7.48,0,0,1-.17,1.31l-.7,2.24a5.56,5.56,0,0,1-10.18,1Z"/><circle class="cls-5" cx="587" cy="175" r="72"/><circle class="cls-4" cx="587" cy="141.67" r="28.71"/><circle class="cls-5" cx="1038.33" cy="175" r="72"/><circle class="cls-4" cx="1038.33" cy="141.67" r="28.71"/><circle class="cls-5" cx="1488.33" cy="175" r="72"/><circle class="cls-4" cx="1478.33" cy="141.67" r="28.71"/><circle class="cls-5" cx="1935.33" cy="175" r="72"/><circle class="cls-4" cx="1923.33" cy="141.67" r="28.71"/><circle class="cls-2" cx="1263.33" cy="175" r="72"/><circle class="cls-4" cx="1251.33" cy="141.67" r="28.71"/><circle class="cls-2" cx="375.33" cy="175" r="72"/><circle class="cls-4" cx="352.33" cy="141.67" r="28.71"/><circle class="cls-5" cx="882" cy="800" r="72"/><circle class="cls-4" cx="877" cy="766.67" r="28.71"/><circle class="cls-2" cx="587" cy="800" r="72"/><circle class="cls-4" cx="575" cy="766.67" r="28.71"/><circle class="cls-2" cx="1454.41" cy="800" r="72"/><circle class="cls-4" cx="1442.41" cy="766.67" r="28.71"/><circle class="cls-2" cx="1159.41" cy="800" r="72"/><circle class="cls-4" cx="1146.41" cy="766.67" r="28.71"/><circle class="cls-2" cx="882" cy="1298.67" r="72"/><circle class="cls-4" cx="866.33" cy="1275.33" r="28.71"/><circle class="cls-5" cx="587" cy="1298.67" r="72"/><circle class="cls-4" cx="581.67" cy="1275.33" r="28.71"/><circle class="cls-5" cx="1454.41" cy="1298.67" r="72"/><circle class="cls-4" cx="1442.41" cy="1275.33" r="28.71"/><circle class="cls-5" cx="1159.41" cy="1298.67" r="72"/><circle class="cls-4" cx="1159.41" cy="1275.33" r="28.71"/></g><g id="Switches"><path class="cls-1" d="M563.13,926.89a710.92,710.92,0,0,1,82,4.83c-1.75,65,7.64,182.42,11.33,225.38A162,162,0,0,1,597.51,1170c-1.18,0-2.38.06-3.57.06-26.49,0-49.09-10.1-61.81-17.28,1.52-18.36,2.92-52.87,4.52-121.06.94-40.25,1.62-80.37,2-104.37,8-.31,16.22-.47,24.48-.47m0-24c-15.28,0-31.49.51-48.15,1.78,0,0-3.31,250.66-8.65,260,0,0,37.28,29.4,87.61,29.4,1.46,0,2.92,0,4.39-.07,52-1.78,83.42-23.06,83.42-23.06S663.67,974.67,670.33,911c0,0-46.11-8.11-107.2-8.11Z"/><path class="cls-6" d="M521,1039.33H659"/><path class="cls-1" d="M521,1124.67H659l7.33,41.33s-74.66,23-84.66,20.83-66.67-31-66.67-31Z"/><path class="cls-6" d="M809,1039.33H947"/><path class="cls-1" d="M851.09,926.89a711.07,711.07,0,0,1,82,4.83c-1.69,62.61,7,173.81,10.9,220.32a389.06,389.06,0,0,1-55.13,5.08c-1.68,0-3.4.06-5.1.06a237.71,237.71,0,0,1-63.28-9.09c1.38-19.37,2.69-53.6,4.16-116.36.94-40.25,1.62-80.37,2-104.37,8-.31,16.22-.47,24.48-.47m0-24c-15.28,0-31.49.51-48.15,1.78,0,0-3.31,250.66-8.65,260,0,0,39.55,16.51,89.44,16.51,1.89,0,3.79,0,5.71-.07,52-1.33,80.27-10.17,80.27-10.17S951.63,974.67,958.29,911c0,0-46.11-8.11-107.2-8.11Z"/><path class="cls-1" d="M947,1039.33H809L810,954H947Z"/><path class="cls-1" d="M1132.71,926.89a710.92,710.92,0,0,1,82,4.83c-1.75,65,7.64,182.42,11.34,225.38A162.14,162.14,0,0,1,1167.1,1170c-1.19,0-2.39.06-3.57.06-26.5,0-49.1-10.1-61.81-17.28,1.51-18.36,2.92-52.87,4.51-121.06,1-40.25,1.63-80.37,2-104.37,8-.31,16.23-.47,24.48-.47m0-24c-15.27,0-31.48.51-48.15,1.78,0,0-3.31,250.66-8.64,260,0,0,37.28,29.4,87.61,29.4,1.45,0,2.91,0,4.39-.07,51.95-1.78,83.41-23.06,83.41-23.06S1233.25,974.67,1239.92,911c0,0-46.11-8.11-107.21-8.11Z"/><path class="cls-6" d="M1090.58,1039.33h138"/><path class="cls-1" d="M1090.58,1124.67h138l7.34,41.33s-74.67,23-84.67,20.83-66.67-31-66.67-31Z"/><path class="cls-1" d="M1420.71,926.89a710.92,710.92,0,0,1,82,4.83c-1.75,65,7.64,182.42,11.33,225.38a162,162,0,0,1-58.92,12.91c-1.18,0-2.38.06-3.57.06-26.49,0-49.09-10.1-61.81-17.28,1.52-18.36,2.93-52.87,4.52-121.06.94-40.25,1.63-80.37,2-104.37,8-.31,16.22-.47,24.48-.47m0-24c-15.28,0-31.49.51-48.15,1.78,0,0-3.31,250.66-8.64,260,0,0,37.27,29.4,87.6,29.4,1.46,0,2.92,0,4.4-.07,51.95-1.78,83.41-23.06,83.41-23.06S1521.25,974.67,1527.92,911c0,0-46.11-8.11-107.21-8.11Z"/><path class="cls-6" d="M1378.58,1039.33h138"/><path class="cls-1" d="M1378.58,1124.67h138l7.34,41.33s-74.67,23-84.67,20.83-66.67-31-66.67-31Z"/></g><g id="Left_Control_Knob" data-name="Left Control Knob"><g id="Circle"><path class="cls-1" d="M234.33,814a97,97,0,1,1-97,97,97.1,97.1,0,0,1,97-97m0-24a121,121,0,1,0,121,121,121,121,0,0,0-121-121Z"/></g><polygon id="Pointer" class="cls-4" points="259 923.33 311 875.33 244.38 888.67 259 923.33"/><g id="Lines"><line class="cls-3" x1="84.78" y1="911" x2="23.13" y2="911"/><line class="cls-3" x1="96.57" y1="854.47" x2="41.12" y2="827.53"/><line class="cls-3" x1="127.07" y1="802.39" x2="86.56" y2="755.92"/><line class="cls-3" x1="177.32" y1="771.36" x2="161.2" y2="711.85"/><line class="cls-3" x1="239.52" y1="760.4" x2="238.57" y2="698.76"/><line class="cls-3" x1="296.2" y1="769.53" x2="322.28" y2="713.67"/><line class="cls-3" x1="345.43" y1="802.39" x2="391.27" y2="761.16"/><line class="cls-3" x1="377.84" y1="859.52" x2="433.97" y2="834.01"/><line class="cls-3" x1="391.27" y1="917.55" x2="452.92" y2="917.55"/></g></g><g id="Right_Control_Knob" data-name="Right Control Knob"><g id="Circle-2" data-name="Circle"><path class="cls-1" d="M1807,814a97,97,0,1,1-97,97,97.1,97.1,0,0,1,97-97m0-24a121,121,0,1,0,121,121,121,121,0,0,0-121-121Z"/></g><polygon id="Pointer-2" data-name="Pointer" class="cls-4" points="1785.19 934.43 1721.54 903.52 1789.16 897.02 1785.19 934.43"/><g id="Lines-2" data-name="Lines"><line class="cls-3" x1="1647.75" y1="911" x2="1586.1" y2="911"/><line class="cls-3" x1="1659.54" y1="854.47" x2="1604.09" y2="827.53"/><line class="cls-3" x1="1690.05" y1="802.39" x2="1649.53" y2="755.92"/><line class="cls-3" x1="1740.3" y1="771.36" x2="1724.17" y2="711.85"/><line class="cls-3" x1="1802.5" y1="760.4" x2="1801.54" y2="698.76"/><line class="cls-3" x1="1859.17" y1="769.53" x2="1885.26" y2="713.67"/><line class="cls-3" x1="1908.41" y1="802.39" x2="1954.25" y2="761.16"/><line class="cls-3" x1="1940.82" y1="859.52" x2="1996.95" y2="834.01"/><line class="cls-3" x1="1954.25" y1="917.55" x2="2015.9" y2="917.55"/></g></g></svg>