<svg id="Decal" xmlns="http://www.w3.org/2000/svg" viewBox="0 0 2048 2048"><defs><style>.cls-1{fill:#f3c988;}.cls-2{fill:#fac80a;}.cls-3{fill:#b40000;}.cls-4{fill:#720012;}.cls-5{fill:#00852b;}</style></defs><circle id="Dough" class="cls-1" cx="1024" cy="1024" r="1024"/><g id="Holes"><path class="cls-2" d="M1194.64,300.72c45.71,2.13,18,71.4-18.43,57.38C1154.47,342.4,1169.67,304.16,1194.64,300.72Z"/><path class="cls-2" d="M746.4,333.85c30.61-1.47,4.39,51-17.5,36.53C721.49,356.36,731.66,338,746.4,333.85Z"/><path class="cls-2" d="M789,376.26c13.4-3.85,19.45,20.27,7.31,24.85C782.06,406.8,780.1,380,789,376.26Z"/><path class="cls-2" d="M730.85,442.09c23.8-8.92,24.56,36.63,1.74,32.1C714.66,473.92,715.4,445.84,730.85,442.09Z"/><path class="cls-2" d="M810,442c19.44-5.18,26.88,22,15.47,32.7C805,483.88,789.33,449.63,810,442Z"/><path class="cls-2" d="M1182.88,486.61c18.31-2.38,14.15,28-2.23,25.18C1163.71,512.29,1167.37,485.18,1182.88,486.61Z"/><path class="cls-2" d="M1260.74,490.42c15.58-7.72,28.85,15.08,15.64,25.16C1261.92,525.94,1244.2,497.65,1260.74,490.42Z"/><path class="cls-2" d="M1162.11,571.6c20.9-5.45,24.29,27.15,13.26,38.64C1157.22,613,1144.24,579.28,1162.11,571.6Z"/><path class="cls-2" d="M1258.69,575.8c16.38-5,31,20.61,14.87,29.68-10.12,5.26-23.59,17.1-34.83,9.46C1231.71,599.16,1243.16,581,1258.69,575.8Z"/><path class="cls-2" d="M322.85,709c12.36-2.9,20,17.85,7,22.12C316.2,735.56,308.56,713.45,322.85,709Z"/><path class="cls-2" d="M357.61,762.65c23.2-7.91,53.53,38.55,23.22,47.11C354.88,821.15,334.81,776.44,357.61,762.65Z"/><path class="cls-2" d="M1701.53,772.73c16.77-6.83,21,25.58,3.29,21.46C1692,796.05,1688,772.84,1701.53,772.73Z"/><path class="cls-2" d="M1626,778.55c16.65-3.75,15.88,26.38-.71,21.74C1609.23,803.28,1611.53,777.37,1626,778.55Z"/><path class="cls-2" d="M558.81,782.55C589.87,775,602.51,836.78,568,840,536.88,839,532,793.89,558.81,782.55Z"/><path class="cls-2" d="M286.19,794c24.17-6.75,33.65,29.24,20.13,43.38C286.34,840.51,270.23,807.27,286.19,794Z"/><path class="cls-2" d="M1351.9,830.86c13.58-4.23,19.61,16.85,11.35,25.24C1350.33,858.38,1337.57,837.42,1351.9,830.86Z"/><path class="cls-2" d="M400.05,832.83c11.82-4.46,24.58,2,23.41,15.57-7.9,7.08-19.87,11.66-30.31,8.55C382.88,850.78,389.92,834.77,400.05,832.83Z"/><path class="cls-2" d="M1653.28,844.32c21.37-8.14,35.12,23.29,19.51,36.69-9.32,6.69-23.46,14.1-34.27,7C1630.38,873.35,1637.29,850.68,1653.28,844.32Z"/><path class="cls-2" d="M1272.53,854c18.32-10.05,26.23,25.61,6.68,23.56C1266.44,879.79,1263.89,859,1272.53,854Z"/><path class="cls-2" d="M1746.11,863.56c31.79-5.24,15.66,44.85-6.91,40C1731.41,892.11,1733.59,870.53,1746.11,863.56Z"/><path class="cls-2" d="M777.28,865.56c19.57-5.84,22.53,36.16,1.61,30.86C762.72,895.84,763.22,869.08,777.28,865.56Z"/><path class="cls-2" d="M1353.76,910.21c17-9.09,24.93,25.62,6,25C1343.88,939.84,1341.17,915.16,1353.76,910.21Z"/><path class="cls-2" d="M872,914c16.44-6.6,25.74,12.63,17.68,25.33-9.42,9.32-29.9,6.71-35-6C854.44,924,863.67,916.53,872,914Z"/><path class="cls-2" d="M1044.35,918.2c25.11-10.25,41.83,24.94,25.32,42.48-12.61,24.6-50.69,4.41-46.2-19.24C1024.07,929.9,1034.39,922,1044.35,918.2Z"/><path class="cls-2" d="M1268.38,930.88c16.3-3.4,34.17,9.85,29.28,27.48C1280.81,966.91,1257.68,949.31,1268.38,930.88Z"/><path class="cls-2" d="M753.77,950.82c25.72-7.37,31.13,43.22,5.16,40.9C737.54,993.64,735.37,956.16,753.77,950.82Z"/><path class="cls-2" d="M816,991.41c20.59-9.8,18.16,30.11-.91,25.34C800.29,1017.62,804.47,993.52,816,991.41Z"/><path class="cls-2" d="M396.32,1101.22c35.32-6.61,33.61,53.38,5,58.27C375.78,1154.11,381.61,1115.3,396.32,1101.22Z"/><path class="cls-2" d="M1355.48,1126.67c37.52-8,48.17,50.4,12.55,58.62C1333.3,1192.56,1320.71,1135.62,1355.48,1126.67Z"/><path class="cls-2" d="M460.14,1132.53c13.33-6.73,27.35,9,15.92,19.61C462.58,1162.54,444,1140.27,460.14,1132.53Z"/><path class="cls-2" d="M1048,1140.21c19.18-8.74,26.28,27.29,4.74,23.53C1037.39,1168.66,1034.55,1142.7,1048,1140.21Z"/><path class="cls-2" d="M353.49,1177c15.62-2.75,32.35,15.47,22.86,30C359.68,1221.37,331,1186.6,353.49,1177Z"/><path class="cls-2" d="M467.32,1198.53c46.37-.56-7.22,69.55-29.15,41C428.54,1218.65,447,1200,467.32,1198.53Z"/><path class="cls-2" d="M973.75,1204.34c16.55-1.9,20.69,24.81,4.77,28.33C961.6,1236.21,954.52,1203.58,973.75,1204.34Z"/><path class="cls-2" d="M1641.89,1213.7c11.91-3.5,30,9.47,19.88,21.81C1648.23,1244.52,1626.05,1223.91,1641.89,1213.7Z"/><path class="cls-2" d="M1071.21,1219.59c18.11-7.31,28.65,18.78,11.78,27C1064.93,1258.18,1049.73,1222.92,1071.21,1219.59Z"/><path class="cls-2" d="M1577.2,1219.81c13.52.93,10.62,26.49-4,21.25C1555,1242.84,1560.53,1214.47,1577.2,1219.81Z"/><path class="cls-2" d="M1009.1,1265.89c16.13-2.47,15.49,24.47.44,24.85C993.43,1293.18,994,1266.26,1009.1,1265.89Z"/><path class="cls-2" d="M1564.19,1300.8c26.84.42,3.36,43.24-15.4,30.67C1535.2,1321.05,1550.34,1301.48,1564.19,1300.8Z"/><path class="cls-2" d="M1651.44,1308.55c24.08-5,14.06,35-5,33C1624.66,1342.78,1634.89,1309.66,1651.44,1308.55Z"/><path class="cls-2" d="M521.81,1325.94c32.69-2.8,36.28,54.3,3,54.5C494,1380.09,491.78,1330.74,521.81,1325.94Z"/><path class="cls-2" d="M854.68,1349.3c13.86-3.89,39.06-1.66,37.38,18,3.58,23.28-24.29,41.19-44.77,33.72C832.88,1387.48,836.61,1357.89,854.68,1349.3Z"/><path class="cls-2" d="M1328.09,1499.87c19-4.42,22.86,29.32,3.22,28.72C1316,1529.48,1312.14,1501,1328.09,1499.87Z"/><path class="cls-2" d="M1218.21,1503.94c28.62-10.66,17.41,33-4.06,28.62C1197,1530.66,1205.6,1506.35,1218.21,1503.94Z"/><path class="cls-2" d="M859.92,1546.46c14.08-3.07,22.58,15.49,11.23,24.08C856,1578.51,840,1549.89,859.92,1546.46Z"/><path class="cls-2" d="M779.27,1558.14c28.61-5.06-2.67,45.3-19.41,28.74C756.07,1575,766.88,1560.23,779.27,1558.14Z"/><path class="cls-2" d="M1467.74,1558.1c32-10.28,52,45.22,17,53.3C1451.48,1623.51,1432.91,1565,1467.74,1558.1Z"/><path class="cls-2" d="M1216.2,1575.18c12.38-3.13,21.76,14,12.8,22.65C1214.88,1604.69,1198.68,1581.52,1216.2,1575.18Z"/><path class="cls-2" d="M1309.08,1596.59c16.21-8.28,26.25,12.8,12.38,21.89S1296.19,1602.35,1309.08,1596.59Z"/><path class="cls-2" d="M858.35,1602.47c31.31,2.71-2.36,63.08-22.36,43.49C833.83,1630,842.49,1608.58,858.35,1602.47Z"/><path class="cls-2" d="M773.34,1644.53c12-.13,23,11.89,23.4,23.59C786,1680.73,761.87,1655.61,773.34,1644.53Z"/></g><g id="Sauce"><path class="cls-3" d="M1024,83.16C504.39,83.16,83.16,504.39,83.16,1024S504.39,1964.84,1024,1964.84s940.84-421.23,940.84-940.84S1543.61,83.16,1024,83.16Zm769.31,1242c-1.23,20.71,25.59,30.79,24.87,51.67-.91,22.32-18.52,38.83-35.27,51.29-21.85,11.8-47.63,5.65-71.15,9.65-15.51,1.89-27.89,17.93-24.83,33.44,5.53,30.22,2.42,63.23-12.69,90.33-26.36,36.45-72.87,5.68-89.38-24.21-16.32-31.47-61.13-28.8-76.64-60.71-32.22-35.41-59.72-75.63-96.52-106.67-23.54-13.85-53-18.86-71.83-40.23-47.09-63.74-112.36-111.68-174.36-160,13.71,15.61-5.86,32.1-.25,49.18,1.2-6.05,3.06-17.77,11.55-12.26,24.09,18.37,40.49,47.2,70.29,57.65,44.83,30.79,66.76,83.37,108.4,117.48,14.39,16.11,40.78,9.27,54.32,26.94,15.57,10.91,15.61,34.13,34.15,41.54,19.77,18.78,30.89,46.2,54.5,61.23,16.52,6.57,36.92,5.74,49.45,20.23,23.29,19.8,54.29,49.58,40.46,83.06-11.18,15.47-22.72,30.82-25.08,50.49-10.35,29.17-47.93,17.25-70,28.3-27.39,22.68-20.39,66.33-49.51,87.87-44.56,31-100.76,35.53-149.45,57.28-24.7,8.38-50.79,24-77.51,16.09-21-5.51-28.26-27.92-40-43.28-20.64-9.22-31.51,16.87-47.09,25.09-17.8,15.51-48.82,20.69-65.12.52-19.88-32.43-7.12-70.92-9.11-106.25,1.57-56.43-30.09-112.15-12-168.23,5.94-13.63-3.4-25.88-8.39-37.87-2.28-28.21,1.89-57-3.83-85-1.9-13.71,2-33.11-13.42-40.21-13.13,1.94-7.25,19.34-8,28.7-3.6,27.25,4,55.14-3.77,81.94-2.38,12.67-7.35,26.49-1.86,39,19.83,35.37-.38,75.9,3,113.75-6.44,39.66,27.35,76.85,9.71,115.38-2.19,11.6-6.54,26.24-20.66,27.21-24.34,1.23-37.07-26.17-59.56-31-10.77,17.29,8.8,45.87-12.57,57.67-27.33,12.06-58.13-1.71-80.89-17.6-16.95-12.77-41.45-7.35-56,6.44-23.79,30.15-68.67,15.47-96.54-1-42.12-25.57-89.91-43.88-124.37-80.39-17.68-20.39-33.63-46.16-61.65-53-23.33-3.81-59.43-23.13-42.16-51.21,27.89-21.55,54.11-45,82.36-66.41,23.19-20.68,34-50.77,53-74.77,23.75-39.6,61-68.4,87.82-105.61,12-14,31.23-19.84,41.83-35.46,13.15-22.11,37-33.65,54.36-51.89,24.06-18.49,39.51-45.58,63.84-63.7,9-7.7,24.23-18.09,19.9-31.39-21.56,14.21-42.56,30.09-58.73,50.51-17.95,24.93-49.63,35.12-67.65,60-49.49,43.28-88.46,98.8-147.21,131-42.68,19.34-56,73.42-101.61,88-28.77,10.9-18.37,55.75-49.91,62.17-14.89-.6-26.73-12.59-37.5-21.85-12.88-14.16-34.38-17.58-44.5-34.64-19.65-27.73-9.16-66.37-30.9-93-12-7.68-29.18,4.66-40.82-5.72-12.38-13-6.08-32-9.5-47.79a170.09,170.09,0,0,0-43.07-73.45c-10.23-17.91-13.57-38.75-20.46-58-6.4,3.56-19.51,8.11-19.11-3.9,6.23-5.75,13.72.36,20.45,1.58,18.41-17.44,6.82-44.21,10.5-66,6.71-32.78-11.53-64.21-32.73-87.72-15.62-14.51-21.42-41.14-7.71-58.58,22.18-8.47,43.16,15.74,65.56,9.51,12.12-10.94-18-24.79-3.08-33.74,31,3.54,56.67,39.43,89.68,27.84,13-3.07,45.7-15.76,45.33,4.26,27.67-10.8,56.45-14,85.2-10.79-6.67-1.13-13.52-3.77-15.95-10.46,5.46-3.81,25.72-10.37,12.05-15.75-34.66-6.78-71.36,8.78-105.09-4.87-32.68-13-69.48-5.38-101.76-20.46C229,981.3,201,1020.79,175.66,1002.9c-13.09-14.41-5.91-34.91-7.52-52.23-.11-10.74-18.45-7.24-17.75-18.53-.18-11.62,13.67-9.92,21.33-12.71,8-9.45,12.07-26.72-1.22-33.61-9.51-9.8,11.62-12.12,13.31-20.38,3.05-26.84,7.36-53.55,10.83-80.35,1.66-23.15,35.33-28.35,35-52.1-6.44-2.34-20.54,1.54-19.22-9.25.81-9.22,14-5.35,18-11.14,1.26-41.61,24.93-80.81,53.77-110.29,19.14-22.31,3.42-65.21,36.33-77.53,33.77-4,30.06,39.13,54.11,51.14,14.82,12.8,45.9,2.88,42.24-19.09-7.85-26.36-28.12-51.93-19-80.82,7.39-13.65,26.13-6.25,36.67-.5,30.94,21.31,59.14,47.63,77.6,80.74,24.49,11.58,39.36,35.37,61.75,50.53,14,30.21,46.63,50.61,49.86,86.31-3.08,18.22,15.26,28.66,19.67,45.14,9.07,21.33,36.51,7.35,49.25,24.25,10.21,12.28,26.09,32.22,43.77,22.78-18.45-27.58-43.15-50.42-62.91-77.09-46.22-40.07-62.56-103.19-104-147.46C525.35,521.51,489.4,475.64,465.75,423c-9.92-24.94,9.3-50.53,28.89-64.49,38.87-25.1,84.2-46.46,131.55-44,17.21-.48,26.32-24.44,4.64-26.34.44-10,22-5.34,24.65-18.49,28.41-42.54,84.3-23.34,126.21-22.84,27.5,3.83,48.19-18.14,62-38.85,6-8.39-16.44-23.79.14-23.09,18.56,4.14,33.3-12,51.48-9.84,22.84,2.55,34.21,26.08,36.53,46.35,19.73,25,37.42-22,60.09-7.58,14.77,12.26,9.67,34.15,7.91,50.8-9.4,55.91.81,112.5-4,168.56.93,68.27,5.38,136.89,2.46,204.71,5.33,28.39-4.47,64.28,10,87.87,25.28-93.58,15.09-189.07,19.88-284.63,3.83-41.94,48.83-81.14,24.22-123.3-14.08-30.62-1.3-63.3-.28-94.86,5.34-24.74,15.59-52,43.42-58a175.9,175.9,0,0,1,120.73,16c23.33,17.08,41.83,40.32,59.45,62.6,28,12.11,23.19-36,49.68-30.53,30.5,2.76,56.38,26.26,73.26,50.22,29.26,16.15,67.47,16.26,89.09,44.36,31.35,11.45,10.83,50.11,29.61,70.84,12.69,17.76,47.07,1.28,52.8,25.9-8.61,47.73-50.61,77.35-82.19,110.11-17.06,20.19-49.55,15.63-65.23,37.66-.33,20.63,2.8,45-14.93,60.06-38.47,29.5-73.7,63.8-109.79,95.35-10.71,22.25-49.78,34-40.13,62.46,47.5-7.83,67.75-58,100.37-87.35,33.59-21.78,64.65-49.11,83.47-85.08,15.3-20,36.41-35.12,48.6-57.65,19-25.93,54.4,11.26,74.37-12.59,18.78-19.61,29.61-54.4,59.53-58.28,32-3.45,28.7,52.83,61,42,16.73-10.83,45.68-21.83,55.6,3.33,1.82,35.31,10.43,73.68,35.32,100.39,27.71,10.44,34,43.14,32.93,69.4,11,28,8,57.75,6,86.84,5.53,19.82,19.65-7.12,32-2.69,17.42,2.51,14.37,24.13,21.5,36,12.15,19.82,8,45.39-3.38,64.51-7,9.38-23.87,18.32-15.82,32.07,11,19.3,25.08,48.54,7.58,67.78-25.29,21.87-60.88,23.27-92.65,24.62-109.38,8.53-220.25,3.5-327.84,28.21-10.63,3.31-28.08,1.69-32.74,13,28.82,11.28,59.7,7.25,89.75,10.46,18.22.78,30.52,21.16,49.69,16.79,24.32-7.25,46.58-20.69,71-27.46,69.5-12,139.93-4.2,209.77-11.47,18.58-3.42,39.28,7.83,46.91,24.95-2.16,30.07-12.55,59.1-21.38,87.93,1.89,30.56,38.54,57.21,22.31,89.75C1858.23,1268.52,1803.12,1280.3,1793.31,1325.13Z"/></g><path id="Cheese" class="cls-2" d="M1095.62,165a175.9,175.9,0,0,1,120.73,16c23.33,17.08,41.83,40.32,59.45,62.6,28,12.11,23.19-36,49.68-30.53,30.5,2.76,56.38,26.26,73.26,50.22,29.26,16.15,67.47,16.26,89.09,44.36,31.35,11.45,10.83,50.11,29.61,70.84,12.69,17.76,47.07,1.28,52.8,25.9-8.61,47.73-50.61,77.35-82.19,110.11-17.06,20.19-49.55,15.63-65.23,37.66-.33,20.63,2.8,45-14.93,60.06-38.47,29.5-73.7,63.8-109.79,95.35-10.71,22.25-49.78,34-40.13,62.46,47.5-7.83,67.75-58,100.37-87.35,33.59-21.78,64.65-49.11,83.47-85.08,15.3-20,36.41-35.12,48.6-57.65,19-25.93,54.4,11.26,74.37-12.59,18.78-19.61,29.61-54.4,59.53-58.28,32-3.45,28.7,52.83,61,42,16.73-10.83,45.68-21.83,55.6,3.33,1.82,35.31,10.43,73.68,35.32,100.39,27.71,10.44,34,43.14,32.93,69.4,11,28,8,57.75,6,86.84,5.53,19.82,19.65-7.12,32-2.69,17.42,2.51,14.37,24.13,21.5,36,12.15,19.82,8,45.39-3.38,64.51-7,9.38-23.87,18.32-15.82,32.07,11,19.3,25.08,48.54,7.58,67.78-25.29,21.87-60.88,23.27-92.65,24.62-109.38,8.53-220.25,3.5-327.84,28.21-10.63,3.31-28.08,1.69-32.74,13,28.82,11.28,59.7,7.25,89.75,10.46,18.22.78,30.52,21.16,49.69,16.79,24.32-7.25,46.58-20.69,71-27.46,69.5-12,139.93-4.2,209.77-11.47,18.58-3.42,39.28,7.83,46.91,24.95-2.16,30.07-12.55,59.1-21.38,87.93,1.89,30.56,38.54,57.21,22.31,89.75-13.83,43-68.94,54.83-78.75,99.66-1.23,20.71,25.59,30.79,24.87,51.67-.91,22.32-18.52,38.83-35.27,51.29-21.85,11.8-47.63,5.65-71.15,9.65-15.51,1.89-27.89,17.93-24.83,33.44,5.53,30.22,2.42,63.23-12.69,90.33-26.36,36.45-72.87,5.68-89.38-24.21-16.32-31.47-61.13-28.8-76.64-60.71-32.22-35.41-59.72-75.63-96.52-106.67-23.54-13.85-53-18.86-71.83-40.23-47.09-63.74-112.36-111.68-174.36-160-16.4-48.87-65.58-81.07-116.53-79.93-41.35-3.46-79.78,17.66-111.09,42.63-43.72,31.21-40.82,95.43-20.32,139.62,23.8,55.82,96.09,84.71,151.48,59.32,47.53-18,93.12-58.87,96.21-112.46,1.2-6.05,3.06-17.77,11.55-12.26,24.09,18.37,40.49,47.2,70.29,57.65,44.83,30.79,66.76,83.37,108.4,117.48,14.39,16.11,40.78,9.27,54.32,26.94,15.57,10.91,15.61,34.13,34.15,41.54,19.77,18.78,30.89,46.2,54.5,61.23,16.52,6.57,36.92,5.74,49.45,20.23,23.29,19.8,54.29,49.58,40.46,83.06-11.18,15.47-22.72,30.82-25.08,50.49-10.35,29.17-47.93,17.25-70,28.3-27.39,22.68-20.39,66.33-49.51,87.87-44.56,31-100.76,35.53-149.45,57.28-24.7,8.38-50.79,24-77.51,16.09-21-5.51-28.26-27.92-40-43.28-20.64-9.22-31.51,16.87-47.09,25.09-17.8,15.51-48.82,20.69-65.12.52-19.88-32.43-7.12-70.92-9.11-106.25,1.57-56.43-30.09-112.15-12-168.23,5.94-13.63-3.4-25.88-8.39-37.87-2.28-28.21,1.89-57-3.83-85-1.9-13.71,2-33.11-13.42-40.21-13.13,1.94-7.25,19.34-8,28.7-3.6,27.25,4,55.14-3.77,81.94-2.38,12.67-7.35,26.49-1.86,39,19.83,35.37-.38,75.9,3,113.75-6.44,39.66,27.35,76.85,9.71,115.38-2.19,11.6-6.54,26.24-20.66,27.21-24.34,1.23-37.07-26.17-59.56-31-10.77,17.29,8.8,45.87-12.57,57.67-27.33,12.06-58.13-1.71-80.89-17.6-16.95-12.77-41.45-7.35-56,6.44-23.79,30.15-68.67,15.47-96.54-1-42.12-25.57-89.91-43.88-124.37-80.39-17.68-20.39-33.63-46.16-61.65-53-23.33-3.81-59.43-23.13-42.16-51.21,27.89-21.55,54.11-45,82.36-66.41,23.19-20.68,34-50.77,53-74.77,23.75-39.6,61-68.4,87.82-105.61,12-14,31.23-19.84,41.83-35.46,13.15-22.11,37-33.65,54.36-51.89,24.06-18.49,39.51-45.58,63.84-63.7,9-7.7,24.23-18.09,19.9-31.39-21.56,14.21-42.56,30.09-58.73,50.51-17.95,24.93-49.63,35.12-67.65,60-49.49,43.28-88.46,98.8-147.21,131-42.68,19.34-56,73.42-101.61,88-28.77,10.9-18.37,55.75-49.91,62.17-14.89-.6-26.73-12.59-37.5-21.85-12.88-14.16-34.38-17.58-44.5-34.64-19.64-27.73-9.16-66.37-30.9-93-12-7.68-29.18,4.66-40.82-5.72-12.38-13-6.08-32-9.5-47.79a170.09,170.09,0,0,0-43.07-73.45c-10.23-17.91-13.57-38.75-20.46-58-6.4,3.56-19.51,8.11-19.11-3.9,6.23-5.75,13.72.36,20.45,1.58,18.41-17.44,6.82-44.21,10.5-66,6.71-32.78-11.53-64.21-32.73-87.72-15.62-14.51-21.42-41.14-7.71-58.58,22.18-8.47,43.16,15.74,65.56,9.51,12.12-10.94-18-24.79-3.08-33.74,31,3.54,56.67,39.43,89.68,27.84,13-3.07,45.7-15.76,45.33,4.26-43.82,12.92-78.27,50.24-87.84,94.86-4.6,45.79,18.28,95.34,59.51,117.4,43.68,26.29,100.48,27.72,145.7,4.18,57.88-25.82,87.91-101.66,59.35-159.14-18.26-31.93-46-67.38-86.33-67.45-7.93-.64-18.06-2.63-21.14-11.1,5.46-3.81,25.72-10.37,12.05-15.75-34.66-6.78-71.36,8.78-105.09-4.87-32.68-13-69.48-5.38-101.76-20.46C229,981.3,201,1020.79,175.66,1002.9c-13.09-14.41-5.91-34.91-7.52-52.23-.11-10.74-18.45-7.24-17.75-18.53-.18-11.62,13.67-9.92,21.33-12.71,8-9.45,12.07-26.72-1.22-33.61-9.51-9.8,11.62-12.12,13.31-20.38,3.05-26.84,7.36-53.55,10.83-80.35,1.66-23.15,35.33-28.35,35-52.1-6.44-2.34-20.54,1.54-19.22-9.25.81-9.22,14-5.35,18-11.14,1.26-41.61,24.93-80.81,53.77-110.29,19.14-22.31,3.42-65.21,36.33-77.53,33.77-4,30.06,39.13,54.11,51.14,14.82,12.8,45.9,2.88,42.24-19.09-7.85-26.36-28.12-51.93-19-80.82,7.39-13.65,26.13-6.25,36.67-.5,30.94,21.31,59.14,47.63,77.6,80.74,24.49,11.58,39.36,35.37,61.75,50.53,14,30.21,46.63,50.61,49.86,86.31-3.08,18.22,15.26,28.66,19.67,45.14,9.07,21.33,36.51,7.35,49.25,24.25,10.21,12.28,26.09,32.22,43.77,22.78-18.45-27.58-43.15-50.42-62.91-77.09-46.22-40.07-62.56-103.19-104-147.46C525.35,521.51,489.4,475.64,465.75,423c-9.92-24.94,9.3-50.53,28.89-64.49,38.87-25.1,84.2-46.46,131.55-44,17.21-.48,26.32-24.44,4.64-26.34.44-10,22-5.34,24.65-18.49,28.41-42.54,84.3-23.34,126.21-22.84,27.5,3.83,48.19-18.14,62-38.85,6-8.39-16.44-23.79.14-23.09,18.56,4.14,33.3-12,51.48-9.84,22.84,2.55,34.21,26.08,36.53,46.35,19.73,25,37.42-22,60.09-7.58,14.77,12.26,9.67,34.15,7.91,50.8-9.4,55.91.81,112.5-4,168.56.93,68.27,5.38,136.89,2.46,204.71,5.33,28.39-4.47,64.28,10,87.87,25.28-93.58,15.09-189.07,19.88-284.63,3.83-41.94,48.83-81.14,24.22-123.3-14.08-30.62-1.3-63.3-.28-94.86C1057.54,198.24,1067.79,171,1095.62,165Zm83.45,111.49c-22.47,3.42-39.65,19.09-54.83,34.75-29.06,22.11-12.18,68.08,14.82,84.26,52.15,26.09,119.82-39.37,94.54-92.84C1220.74,286.41,1200.94,272.06,1179.07,276.47Zm-421.46,6.27c-69.17,17.75-136.88,87-119.88,163,5.18,41.14,32.88,79.68,71.36,95.58,63.3,18.64,136.36-7.16,178.54-56.84C945.76,399.25,854.83,272.54,757.61,282.74ZM1392,342.47c-5.86,1.07-7.35,7.31-7.91,12.32-2.67,33.6-16,65.68-16.51,99.5,5,18.53,52.73,32.57,48.34,1.65,3.78-33.61-6.07-66.72-1.31-100.3C1416.18,343.23,1401.66,338.26,1392,342.47Zm-804.13,4.37c-25.8,21.3-48.1,47.35-66.14,75.45-3.7,14.71,18.21,44.88,32.22,26.28,20.8-25,31.52-56.24,52-81.5C616.48,355.74,599.75,339.65,587.84,346.84ZM1187,433.21c-42.9,1.43-76.78,36.19-90.93,74.48-14.16,39.91,2.24,85.05,31.52,113.79,41.4,31.11,98.88,64.42,150.46,37.23,32.35-21.16,62.85-50.69,74.86-88.34,3.56-28.45,1.89-61.29-20.14-82.56C1296.38,447.25,1240,431.94,1187,433.21ZM936,515.15c-29.59,14.78-56,35.84-83,54.71-13.09,8.4,1.53,27.81,13.79,20.06,25.41-11.65,51.4-22.15,76.82-33.81C959.59,548.63,952.78,511.88,936,515.15Zm666.88,28.57c-20.52,29.84-24.42,69.56-38.87,103.13-5.86,9.53-.23,30.36,12.63,18.22,21.1-29.15,30.42-65.37,48.77-96.39C1631.06,555.59,1614.43,542.85,1602.86,543.72ZM477.2,586.05c-11.43,27.87,1.53,61.42,4.58,91.05.66,13.46,21.24,12,22.05-.35.19-26.79,8.12-53.61,3.09-80.32C501,587.09,487.45,585.33,477.2,586.05Zm1007.73,40.77c-25.12,21.64-49.5,45.23-70.87,70.87-13.21,12.38,7.15,41.5,21.15,25,19.3-27.56,41.83-52.88,60.71-80.69C1502.55,634.63,1494.1,621.92,1484.93,626.82ZM763.26,638.05c-14,2.73-20.07,19.57-20.9,32.18,23.12,22.38,59.33,10.7,88.24,16.61,12.88,1.82,43.43-1,35.33-20C835.18,649.31,797.53,642.48,763.26,638.05ZM339.87,667.6c-58.07,12.78-93.39,74.79-94.53,131.14,1.26,71.09,79.89,125.88,147.48,108.14,27.85-7.38,48.08-29.12,67.4-49.12,26.49-23.65,40.13-61.71,34.85-96.69C476.31,697.19,403.27,660.83,339.87,667.6Zm760.39,13.85c-21.87,26.86-7.11,69.1-14.6,101.93-8.72,25.53,46.16,34.27,40.46,6-1.7-34.21-5.34-68.21-10-102.15C1115.35,679.77,1105.74,678.64,1100.26,681.45Zm566.17,15.43c-38.54,2.92-70,31.93-88.69,64-21.27,31.7-40.2,73.14-24,111,34.73,72.62,129.67,100.43,203.2,76.19,27.32-8.52,52.69-31,56-60.66,11.39-46.61-12.18-91.57-36.32-129.82C1750.13,724.19,1711.24,694.46,1666.43,696.88Zm-775.3,51.67c-12.28,4.57-34,23.39-15.45,34,26.18,19.17,52.79,38,82.34,51.64,7.28-4.14,12.71-15.22,6.6-22.47-15.3-18.88-36.55-31.85-51.75-50.85C907.28,754.9,900.24,746.35,891.13,748.55Zm-323.08,3.78c-39.89,3.77-69.83,51.84-47.92,87.85,32.2,56,133.48-2.4,105.26-58.36C617.14,759.31,590.31,749.83,568.05,752.33Zm740.9,18a161.05,161.05,0,0,0-118.59,110.06c-14.56,34.19-4.27,77.07,23.29,101.78,54,38.62,133.76,34.77,183.39-9.44,47.07-49,37.52-132.91-7.83-179.7C1368,773.52,1337.07,765.48,1309,770.31ZM804,816.36C762.53,825,730.85,859,716.44,897.68c-16.42,32.43-26,75.25-3.17,107,66.83,93.81,240.81,24.46,237.37-86C931.12,859.25,870.24,804.87,804,816.36Zm673.21,25.2c-19.46,9.8-9.17,31.87-4.14,47.22,7.66,20.39,7.52,43.84,18.93,62.56,11.94,8.34,39.24,6.33,43.17-9.45-12-30.19-28.22-58.81-42.1-88.27C1489.81,848.07,1484.43,839.62,1477.18,841.56ZM469.23,884.68c-9.67,9-27.92,22.45-20.85,36.78,28.9,8.71,57.54,19.56,87,27,13,3.91,22.88-15,12-23.34C525.33,905,494.93,898.32,469.23,884.68Zm574.43,3c-38.78,8.08-62.91,58.93-38.28,91.9,30.64,36.32,90.67,11,106.1-27.83C1123.47,912.45,1081.29,877.37,1043.66,887.66ZM641.7,993c-32.84,7.68-65.52,17.37-97.45,28.12-19.67,7-5.34,33.38,11.56,31,27.87-2.92,56.78-1,83.82-9C654.27,1034.66,661.54,995.65,641.7,993ZM1158,1034.79c-26.82-4.31-51.1,13.27-45.45,42.08,35.39,6.46,70.55-11.31,105-18.43,12.8-.73,16.34-18.14,3.46-22.14C1200.61,1031.33,1178.89,1034.27,1158,1034.79Zm311.32,44.44c-11.68,6.52-35.22,33.46-12.15,38.91,31.85,6.6,64.46,8.67,96.58,13.66,15.38,2,20.06-23.44,4.53-26.52C1529,1096.13,1499.83,1081.82,1469.33,1079.23Zm297.82-.09c-29.44,17.19-57.38,38.21-84.07,59.71-12.47,10.16,4.31,25.09,16,18.57,29.49-12,59.13-25,85.8-42.58C1790.55,1103.46,1785.27,1074.71,1767.15,1079.14Zm-423.58,12c-45.55,11.21-72.91,69.29-44.85,109.42,28,43.12,103.6,29.47,113.81-21.63C1435.62,1135.91,1391.93,1076.49,1343.57,1091.15Zm-558.75,21.44c-30.65,9.88-64.57,14.62-91.76,32.34-1.84,13.46-6,43.49,13.29,44.65,34.42-13.63,66.39-33.17,99.17-50.3C821.47,1126.9,800.74,1104.8,784.82,1112.59Zm808.28,53.69c-52.49,2.47-98.17,39.22-120.25,85.57-17.87,37-6.75,81,14.29,114.2,21.43,38.43,57.63,72.11,102,79.77,82.15-1.83,157.11-73.56,161.23-155.72C1747.07,1212,1667.15,1158,1593.1,1166.28Zm-978.63,38.77a17.34,17.34,0,0,0-11.92,18.26c0,30.63-5,62.21,1,92.24,10.44,7,33.53,14.28,41,.78-1.47-32.36-10.7-63.88-15.05-95.94C628.43,1213.23,622.84,1203.29,614.47,1205.05Zm-98.61,90.78c-34.85,7.5-72.39,46.1-55.51,83.27,13.39,49.76,101.84,49.57,108.61-5.22C588.09,1338,556.87,1289.7,515.86,1295.83Zm698.17,6.09c-26.14,7.93-54.53,10.58-78.61,24-12.86,7-2,24.37,10.21,22.7,26.59-.69,53.14-5.8,79.33-10.17C1247.45,1332.59,1239.93,1288.36,1214,1301.92Zm-357.92,16.94c-45.24,6.52-89,61.85-62,105.67,13,24.56,47.6,31.06,71.13,18.55,35-16.4,62.51-59.88,43.32-97.84C896,1330.12,877.34,1314.14,856.11,1318.86Zm-464,42.82c-6.62,1.89-10.83,8.49-10.83,15.24-.68,31.64-3.95,63.49-1.86,95,8.63,10.67,29.82,13.48,40.69,6.83,2.51-32.07-8.41-64.13-12.69-96C406.2,1374.46,402.78,1360.17,392.11,1361.68Zm748.61,42.58c-27.35,11.22-48.83,32.69-72.66,49.65-15.93,9.07-6.48,36.3,7.62,41.17,30.79-13.64,45.08-48.31,71.94-67.8C1160,1420.7,1156.25,1399.16,1140.72,1404.26Zm102.5,23.75c-58.85,9.9-107,57.84-121.07,115.32-17,50.57,20.93,100.43,61.83,126.15,59.84,36.82,153.32,56.6,203.1-6.69,38-68.54,18.87-165.14-42-214.65C1315.66,1428.73,1277.72,1423.25,1243.22,1428Zm-410.05,55.5c-35.1,1.09-72.23,9-99.36,32.69C695,1553.83,684.42,1619.56,713.42,1666c16.52,23.2,42.49,37.77,68.54,47.8,48.1,17.72,100.93-2.78,138.43-34.09,48.42-37.21,62.35-118.16,15-162.12C907.53,1493.49,868.7,1486.47,833.17,1483.51Zm636.06,38.66c-28.33,4.3-48.52,32.22-50.07,59.76-.73,37.89,42.93,66.43,77.67,55.6C1549,1613.63,1533,1512.54,1469.23,1522.17ZM655.31,1550c-27.71,10.62-49.86,31.25-74.15,47.62-10.59,12.31,3,48.65,22.07,35.58,24.17-15.51,40-40.07,63.3-56.53C677.9,1568,668.33,1548.53,655.31,1550Zm471.6,146.3c-12.18-1-16.9,15-6.57,21.22,22.26,14.15,47.45,23.65,71.8,33.43,12-3.59,24.19-18.06,23.17-31C1187.58,1707.89,1156.91,1700.42,1126.91,1696.26Z"/><g id="Olives"><path d="M1179.07,276.47c21.87-4.41,41.67,9.94,54.53,26.17,25.28,53.47-42.39,118.93-94.54,92.84-27-16.18-43.88-62.15-14.82-84.26C1139.42,295.56,1156.6,279.89,1179.07,276.47Zm15.57,24.25c-25,3.44-40.17,41.68-18.43,57.38C1212.64,372.12,1240.35,302.85,1194.64,300.72Z"/><path d="M568.05,752.33c22.26-2.5,49.09,7,57.34,29.49,28.22,56-73.06,114.33-105.26,58.36C498.22,804.17,528.16,756.1,568.05,752.33Zm-9.24,30.22C532,793.89,536.88,839,568,840,602.51,836.78,589.87,775,558.81,782.55Z"/><path d="M1043.66,887.66c37.63-10.29,79.81,24.79,67.82,64.07-15.43,38.83-75.46,64.15-106.1,27.83C980.75,946.59,1004.88,895.74,1043.66,887.66Zm.69,30.54c-10,3.83-20.28,11.7-20.88,23.24-4.49,23.65,33.59,43.84,46.2,19.24C1086.18,943.14,1069.46,908,1044.35,918.2Z"/><path d="M1343.57,1091.15c48.36-14.66,92,44.76,69,87.79-10.21,51.1-85.83,64.75-113.81,21.63C1270.66,1160.44,1298,1102.36,1343.57,1091.15Zm11.91,35.52c-34.77,8.95-22.18,65.89,12.55,58.62C1403.65,1177.07,1393,1118.63,1355.48,1126.67Z"/><path d="M515.86,1295.83c41-6.13,72.23,42.18,53.1,78.05-6.77,54.79-95.22,55-108.61,5.22C443.47,1341.93,481,1303.33,515.86,1295.83Zm5.95,30.11c-30,4.8-27.84,54.15,3,54.5C558.09,1380.24,554.5,1323.14,521.81,1325.94Z"/><path d="M856.11,1318.86c21.23-4.72,39.91,11.26,52.5,26.38,19.19,38-8.35,81.44-43.32,97.84-23.53,12.51-58.13,6-71.13-18.55C767.11,1380.71,810.87,1325.38,856.11,1318.86Zm-1.43,30.44c-18.07,8.59-21.8,38.18-7.39,51.69,20.48,7.47,48.35-10.44,44.77-33.72C893.74,1347.64,868.54,1345.41,854.68,1349.3Z"/><path d="M1469.23,1522.17c63.78-9.63,79.74,91.46,27.6,115.36-34.74,10.83-78.4-17.71-77.67-55.6C1420.71,1554.39,1440.9,1526.47,1469.23,1522.17Zm-1.49,35.93c-34.83,6.85-16.26,65.41,17,53.3C1519.71,1603.32,1499.71,1547.82,1467.74,1558.1Z"/></g><g id="Salami"><path class="cls-4" d="M757.61,282.74c97.22-10.2,188.15,116.51,130,201.76C845.45,534.18,772.39,560,709.09,541.34c-38.48-15.9-66.18-54.44-71.36-95.58C620.73,369.74,688.44,300.49,757.61,282.74ZM746.4,333.85c-14.74,4.12-24.91,22.51-17.5,36.53C750.79,384.83,777,332.38,746.4,333.85ZM789,376.26c-8.94,3.77-7,30.54,7.31,24.85C808.49,396.53,802.44,372.41,789,376.26Zm-58.19,65.83c-15.45,3.75-16.19,31.83,1.74,32.1C755.41,478.72,754.65,433.17,730.85,442.09ZM810,442c-20.67,7.6-5,41.85,15.47,32.7C836.88,464,829.44,436.85,810,442Z"/><path class="cls-4" d="M1187,433.21c53-1.27,109.38,14,145.77,54.6,22,21.27,23.7,54.11,20.14,82.56-12,37.65-42.51,67.18-74.86,88.34-51.58,27.19-109.06-6.12-150.46-37.23-29.28-28.74-45.68-73.88-31.52-113.79C1110.22,469.4,1144.1,434.64,1187,433.21Zm-4.12,53.4c-15.51-1.43-19.17,25.68-2.23,25.18C1197,514.65,1201.19,484.23,1182.88,486.61Zm77.86,3.81c-16.54,7.23,1.18,35.52,15.64,25.16C1289.59,505.5,1276.32,482.7,1260.74,490.42Zm-98.63,81.18c-17.87,7.68-4.89,41.39,13.26,38.64C1186.4,598.75,1183,566.15,1162.11,571.6Zm96.58,4.2c-15.53,5.22-27,23.36-20,39.14,11.24,7.64,24.71-4.2,34.83-9.46C1289.65,596.41,1275.07,570.75,1258.69,575.8Z"/><path class="cls-4" d="M339.87,667.6c63.4-6.77,136.44,29.59,155.2,93.47,5.28,35-8.36,73-34.85,96.69-19.32,20-39.55,41.74-67.4,49.12-67.59,17.74-146.22-37-147.48-108.14C246.48,742.39,281.8,680.38,339.87,667.6Zm-17,41.41c-14.29,4.44-6.65,26.55,7,22.12C342.89,726.86,335.21,706.11,322.85,709Zm34.76,53.64c-22.8,13.79-2.73,58.5,23.22,47.11C411.14,801.2,380.81,754.74,357.61,762.65ZM286.19,794c-16,13.31.15,46.55,20.13,43.38C319.84,823.2,310.36,787.21,286.19,794Zm113.86,38.87c-10.13,1.94-17.17,17.95-6.9,24.12,10.44,3.11,22.41-1.47,30.31-8.55C424.63,834.83,411.87,828.37,400.05,832.83Z"/><path class="cls-4" d="M1666.43,696.88c44.81-2.42,83.7,27.31,110.21,60.73,24.14,38.25,47.71,83.21,36.32,129.82-3.29,29.68-28.66,52.14-56,60.66-73.53,24.24-168.47-3.57-203.2-76.19-16.24-37.83,2.69-79.27,24-111C1596.38,728.81,1627.89,699.8,1666.43,696.88Zm35.1,75.85c-13.5.11-9.49,23.32,3.29,21.46C1722.57,798.31,1718.3,765.9,1701.53,772.73ZM1626,778.55c-14.48-1.18-16.78,24.73-.71,21.74C1641.89,804.93,1642.66,774.8,1626,778.55Zm27.27,65.77c-16,6.36-22.9,29-14.76,43.65,10.81,7.14,25-.27,34.27-7C1688.4,867.61,1674.65,836.18,1653.28,844.32Zm92.83,19.24c-12.52,7-14.7,28.55-6.91,40C1761.77,908.41,1777.9,858.32,1746.11,863.56Z"/><path class="cls-4" d="M1309,770.31c28.12-4.83,59.08,3.21,80.26,22.7,45.35,46.79,54.9,130.68,7.83,179.7-49.63,44.21-129.36,48.06-183.39,9.44-27.56-24.71-37.85-67.59-23.29-101.78A161.05,161.05,0,0,1,1309,770.31Zm43,60.55c-14.33,6.56-1.57,27.52,11.35,25.24C1371.51,847.71,1365.48,826.63,1351.9,830.86ZM1272.53,854c-8.64,5-6.09,25.82,6.68,23.56C1298.76,879.58,1290.85,843.92,1272.53,854Zm81.23,56.24c-12.59,4.95-9.88,29.63,6,25C1378.69,935.83,1370.8,901.12,1353.76,910.21Zm-85.38,20.67c-10.7,18.43,12.43,36,29.28,27.48C1302.55,940.73,1284.68,927.48,1268.38,930.88Z"/><path class="cls-4" d="M804,816.36c66.27-11.49,127.15,42.89,146.67,102.38,3.44,110.42-170.54,179.77-237.37,86-22.86-31.77-13.25-74.59,3.17-107C730.85,859,762.53,825,804,816.36Zm-26.69,49.2c-14.06,3.52-14.56,30.28,1.61,30.86C799.81,901.72,796.85,859.72,777.28,865.56ZM872,914c-8.35,2.49-17.58,9.94-17.31,19.3,5.09,12.74,25.57,15.35,35,6C897.76,926.67,888.46,907.44,872,914ZM753.77,950.82c-18.4,5.34-16.23,42.82,5.16,40.9C784.9,994,779.49,943.45,753.77,950.82ZM816,991.41c-11.53,2.11-15.71,26.21-.91,25.34C834.16,1021.52,836.59,981.61,816,991.41Z"/><path class="cls-4" d="M382.69,1056.8c29.34-11.45,59.91-14.31,90.39-10.15,40.28.07,68.07,35.52,86.33,67.45,28.56,57.48-1.47,133.32-59.35,159.14-45.22,23.54-102,22.11-145.7-4.18-41.23-22.06-64.11-71.61-59.51-117.4C304.42,1107,338.87,1069.72,382.69,1056.8Zm13.63,44.42c-14.71,14.08-20.54,52.89,5,58.27C429.93,1154.6,431.64,1094.61,396.32,1101.22Zm63.82,31.31c-16.17,7.74,2.44,30,15.92,19.61C487.49,1141.58,473.47,1125.8,460.14,1132.53ZM353.49,1177c-22.49,9.59,6.19,44.36,22.86,30C385.84,1192.48,369.11,1174.26,353.49,1177Zm113.83,21.52c-20.31,1.49-38.78,20.12-29.15,41C460.1,1268.08,513.69,1198,467.32,1198.53Z"/><path class="cls-4" d="M937.89,1132.4c31.31-25,69.74-46.09,111.09-42.63,51-1.14,100.13,31.06,116.53,79.93,13.71,15.61-5.86,32.1-.25,49.18-3.09,53.59-48.68,94.49-96.21,112.46-55.39,25.39-127.68-3.5-151.48-59.32C897.07,1227.83,894.17,1163.61,937.89,1132.4Zm110.14,7.81c-13.48,2.49-10.64,28.45,4.74,23.53C1074.31,1167.5,1067.21,1131.47,1048,1140.21Zm-74.28,64.13c-19.23-.76-12.15,31.87,4.77,28.33C994.44,1229.15,990.3,1202.44,973.75,1204.34Zm97.46,15.25c-21.48,3.33-6.28,38.59,11.78,27C1099.86,1238.37,1089.32,1212.28,1071.21,1219.59Zm-62.11,46.3c-15.07.37-15.67,27.29.44,24.85C1024.59,1290.36,1025.23,1263.42,1009.1,1265.89Z"/><path class="cls-4" d="M1593.1,1166.28c74.05-8.32,154,45.73,157.28,123.82-4.12,82.16-79.08,153.89-161.23,155.72-44.38-7.66-80.58-41.34-102-79.77-21-33.23-32.16-77.2-14.29-114.2C1494.93,1205.5,1540.61,1168.75,1593.1,1166.28Zm48.79,47.42c-15.84,10.21,6.34,30.82,19.88,21.81C1671.92,1223.17,1653.8,1210.2,1641.89,1213.7Zm-64.69,6.11c-16.67-5.34-22.22,23-4,21.25C1587.82,1246.3,1590.72,1220.74,1577.2,1219.81Zm-13,81c-13.85.68-29,20.25-15.4,30.67C1567.55,1344,1591,1301.22,1564.19,1300.8Zm87.25,7.75c-16.55,1.11-26.78,34.23-5,33C1665.5,1343.6,1675.52,1303.53,1651.44,1308.55Z"/><path class="cls-4" d="M1243.22,1428c34.5-4.76,72.44.72,101.87,20.13,60.86,49.51,80,146.11,42,214.65-49.78,63.29-143.26,43.51-203.1,6.69-40.9-25.72-78.79-75.58-61.83-126.15C1136.23,1485.85,1184.37,1437.91,1243.22,1428Zm84.87,71.86c-15.95,1.17-12.06,29.61,3.22,28.72C1351,1529.19,1347.05,1495.45,1328.09,1499.87Zm-109.88,4.07c-12.61,2.41-21.25,26.72-4.06,28.62C1235.62,1536.89,1246.83,1493.28,1218.21,1503.94Zm-2,71.24c-17.52,6.34-1.32,29.51,12.8,22.65C1238,1589.16,1228.58,1572.05,1216.2,1575.18Zm92.88,21.41c-12.89,5.76-1.43,31.12,12.38,21.89S1325.29,1588.31,1309.08,1596.59Z"/><path class="cls-4" d="M833.17,1483.51c35.53,3,74.36,10,102.21,34.06,47.36,44,33.43,124.91-15,162.12-37.5,31.31-90.33,51.81-138.43,34.09-26.05-10-52-24.6-68.54-47.8-29-46.42-18.39-112.15,20.39-149.78C760.94,1492.55,798.07,1484.6,833.17,1483.51Zm26.75,63c-19.9,3.43-4,32,11.23,24.08C882.5,1562,874,1543.39,859.92,1546.46Zm-80.65,11.68c-12.39,2.09-23.2,16.87-19.41,28.74C776.6,1603.44,807.88,1553.08,779.27,1558.14Zm79.08,44.33C842.49,1608.58,833.83,1630,836,1646,856,1665.55,889.66,1605.18,858.35,1602.47Zm-85,42.06c-11.47,11.08,12.62,36.2,23.4,23.59C796.39,1656.42,785.31,1644.4,773.34,1644.53Z"/></g><g id="Oregano"><path class="cls-5" d="M1392,342.47c9.69-4.21,24.21.76,22.61,13.17-4.76,33.58,5.09,66.69,1.31,100.3,4.39,30.92-43.3,16.88-48.34-1.65.54-33.82,13.84-65.9,16.51-99.5C1384.62,349.78,1386.11,343.54,1392,342.47Z"/><path class="cls-5" d="M587.84,346.84c11.91-7.19,28.64,8.9,18.12,20.23-20.52,25.26-31.24,56.47-52,81.5-14,18.6-35.92-11.57-32.22-26.28C539.74,394.19,562,368.14,587.84,346.84Z"/><path class="cls-5" d="M936,515.15c16.8-3.27,23.61,33.48,7.64,41-25.42,11.66-51.41,22.16-76.82,33.81-12.26,7.75-26.88-11.66-13.79-20.06C880,551,906.39,529.93,936,515.15Z"/><path class="cls-5" d="M1602.86,543.72c11.57-.87,28.2,11.87,22.53,25-18.35,31-27.67,67.24-48.77,96.39-12.86,12.14-18.49-8.69-12.63-18.22C1578.44,613.28,1582.34,573.56,1602.86,543.72Z"/><path class="cls-5" d="M477.2,586.05c10.25-.72,23.77,1,29.72,10.38,5,26.71-2.9,53.53-3.09,80.32-.81,12.34-21.39,13.81-22.05.35C478.73,647.47,465.77,613.92,477.2,586.05Z"/><path class="cls-5" d="M1484.93,626.82c9.17-4.9,17.62,7.81,11,15.23-18.88,27.81-41.41,53.13-60.71,80.69-14,16.45-34.36-12.67-21.15-25C1435.43,672.05,1459.81,648.46,1484.93,626.82Z"/><path class="cls-5" d="M763.26,638.05c34.27,4.43,71.92,11.26,102.67,28.82,8.1,19-22.45,21.79-35.33,20-28.91-5.91-65.12,5.77-88.24-16.61C743.19,657.62,749.24,640.78,763.26,638.05Z"/><path class="cls-5" d="M1100.26,681.45c5.48-2.81,15.09-1.68,15.86,5.74,4.66,33.94,8.3,67.94,10,102.15,5.7,28.31-49.18,19.57-40.46-6C1093.15,750.55,1078.39,708.31,1100.26,681.45Z"/><path class="cls-5" d="M891.13,748.55c9.11-2.2,16.15,6.35,21.74,12.28,15.2,19,36.45,32,51.75,50.85,6.11,7.25.68,18.33-6.6,22.47-29.55-13.62-56.16-32.47-82.34-51.64C857.11,771.94,878.85,753.12,891.13,748.55Z"/><path class="cls-5" d="M1477.18,841.56c7.25-1.94,12.63,6.51,15.86,12.06,13.88,29.46,30.07,58.08,42.1,88.27-3.93,15.78-31.23,17.79-43.17,9.45-11.41-18.72-11.27-42.17-18.93-62.56C1468,873.43,1457.72,851.36,1477.18,841.56Z"/><path class="cls-5" d="M469.23,884.68c25.7,13.64,56.1,20.35,78.11,40.42,10.89,8.35,1,27.25-12,23.34-29.43-7.42-58.07-18.27-87-27C441.31,907.13,459.56,893.64,469.23,884.68Z"/><path class="cls-5" d="M641.7,993c19.84,2.69,12.57,41.7-2.07,50.07-27,8-56,6.11-83.82,9-16.9,2.4-31.23-24-11.56-31C576.18,1010.33,608.86,1000.64,641.7,993Z"/><path class="cls-5" d="M1158,1034.79c20.88-.52,42.6-3.46,63,1.51,12.88,4,9.34,21.41-3.46,22.14-34.48,7.12-69.64,24.89-105,18.43C1106.91,1048.06,1131.19,1030.48,1158,1034.79Z"/><path class="cls-5" d="M1469.33,1079.23c30.5,2.59,59.62,16.9,89,26,15.53,3.08,10.85,28.51-4.53,26.52-32.12-5-64.73-7.06-96.58-13.66C1434.11,1112.69,1457.65,1085.75,1469.33,1079.23Z"/><path class="cls-5" d="M1767.15,1079.14c18.12-4.43,23.4,24.32,17.71,35.7-26.67,17.59-56.31,30.59-85.8,42.58-11.67,6.52-28.45-8.41-16-18.57C1709.77,1117.35,1737.71,1096.33,1767.15,1079.14Z"/><path class="cls-5" d="M784.82,1112.59c15.92-7.79,36.65,14.31,20.7,26.69-32.78,17.13-64.75,36.67-99.17,50.3-19.27-1.16-15.13-31.19-13.29-44.65C720.25,1127.21,754.17,1122.47,784.82,1112.59Z"/><path class="cls-5" d="M614.47,1205.05c8.37-1.76,14,8.18,15.08,15.34,4.35,32.06,13.58,63.58,15.05,95.94-7.51,13.5-30.6,6.24-41-.78-6-30-1.06-61.61-1-92.24A17.34,17.34,0,0,1,614.47,1205.05Z"/><path class="cls-5" d="M1214,1301.92c25.9-13.56,33.42,30.67,10.93,36.55-26.19,4.37-52.74,9.48-79.33,10.17-12.2,1.67-23.07-15.7-10.21-22.7C1159.5,1312.5,1187.89,1309.85,1214,1301.92Z"/><path class="cls-5" d="M392.11,1361.68c10.67-1.51,14.09,12.78,15.31,21.1,4.28,31.87,15.2,63.93,12.69,96-10.87,6.65-32.06,3.84-40.69-6.83-2.09-31.54,1.18-63.39,1.86-95C381.28,1370.17,385.49,1363.57,392.11,1361.68Z"/><path class="cls-5" d="M1140.72,1404.26c15.53-5.1,19.32,16.44,6.9,23-26.86,19.49-41.15,54.16-71.94,67.8-14.1-4.87-23.55-32.1-7.62-41.17C1091.89,1437,1113.37,1415.48,1140.72,1404.26Z"/><path class="cls-5" d="M655.31,1550c13-1.43,22.59,18,11.22,26.67-23.27,16.46-39.13,41-63.3,56.53-19.09,13.07-32.66-23.27-22.07-35.58C605.45,1581.21,627.6,1560.58,655.31,1550Z"/><path class="cls-5" d="M1126.91,1696.26c30,4.16,60.67,11.63,88.4,23.67,1,12.92-11.14,27.39-23.17,31-24.35-9.78-49.54-19.28-71.8-33.43C1110,1711.27,1114.73,1695.3,1126.91,1696.26Z"/></g></svg>