<svg id="Decal" xmlns="http://www.w3.org/2000/svg" viewBox="0 0 2048 512"><defs><style>.cls-1{fill:#f4f4f4;}.cls-2{fill:#bcb4a5;stroke-linecap:round;}.cls-2,.cls-3{stroke:#000;stroke-linejoin:round;stroke-width:24px;}.cls-3{fill:none;}</style></defs><rect id="Background_Color" data-name="Background Color" class="cls-1" width="2048" height="512"/><path id="Colored_Part_Border" data-name="Colored Part &amp; Border" class="cls-2" d="M57.11,47.22S454,83.67,1024,83.67,1998,49,1998,49V465.22S1448.67,435,1024,435.67C555,436.4,54,457,54,457Z"/><g id="Lines"><line class="cls-3" x1="152.77" y1="60.82" x2="152.77" y2="453.68"/><line class="cls-3" x1="252.77" y1="60.82" x2="252.77" y2="450.16"/><line class="cls-3" x1="340.77" y1="69.22" x2="340.77" y2="447.45"/><line class="cls-3" x1="428.77" y1="75.89" x2="428.77" y2="435"/><line class="cls-3" x1="505.77" y1="78.61" x2="505.77" y2="439"/><line class="cls-3" x1="581.77" y1="75.89" x2="581.77" y2="447.45"/><line class="cls-3" x1="655.77" y1="78.61" x2="655.77" y2="439.86"/><line class="cls-3" x1="717.77" y1="81.71" x2="717.77" y2="435"/><line class="cls-3" x1="785.77" y1="78.61" x2="785.77" y2="439.86"/><line class="cls-3" x1="844.77" y1="81.71" x2="844.77" y2="435"/><line class="cls-3" x1="900.77" y1="78.61" x2="900.77" y2="439.86"/><line class="cls-3" x1="950.77" y1="81.71" x2="950.77" y2="435"/><line class="cls-3" x1="1000.77" y1="81.71" x2="1000.77" y2="435"/><line class="cls-3" x1="1895.23" y1="60.82" x2="1895.23" y2="453.68"/><line class="cls-3" x1="1795.23" y1="60.82" x2="1795.23" y2="450.16"/><line class="cls-3" x1="1707.23" y1="69.22" x2="1707.23" y2="447.45"/><line class="cls-3" x1="1619.23" y1="75.89" x2="1619.23" y2="435"/><line class="cls-3" x1="1542.23" y1="78.61" x2="1542.23" y2="439"/><line class="cls-3" x1="1466.23" y1="75.89" x2="1466.23" y2="447.45"/><line class="cls-3" x1="1392.23" y1="78.61" x2="1392.23" y2="439.86"/><line class="cls-3" x1="1330.23" y1="81.71" x2="1330.23" y2="435"/><line class="cls-3" x1="1262.23" y1="78.61" x2="1262.23" y2="439.86"/><line class="cls-3" x1="1203.23" y1="81.71" x2="1203.23" y2="435"/><line class="cls-3" x1="1147.23" y1="78.61" x2="1147.23" y2="439.86"/><line class="cls-3" x1="1097.23" y1="81.71" x2="1097.23" y2="435"/><line class="cls-3" x1="1047.23" y1="81.71" x2="1047.23" y2="435"/></g></svg>