<svg xmlns="http://www.w3.org/2000/svg" viewBox="0 0 2048 1024"><defs><style>.cls-1{fill:#00852b;}.cls-2{fill:#58ab41;}.cls-3{fill:#fff;}</style></defs><g id="Decal"><rect id="Background-2" data-name="Background" class="cls-1" width="2048" height="1024"/><g id="Surrounding_Stuff" data-name="Surrounding Stuff"><path class="cls-2" d="M96,512c0-187.23,330.69-342.83,766-374.22-96-8.92-191.62-23.7-279.76-37.33C470.94,83.25,365.87,67,286.71,67c-52.54,0-90,7-114.6,21.46-43,25.27-68.22,65.63-79.34,127-10.3,56.83-7.23,123.08-4,193.23,1.57,34,3.2,69.09,3.2,103.31s-1.63,69.34-3.2,103.31c-3.26,70.15-6.33,136.4,4,193.23,11.12,61.37,36.33,101.73,79.34,127C196.68,950,234.17,957,286.71,957c79.16,0,184.22-16.25,295.46-33.45,88.14-13.63,183.79-28.41,279.77-37.33C426.69,854.83,96,699.23,96,512Z"/><path class="cls-2" d="M1956,512c0-34.22,1.63-69.34,3.2-103.31,3.26-70.15,6.33-136.4-4-193.23-11.12-61.37-36.33-101.73-79.34-127C1851.32,74,1813.83,67,1761.29,67c-79.16,0-184.22,16.25-295.46,33.45-88.14,13.63-183.79,28.41-279.77,37.33C1621.31,169.17,1952,324.77,1952,512s-330.69,342.83-765.95,374.22c96,8.92,191.63,23.7,279.77,37.33,111.24,17.2,216.31,33.45,295.47,33.45h0c52.54,0,90-7,114.6-21.46,43-25.27,68.22-65.63,79.34-127,10.3-56.83,7.23-123.08,4-193.23C1957.63,581.34,1956,546.22,1956,512Z"/><path d="M1761.29,83c48.92,0,84.75,6.48,106.5,19.26a132,132,0,0,1,47.71,47.23c11.13,18.67,19,41.18,24,68.82,10,55.05,6.94,120.42,3.73,189.64C1941.64,442.1,1940,477.41,1940,512s1.64,69.9,3.22,104c3.21,69.22,6.24,134.59-3.73,189.64-5,27.64-12.86,50.15-24,68.82a132,132,0,0,1-47.71,47.23C1846,934.52,1810.21,941,1761.29,941c-77.93,0-182.41-16.16-293-33.26C1329.64,886.3,1172.52,862,1024,862s-305.65,24.3-444.27,45.74C469.11,924.84,364.64,941,286.71,941c-48.92,0-84.75-6.48-106.5-19.26a132,132,0,0,1-47.71-47.23c-11.13-18.67-19-41.18-24-68.82-10-55.05-6.94-120.42-3.73-189.64,1.58-34.15,3.22-69.46,3.22-104s-1.64-69.9-3.22-104c-3.21-69.22-6.24-134.59,3.73-189.64,5-27.64,12.86-50.15,24-68.82a132,132,0,0,1,47.71-47.23C202,89.48,237.79,83,286.71,83c77.93,0,182.41,16.16,293,33.26C718.35,137.7,875.47,162,1024,162s305.65-24.3,444.27-45.74c110.62-17.1,215.09-33.26,293-33.26m0-32c-178.48,0-471.51,79-737.29,79S465.19,51,286.71,51C235.07,51,193,57.61,164,74.67,34.67,150.67,76,340,76,512S34.67,873.33,164,949.33C193,966.39,235.09,973,286.71,973c178.48,0,471.51-79,737.29-79s558.81,79,737.29,79c51.64,0,93.68-6.61,122.71-23.67,129.33-76,88-265.33,88-437.33s41.33-361.33-88-437.33C1855,57.61,1812.91,51,1761.29,51Z"/><path d="M1024,164c123.45,0,243.15,9.89,355.76,29.39,108.22,18.75,205.22,45.5,288.31,79.52,40.45,16.57,77.08,34.73,108.86,54,31.47,19.08,58.35,39.32,79.88,60.18C1898.74,427.67,1920,469.7,1920,512s-21.26,84.33-63.19,124.92c-21.53,20.86-48.41,41.1-79.88,60.18-31.78,19.26-68.41,37.42-108.86,54-83.09,34-180.09,60.77-288.31,79.52C1267.15,850.11,1147.45,860,1024,860s-243.15-9.89-355.76-29.39C560,811.86,463,785.11,379.93,751.09c-40.45-16.57-77.08-34.73-108.86-54-31.47-19.08-58.35-39.32-79.89-60.18C149.26,596.33,128,554.3,128,512s21.26-84.33,63.18-124.92c21.54-20.86,48.42-41.1,79.89-60.18,31.78-19.26,68.41-37.42,108.86-54,83.09-34,180.09-60.77,288.31-79.52C780.85,173.89,900.55,164,1024,164m0-32C511.48,132,96,302.13,96,512s415.48,380,928,380,928-170.13,928-380-415.48-380-928-380Z"/></g><g id="Center_100" data-name="Center 100"><path class="cls-3" d="M601.17,689.1l.69-47.18,57.43-11.14A12,12,0,0,0,669,619.12l2-208A12,12,0,0,0,659,399l-.74,0-51.9,3.2,1.35-48.51,146.87-17.18c-.74,24.68-2.24,78.56-3.07,132.3-.66,42.73-.78,77.05-.34,102,.89,51.43,3.57,55,10.09,58.86,20.57,12,43.8,15.77,58,16.88l-2.61,44.34Z"/><path d="M742.18,350.07c-.79,28-2,73.32-2.67,118.58-.66,42.86-.78,77.31-.34,102.39.27,15.44.73,27.16,1.42,35.82.92,11.51,2.06,25.82,14.61,33.18,17.46,10.23,36.55,15,51.45,17.17l-1.27,21.6-192-1.61.36-25.35,47.86-9.29A24,24,0,0,0,681,619.23l2-208A24,24,0,0,0,659,387c-.49,0-1,0-1.47.05l-38.81,2.38.69-25,122.77-14.36M767,323,596,343l-2,72,65-4-2,208-67,13-1,69,239,2,4-68s-.66,0-1.86,0c-7.69,0-37.74-1-62.81-15.69C757.57,613.61,767,323,767,323Z"/><path class="cls-3" d="M976,695c-41.37,0-80.09-19.79-109-55.73-28.34-35.18-44-81.8-44-131.27s15.61-96.09,44-131.27c29-35.94,67.68-55.73,109-55.73s80.09,19.79,109,55.73c28.34,35.18,44,81.8,44,131.27s-15.61,96.09-44,131.27C1056.09,675.21,1017.37,695,976,695Zm0-307c-18.19,0-35.69,11.76-49.27,33.1C912.07,444.13,904,475,904,508s8.07,63.87,22.73,86.9C940.31,616.24,957.81,628,976,628s35.69-11.76,49.27-33.1c14.66-23,22.73-53.9,22.73-86.9s-8.07-63.87-22.73-86.9C1011.69,399.76,994.19,388,976,388Z"/><path d="M976,333c77.87,0,141,78.35,141,175s-63.13,175-141,175S835,604.65,835,508s63.13-175,141-175m0,307c46.39,0,84-59.1,84-132s-37.61-132-84-132-84,59.1-84,132,37.61,132,84,132m0-331a140.82,140.82,0,0,0-66,16.5c-19.71,10.35-37.33,25.05-52.35,43.7C827.55,406.5,811,455.8,811,508s16.55,101.5,46.61,138.8c15,18.65,32.64,33.35,52.35,43.7a140.41,140.41,0,0,0,132.08,0c19.71-10.35,37.33-25,52.35-43.7C1124.45,609.5,1141,560.2,1141,508s-16.55-101.5-46.61-138.8c-15-18.65-32.64-33.35-52.35-43.7A140.82,140.82,0,0,0,976,309Zm0,307c-18.81,0-32.6-17.26-39.15-27.55C923.6,567.63,916,538.31,916,508s7.6-59.63,20.85-80.45C943.4,417.26,957.19,400,976,400s32.6,17.26,39.15,27.55C1028.4,448.37,1036,477.69,1036,508s-7.6,59.63-20.85,80.45C1008.6,598.74,994.81,616,976,616Z"/><path class="cls-3" d="M1328,695c-41.37,0-80.09-19.79-109-55.73-28.34-35.18-44-81.8-44-131.27s15.61-96.09,44-131.27c29-35.94,67.68-55.73,109-55.73s80.09,19.79,109,55.73c28.34,35.18,44,81.8,44,131.27s-15.61,96.09-44,131.27C1408.09,675.21,1369.37,695,1328,695Zm0-307c-18.19,0-35.69,11.76-49.27,33.1-14.66,23-22.73,53.9-22.73,86.9s8.07,63.87,22.73,86.9c13.58,21.34,31.08,33.1,49.27,33.1s35.69-11.76,49.27-33.1c14.66-23,22.73-53.9,22.73-86.9s-8.07-63.87-22.73-86.9C1363.69,399.76,1346.19,388,1328,388Z"/><path d="M1328,333c77.87,0,141,78.35,141,175s-63.13,175-141,175-141-78.35-141-175,63.13-175,141-175m0,307c46.39,0,84-59.1,84-132s-37.61-132-84-132-84,59.1-84,132,37.61,132,84,132m0-331a140.82,140.82,0,0,0-66,16.5c-19.71,10.35-37.33,25.05-52.35,43.7C1179.55,406.5,1163,455.8,1163,508s16.55,101.5,46.61,138.8c15,18.65,32.64,33.35,52.35,43.7a140.41,140.41,0,0,0,132.08,0c19.71-10.35,37.33-25,52.35-43.7C1476.45,609.5,1493,560.2,1493,508s-16.55-101.5-46.61-138.8c-15-18.65-32.64-33.35-52.35-43.7a140.82,140.82,0,0,0-66-16.5Zm0,307c-18.81,0-32.6-17.26-39.15-27.55C1275.6,567.63,1268,538.31,1268,508s7.6-59.63,20.85-80.45C1295.4,417.26,1309.19,400,1328,400s32.6,17.26,39.15,27.55C1380.4,448.37,1388,477.69,1388,508s-7.6,59.63-20.85,80.45C1360.6,598.74,1346.81,616,1328,616Z"/></g><g id="Corner_100" data-name="Corner 100"><path d="M201.5,202.61l46.68.38.31-5.18A35.29,35.29,0,0,1,236,193.69c-3-1.77-3.33-5.2-3.55-8-.17-2.08-.28-4.9-.34-8.6-.11-6-.08-14.29.08-24.57.17-10.87.45-21.75.65-28.46L203,127.54l-.16,6,9.43-.57h.36a5.84,5.84,0,0,1,4,1.58,5.7,5.7,0,0,1,1.82,4.24L218,188.7a5.79,5.79,0,0,1-4.73,5.59l-11.63,2.23Z"/><path d="M289.66,120c-18.93,0-34.28,18.8-34.28,42s15.35,42,34.28,42,34.27-18.8,34.27-42S308.59,120,289.66,120Zm0,73.68c-11.28,0-20.42-14.18-20.42-31.68s9.14-31.68,20.42-31.68S310.08,144.5,310.08,162,300.93,193.68,289.66,193.68Z"/><path d="M375.22,120C356.29,120,341,138.8,341,162s15.34,42,34.27,42,34.28-18.8,34.28-42S394.15,120,375.22,120Zm0,73.68C364,193.68,354.8,179.5,354.8,162s9.15-31.68,20.42-31.68S395.64,144.5,395.64,162,386.5,193.68,375.22,193.68Z"/><path d="M1638.5,202.61l46.68.38.31-5.18a35.29,35.29,0,0,1-12.51-4.12c-3-1.77-3.33-5.2-3.55-8-.17-2.08-.28-4.9-.34-8.6-.11-6-.08-14.29.08-24.57.17-10.87.45-21.75.65-28.46L1640,127.54l-.16,6,9.43-.57h.36a5.84,5.84,0,0,1,4,1.58,5.7,5.7,0,0,1,1.82,4.24L1655,188.7a5.79,5.79,0,0,1-4.73,5.59l-11.63,2.23Z"/><path d="M1726.66,120c-18.93,0-34.28,18.8-34.28,42s15.35,42,34.28,42,34.27-18.8,34.27-42S1745.59,120,1726.66,120Zm0,73.68c-11.28,0-20.42-14.18-20.42-31.68s9.14-31.68,20.42-31.68,20.42,14.18,20.42,31.68S1737.93,193.68,1726.66,193.68Z"/><path d="M1812.22,120c-18.93,0-34.27,18.8-34.27,42s15.34,42,34.27,42,34.28-18.8,34.28-42S1831.15,120,1812.22,120Zm0,73.68c-11.27,0-20.42-14.18-20.42-31.68s9.15-31.68,20.42-31.68,20.42,14.18,20.42,31.68S1823.5,193.68,1812.22,193.68Z"/><path d="M201.5,902.61l46.68.38.31-5.18A35.29,35.29,0,0,1,236,893.69c-3-1.77-3.33-5.2-3.55-8-.17-2.08-.28-4.9-.34-8.6-.11-6-.08-14.29.08-24.57.17-10.87.45-21.75.65-28.46L203,827.54l-.16,6,9.43-.57h.36a5.84,5.84,0,0,1,4,1.58,5.7,5.7,0,0,1,1.82,4.24L218,888.7a5.79,5.79,0,0,1-4.73,5.59l-11.63,2.23Z"/><path d="M289.66,820c-18.93,0-34.28,18.8-34.28,42s15.35,42,34.28,42,34.27-18.8,34.27-42S308.59,820,289.66,820Zm0,73.68c-11.28,0-20.42-14.18-20.42-31.68s9.14-31.68,20.42-31.68S310.08,844.5,310.08,862,300.93,893.68,289.66,893.68Z"/><path d="M375.22,820C356.29,820,341,838.8,341,862s15.34,42,34.27,42,34.28-18.8,34.28-42S394.15,820,375.22,820Zm0,73.68C364,893.68,354.8,879.5,354.8,862s9.15-31.68,20.42-31.68S395.64,844.5,395.64,862,386.5,893.68,375.22,893.68Z"/><path d="M1638.5,902.61l46.68.38.31-5.18a35.29,35.29,0,0,1-12.51-4.12c-3-1.77-3.33-5.2-3.55-8-.17-2.08-.28-4.9-.34-8.6-.11-6-.08-14.29.08-24.57.17-10.87.45-21.75.65-28.46L1640,827.54l-.16,6,9.43-.57h.36a5.84,5.84,0,0,1,4,1.58,5.7,5.7,0,0,1,1.82,4.24L1655,888.7a5.79,5.79,0,0,1-4.73,5.59l-11.63,2.23Z"/><path d="M1726.66,820c-18.93,0-34.28,18.8-34.28,42s15.35,42,34.28,42,34.27-18.8,34.27-42S1745.59,820,1726.66,820Zm0,73.68c-11.28,0-20.42-14.18-20.42-31.68s9.14-31.68,20.42-31.68,20.42,14.18,20.42,31.68S1737.93,893.68,1726.66,893.68Z"/><path d="M1812.22,820c-18.93,0-34.27,18.8-34.27,42s15.34,42,34.27,42,34.28-18.8,34.28-42S1831.15,820,1812.22,820Zm0,73.68c-11.27,0-20.42-14.18-20.42-31.68s9.15-31.68,20.42-31.68,20.42,14.18,20.42,31.68S1823.5,893.68,1812.22,893.68Z"/></g></g></svg>