<svg id="Decal" xmlns="http://www.w3.org/2000/svg" viewBox="0 0 2048 1024"><defs><style>.cls-1{fill:#8a928d;}.cls-2{fill:#545955;}.cls-3{fill:#b40000;}.cls-4{fill:#fff;}</style></defs><rect id="Background_Color" data-name="Background Color" class="cls-1" width="2048" height="1024"/><path id="Dark_Grey_Part" data-name="Dark Grey Part" class="cls-2" d="M25,22V998H2027V22ZM60,59H554V293H60ZM1414,963H60V729H1414Zm574,0H1494V729h494Zm0-334H60V395H1988Zm0-336H634V59H1988Z"/><g id="Details_Shading" data-name="Details &amp; Shading"><rect class="cls-2" x="380" y="137" width="96" height="74"/><rect class="cls-2" x="136" y="137" width="96" height="74"/><rect class="cls-3" x="232" y="137" width="148" height="74"/><polygon points="136 211 60 293 554 293 476 211 136 211"/><rect class="cls-2" x="1392" y="137" width="64.67" height="74"/><rect class="cls-2" x="1816.67" y="137" width="95.33" height="74"/><rect class="cls-2" x="1180" y="137" width="64" height="74"/><rect class="cls-2" x="1604.67" y="137" width="64" height="74"/><rect class="cls-2" x="710" y="137" width="110" height="74"/><rect class="cls-2" x="968" y="137" width="64" height="74"/><rect class="cls-3" x="820" y="137" width="148" height="74"/><rect class="cls-3" x="1032" y="137" width="148" height="74"/><rect class="cls-4" x="1244" y="137" width="148" height="74"/><rect class="cls-3" x="1456.67" y="137" width="148" height="74"/><rect class="cls-3" x="1668.67" y="137" width="148" height="74"/><polygon points="710 211 634 293 1988 293 1912 211 710 211"/><rect class="cls-2" x="1392" y="473" width="520" height="74"/><rect class="cls-2" x="592" y="473" width="440" height="74"/><rect class="cls-2" x="380" y="473" width="64" height="74"/><rect class="cls-2" x="1180" y="473" width="64" height="74"/><rect class="cls-2" x="136" y="473" width="96" height="74"/><rect class="cls-3" x="1032" y="473" width="148" height="74"/><rect class="cls-4" x="1244" y="473" width="148" height="74"/><rect class="cls-3" x="444" y="473" width="148" height="74"/><rect class="cls-4" x="232" y="473" width="148" height="74"/><polygon points="136 547 60 629 1988 629 1912 547 136 547"/><rect class="cls-2" x="380" y="811" width="228" height="74"/><rect class="cls-2" x="756" y="811" width="64" height="74"/><rect class="cls-2" x="1180" y="811" width="158" height="74"/><rect class="cls-2" x="136" y="811" width="96" height="74"/><rect class="cls-2" x="968" y="811" width="64" height="74"/><rect class="cls-4" x="232" y="811" width="148" height="74"/><rect class="cls-4" x="608" y="811" width="148" height="74"/><rect class="cls-4" x="820" y="811" width="148" height="74"/><rect class="cls-4" x="1032" y="811" width="148" height="74"/><polygon points="136 885 60 963 1414 963 1338 885 136 885"/><rect class="cls-2" x="1572" y="811" width="96.67" height="74"/><rect class="cls-2" x="1816.67" y="811" width="95.33" height="74"/><rect class="cls-3" x="1668.67" y="811" width="148" height="74"/><polygon points="1572 885 1494 963 1988 963 1912 885 1572 885"/></g></svg>