<svg id="Decal" xmlns="http://www.w3.org/2000/svg" viewBox="0 0 2048 1024"><defs><style>.cls-1{fill:#f4f4f4;}</style></defs><rect id="Background" class="cls-1" width="2048" height="1024"/><rect id="Black_Part" data-name="Black Part" x="99" y="95" width="1850" height="834" rx="128"/><g id="First_One" data-name="First One"><polygon class="cls-1" points="406.72 825.59 351.03 751.2 370.49 554.55 438.22 519.11 406.72 825.59"/><polygon class="cls-1" points="438.88 505.95 378.84 464.14 398 276.67 469.87 195.88 438.88 505.95"/></g><g id="Zero"><polygon class="cls-1" points="554.36 516.5 614.1 554.84 594.65 750.76 522.89 822.36 554.36 516.5"/><polygon class="cls-1" points="535.8 832.06 608.67 766.67 790.5 766.91 855.97 831.95 535.8 832.06"/><polygon class="cls-1" points="869.97 822.86 812 760 832.79 554.56 900.1 523.16 869.97 822.86"/><path class="cls-1" d="M901.09,508.07l-60.27-39.72s9.52-100.56,18.74-190.57l71.79-81.22Z"/><polygon class="cls-1" points="908.33 192.34 844.79 257.77 661.87 257.77 603.23 190.41 908.33 192.34"/><polygon class="cls-1" points="585.08 198.37 642.8 273.16 623.36 465.26 556.45 505.82 585.08 198.37"/></g><g id=":"><polygon class="cls-1" points="1039.35 665.22 988.81 665.64 993.78 614.91 1045.13 614.99 1039.35 665.22"/><polygon class="cls-1" points="1064.45 409.68 1014.11 408.56 1018.75 357.59 1069.74 357.33 1064.45 409.68"/></g><g id="Two"><path class="cls-1" d="M1204.16,190.85c1.4-.14,316.88-3.18,317.92,1.68l-73.46,62.22H1265.54C1197,185.32,1204.6,193.73,1204.16,190.85Z"/><path class="cls-1" d="M1157.77,517.33c2.25.11-5.68-4.56,59.72,37.29,1.13,6.45-.5,11.12-2.3,28.43C1196.86,759,1200.9,748.15,1194.44,755c-11.3,12-47.29,50.27-67.15,72.41C1124.88,818.66,1157.05,518.58,1157.77,517.33Z"/><polygon class="cls-1" points="1145.33 832 1212.2 769.91 1400.64 771.31 1458.96 832.04 1145.33 832"/><polygon class="cls-1" points="1428.33 544.33 1233.67 540 1168.33 506.33 1238.15 480 1429.6 480 1489.33 515 1428.33 544.33"/><path class="cls-1" d="M1505.7,503.72c-.5,3.9,1.75,4.5-57.75-33.32-1.22-.77-2.08-2.12-3.59-3.71,3.13-26.26,18.62-184.34,19.9-194.39,77.86-82.08,66.44-73.25,70.93-75C1536.78,203.76,1505.72,503.62,1505.7,503.72Z"/></g><g id="Second_One" data-name="Second One"><polygon class="cls-1" points="1660.43 750.92 1588.4 822.71 1616.22 554.4 1683.6 521.59 1660.43 750.92"/><polygon class="cls-1" points="1684.62 506.15 1624.37 463.47 1652.79 197.04 1706.58 269.67 1684.62 506.15"/></g></svg>