<svg id="Texture" xmlns="http://www.w3.org/2000/svg" viewBox="0 0 2048 1024"><defs><style>.cls-1{fill:#f4f4f4;}.cls-2{fill:#b40000;}</style></defs><rect id="Background_Color" data-name="Background Color" class="cls-1" width="2048" height="1024"/><g id="Folds"><path d="M1240,609c8.22,19,9,30,6,54l716,258,13-44Z"/><path d="M773,615c-2,16.54-.43,30.09,3,42L79,904,63.08,855Z"/><path d="M64,87S6,316,810.51,518c0,0,13.41-21,37.49-21,11,0,15-13,15-13S119,314,111,87Z"/><path d="M1932,93h53s55,251-810,443c0,0-6-37-20-54C1155,482,1924,325,1932,93Z"/></g><g id="Seal"><path id="Red_Wax" data-name="Red Wax" class="cls-2" d="M1228,622c-11-22-18-44-38-51-12.27-4.29-27-2-28-12.37-.87-8.82,1-56.63-35.12-73C1099.17,473.14,1077,474,1056,449s-59.74-29.48-115-25c-37,3-46,56.28-53,67-17,26-25,30-70,50s-35,124-24,142,49,52,50,71c1.74,33.09-8,63,21,71s42.67-4,65.33,0S981,860,1014,860s69-30,74-46,65-63,87-73S1250.84,667.69,1228,622ZM827,684c-11,4-13,0-28-37s13.15-103.23,30-92c15,10,4,29,3,46C831.06,617,838,680,827,684Zm56-127.44c-13-3.45-1.78-10.56,6-19.56s-8-8-4-12c8.25-8.25,25,2,28.44,11S896,560,883,556.56ZM1037,485c-32-1.33-35-8-52-9s-45.82,13.67-69,2,9.29-34,37-39c33-6,65,1,88,16S1061,486,1037,485Z"/><g id="Details"><path d="M874,525c-6,0-43,61.45-25,122,19,64,59,93,99,93,8.25,0,17-20,2-21-35.43-2.36-80-36-81-89s5.59-72,6-80S880,525,874,525Z"/><path d="M939,487c-15.63-8.93-43.81,8.33-30.91,17.67S953,495,939,487Z"/><path d="M1059,491c-11.66-3.24-37-6.33-35,2.33S1076.67,518,1090.33,536,1108,558,1108,577c0,5,18.67,7,19.33,0S1123.72,509,1059,491Z"/><path d="M1052.06,539.52C1026,534,1005,556,992,556c-12,0-33-22.48-56-16s-62.39,31.33-31.2,86.67,77.2,94.66,87.2,97S1083,656,1087,609,1078.11,545,1052.06,539.52ZM1064,609c-2.9,34.09-65.75,82.69-73,81s-36.38-23.87-59-64-2.68-56.3,14-61,36.88,11.66,45.58,11.66c9.43,0,24.66-16,43.56-12S1066.9,574.91,1064,609Z"/><path d="M1111.67,619.49c-8,3.3-9.67,71.51-43.67,86.51s-48,15.59-47.5,22.8S1027,752,1034,750s64-34,74-48,22.78-77,19.39-82.51S1115.33,618,1111.67,619.49Z"/></g></g><g id="Cursive_Script" data-name="Cursive Script"><path d="M603.69,256.73c.1,0,0,0,0,0l-.13.08-.31.2-.67.45-1.42,1c-1,.66-1.93,1.33-2.88,2-1.9,1.4-3.77,2.82-5.52,4.33a59.05,59.05,0,0,0-9,9.28,32.06,32.06,0,0,0-3,4.68,21.11,21.11,0,0,0-1.84,4.48,17,17,0,0,0-.73,4.39,18.73,18.73,0,0,0,.35,4.75,24.65,24.65,0,0,0,1.41,4.57,15.46,15.46,0,0,0,2.6,3.78,26,26,0,0,0,4.27,3.76,37.63,37.63,0,0,0,5.43,3.11,43.17,43.17,0,0,0,12.7,3.52,50.39,50.39,0,0,0,6.74.38,53.16,53.16,0,0,0,6.77-.58,56.46,56.46,0,0,0,25.24-11.05,86.58,86.58,0,0,0,19.78-21.8,145.11,145.11,0,0,0,13.9-27.88c1.85-5,3.51-10.06,5-15.22s2.77-10.42,4-15.72l0-.17a13,13,0,0,1,25.38,5.65c-1.28,5.81-2.66,11.62-4.3,17.4s-3.49,11.52-5.58,17.22a166.19,166.19,0,0,1-16.42,33.14,110,110,0,0,1-26.09,28.31,86.73,86.73,0,0,1-8.32,5.5,83,83,0,0,1-9,4.61,80.62,80.62,0,0,1-19.48,5.81,77.21,77.21,0,0,1-40.81-4A65.74,65.74,0,0,1,572,328a57.49,57.49,0,0,1-9.22-6.65,45.23,45.23,0,0,1-8.11-9.44l-.87-1.43c-.28-.49-.55-1-.82-1.51l-.4-.77-.32-.67-.61-1.29a51.77,51.77,0,0,1-2.14-5.47,48.42,48.42,0,0,1-2.39-12.05,47.56,47.56,0,0,1,.88-12.55,52.2,52.2,0,0,1,3.92-11.55,61.21,61.21,0,0,1,5.93-9.83,76.94,76.94,0,0,1,14.84-15,91,91,0,0,1,8.3-5.68q2.13-1.31,4.36-2.49c.75-.39,1.5-.78,2.29-1.16l1.2-.57,1.45-.66a15.27,15.27,0,0,1,13.38,27.46Z"/><path d="M774.62,110l0,.09h0l0-.08.06-.23.13-.53c.09-.38.17-.78.23-1.17a19.61,19.61,0,0,0,.27-2.3,10.57,10.57,0,0,0-.23-3.24,1.07,1.07,0,0,0-.15-.38,1,1,0,0,0,.19.23c.1.09.16.12.07.08a3.62,3.62,0,0,0-.75-.21,10,10,0,0,0-1.64-.19H772a.54.54,0,0,0,.18,0,3.52,3.52,0,0,0,.58-.07c.62-.19,0-.05-1,.81a26.28,26.28,0,0,0-3.27,3.66c-1.17,1.54-2.34,3.29-3.48,5.15-2.28,3.73-4.44,7.86-6.51,12.12s-4,8.69-6,13.17c-3.86,9-7.51,18.21-11.16,27.52-7.31,18.63-14.53,37.56-22.84,56.37-4.17,9.41-8.61,18.8-13.67,28.08a171.26,171.26,0,0,1-18,27.31A13.56,13.56,0,0,1,666,258.92l.06-.07,0-.05a145.54,145.54,0,0,0,15.16-22.88c4.59-8.33,8.8-17.09,12.81-26,8-17.9,15.2-36.48,22.64-55.21,3.73-9.37,7.51-18.8,11.62-28.26,2.06-4.73,4.21-9.47,6.54-14.23s4.84-9.53,7.82-14.36c1.5-2.41,3.13-4.84,5-7.3a51.56,51.56,0,0,1,6.87-7.45,33.45,33.45,0,0,1,5-3.64,25.68,25.68,0,0,1,7-2.88A23,23,0,0,1,770.9,76l1.11,0h.68l1.36,0a36.85,36.85,0,0,1,5.82.75,29.89,29.89,0,0,1,6.39,2.12,25.85,25.85,0,0,1,6.35,4.21,25,25,0,0,1,4.89,6.07,28.06,28.06,0,0,1,2.71,6.56,36.19,36.19,0,0,1,1.08,11.7,50.24,50.24,0,0,1-.62,5.18c-.15.84-.32,1.68-.52,2.52l-.31,1.29-.19.69-.27.9A13,13,0,0,1,774.62,110Z"/><path d="M828.37,87.33l.88-.07.73,0,1.41,0c.92,0,1.83,0,2.75,0,1.83,0,3.65.07,5.51.2a59.45,59.45,0,0,1,11.61,1.93,39.27,39.27,0,0,1,6.37,2.39,28,28,0,0,1,6.75,4.48,23.19,23.19,0,0,1,5.68,7.82,23.84,23.84,0,0,1,1.48,4.72c.16.8.26,1.57.34,2.34s.11,1.6.1,2.1A34.4,34.4,0,0,1,869.37,127a36.93,36.93,0,0,1-7.5,11.39,48.7,48.7,0,0,1-9.58,7.69,68.6,68.6,0,0,1-10,5.13A103.37,103.37,0,0,1,822,157.08,153.73,153.73,0,0,1,802,159.51a208.08,208.08,0,0,1-39.5-1.66c-3.3-.45-6.38-.93-9.52-1.44l-9.33-1.52-18.51-3.22-36.75-6.55c-12.23-2.14-24.44-4.21-36.64-6.11s-24.4-3.61-36.57-5-24.32-2.43-36.3-2.8c-6-.18-11.92-.18-17.7.13a96.46,96.46,0,0,0-16.48,2.08,37.77,37.77,0,0,0-6.73,2.17,12.16,12.16,0,0,0-3.91,2.51,3,3,0,0,0-.57.81,3.07,3.07,0,0,0-.13.37c-.15.53-.29,1.07-.41,1.62a36.52,36.52,0,0,0-.83,7,43.51,43.51,0,0,0,2.14,14.46A41.56,41.56,0,0,0,541,175.11a39.28,39.28,0,0,0,10.68,9.4A47.76,47.76,0,0,0,565.43,190a63.91,63.91,0,0,0,7.71,1.29c.65.08,1.31.14,2,.19s1.33.1,2,.13,1.34.07,2,.08l1,0h1.1c5.93.06,11.88-.09,17.81-.47a280.9,280.9,0,0,0,35.46-4.54c5.85-1.12,11.68-2.43,17.42-3.92,2.88-.74,5.73-1.54,8.55-2.38,1.4-.42,2.8-.85,4.18-1.3l2-.68,1.82-.64.4-.14a13,13,0,0,1,8.63,24.53l-.09,0-1.37.47-1.23.4-2.41.76c-1.6.49-3.18.95-4.76,1.4-3.17.89-6.33,1.71-9.49,2.48q-9.51,2.29-19.09,4a309.56,309.56,0,0,1-38.7,4.32c-6.49.3-13,.41-19.53.28l-1.23,0-1.32-.05c-.88,0-1.76-.07-2.65-.13s-1.76-.12-2.65-.2-1.77-.17-2.66-.28a88.86,88.86,0,0,1-10.69-1.92A72.16,72.16,0,0,1,539,205.15a63.73,63.73,0,0,1-17-15.35,65.19,65.19,0,0,1-10.44-20.22,68,68,0,0,1-3.1-22.36,60.43,60.43,0,0,1,1.45-11.53c.23-1,.48-1.94.76-2.91a25.91,25.91,0,0,1,1.52-4A26.36,26.36,0,0,1,516.9,122a35,35,0,0,1,11.5-7.83,60.05,60.05,0,0,1,11-3.55A119.94,119.94,0,0,1,560,108c6.66-.31,13.19-.27,19.65,0,12.92.47,25.59,1.65,38.17,3.12,25.14,3,49.91,7,74.54,11.36L729.14,129l18.3,3.18,9.1,1.48c3,.47,6.09.93,9,1.31a184.81,184.81,0,0,0,35.06,1.27,131,131,0,0,0,17-2.15,80.13,80.13,0,0,0,15.59-4.59c4.73-2,8.89-4.62,11.46-7.42A13.22,13.22,0,0,0,847.3,118a10.35,10.35,0,0,0,.72-4.36c0-.29,0-.18,0-.23s0,0,0,0a.81.81,0,0,0,.08.28c.09.26.26.44.17.36a10.4,10.4,0,0,0-3.44-1.43,35.08,35.08,0,0,0-6.81-1c-1.24-.08-2.53-.11-3.82-.09-.64,0-1.28,0-1.92,0l-.92.05-.72,0-.43,0a12.22,12.22,0,1,1-1.86-24.37Z"/><path d="M838.15,195.68c.08-.06,0,0,0,.06a1.24,1.24,0,0,1,0,.16,2.3,2.3,0,0,1-.12.34l-.29.73c-.19.51-.4,1-.61,1.53l-1.29,3.06c-.84,2-1.65,4-2.36,5.89s-1.31,3.67-1.77,5.26a28.55,28.55,0,0,0-.84,3.88c-.05.46-.08.8-.1,1s0,.19-.08.06-.59-1.08-1.1-1.25-1,.59-.51,1.84a9.29,9.29,0,0,0,3.11,4.15A13.57,13.57,0,0,0,838,225a57.09,57.09,0,0,0,7.2.87,63.84,63.84,0,0,0,14.59-1c4.82-.84,9.57-2,14.31-3.15s9.48-2.35,14.13-3.9a158.88,158.88,0,0,0,27-11.73,139.62,139.62,0,0,0,24-16.53,101,101,0,0,0,10-9.9,61.45,61.45,0,0,0,7.53-10.55A28.5,28.5,0,0,0,959,164.2a12,12,0,0,0,.69-3.61c0-.21,0-.36,0-.51V160l0-.15,0-.31c0-.21-.05-.43-.08-.62a17.89,17.89,0,0,0-.45-2.19,7.3,7.3,0,0,0-1.11-2.53c-.3-.33-.27,0,.33.34a4.33,4.33,0,0,0,2.12.59c.59,0,.79,0,.77.2s-.22.75-.38,1.54a15.32,15.32,0,0,0-.24,3.07c0,.62.06,1.29.13,2s.18,1.38.33,2.28a54.31,54.31,0,0,0,1.17,5.59c.5,1.83,1.09,3.62,1.73,5.37s1.43,3.41,2.23,5,1.73,3.15,2.67,4.63a66.75,66.75,0,0,0,6.2,7.81,33.87,33.87,0,0,0,7.07,6.1,18.7,18.7,0,0,0,9.24,2.85c.42,0,.86,0,1.3,0l1.16,0a8.15,8.15,0,0,0,1.9-.28,19.92,19.92,0,0,0,4.85-2.09,79.54,79.54,0,0,0,10.5-7.72A116.69,116.69,0,0,0,1030,170.41a76.75,76.75,0,0,0,6.79-11.65,33.09,33.09,0,0,0,1.92-5.21,12.57,12.57,0,0,0,.34-1.81c0-.44,0-.62,0-.34a5.74,5.74,0,0,0,.81,2.49,8.33,8.33,0,0,0,1.43,1.89,8.51,8.51,0,0,0,1.72,1.33,9.2,9.2,0,0,0,1.59.7,7.54,7.54,0,0,0-1.3,0c-.68.13-.93.3-1,.52s-.1.25-.19.37-.18.35-.29.66a19.13,19.13,0,0,0-1.43,6.68,43.32,43.32,0,0,0,.74,10.23c.17.9.35,1.81.58,2.71l.07.34.06.2a2.79,2.79,0,0,0,.1.39c.07.26.16.52.25.78a14.86,14.86,0,0,0,1.68,3.29,22.26,22.26,0,0,0,6.38,6.15,26.64,26.64,0,0,0,8.88,3.71,24.31,24.31,0,0,0,18.21-3c.35-.23.7-.43,1-.67l.55-.38.69-.5c.92-.67,1.84-1.35,2.75-2.06,1.83-1.42,3.62-2.92,5.38-4.48a120.51,120.51,0,0,0,10-10,85.77,85.77,0,0,0,8.2-10.59,33.5,33.5,0,0,0,2.5-4.54,7.11,7.11,0,0,1,.34-.81,9,9,0,0,0-.07,1,10.62,10.62,0,0,0,.5,3.15,10.51,10.51,0,0,0,.46,1.25,11.18,11.18,0,0,0,.7,1.38,12.89,12.89,0,0,0,1,1.41,12.15,12.15,0,0,0,1.17,1.31,12.31,12.31,0,0,0,4.81,3,8.63,8.63,0,0,0,2.43.46,1.31,1.31,0,0,0,.28,0,5.16,5.16,0,0,0,.85,0,5.25,5.25,0,0,0,.68-.08,4.59,4.59,0,0,0,.51-.1,4.31,4.31,0,0,0,.94-.3c.13-.07.11-.08,0,0a4.54,4.54,0,0,0-.89.57,12,12,0,0,0-2.37,2.48,12.17,12.17,0,0,0-1.59,3,9.19,9.19,0,0,0-.14,5.92,21.16,21.16,0,0,0,4.72,7.77A44.69,44.69,0,0,0,1127,193l.61.51.47.39c.31.24.61.46.91.67a16.38,16.38,0,0,0,1.82,1.13,15.72,15.72,0,0,0,8,1.85,28.46,28.46,0,0,0,10.19-2.4,54.63,54.63,0,0,0,11-6.3,83.18,83.18,0,0,0,10.33-9,90,90,0,0,0,9-10.64,71.37,71.37,0,0,0,6.83-11.5,39.34,39.34,0,0,0,2.07-5.48,16.72,16.72,0,0,0,.71-3.95c0-.36,0-.51.05-.33a4.32,4.32,0,0,0,.74,1.18,4.25,4.25,0,0,0,1.37,1,1.35,1.35,0,0,0,.27.09c-.14-.05.36.09.85.16a9.13,9.13,0,0,0,1.73.09,9.35,9.35,0,0,0,3.85-1.05,7.32,7.32,0,0,0,1.89-1.41c.56-.64.28-.47,0,0a33.82,33.82,0,0,0-2.14,5.29c-1.48,4.46-2.84,9.66-4.27,14.88a269,269,0,0,1-10.49,32.28,121.59,121.59,0,0,1-18,31,88.48,88.48,0,0,1-13.28,13.1,82.09,82.09,0,0,1-15.94,9.91h0l-.61.29a11.16,11.16,0,0,1-14.84-5.33,11.28,11.28,0,0,1,.3-10.09l.51-.94.46-.79.89-1.51c.59-1,1.2-1.94,1.8-2.9,1.22-1.9,2.49-3.75,3.8-5.58a124.43,124.43,0,0,1,8.44-10.54,105.33,105.33,0,0,1,9.83-9.63,83.7,83.7,0,0,1,11.54-8.24,66,66,0,0,1,13.44-6,57.75,57.75,0,0,1,14.88-2.66c.64,0,1.27-.06,1.9-.06h1.83l3.12,0,6.18.09c4.09.05,8.15.11,12.19.11a439.21,439.21,0,0,0,47.61-2.1c7.76-.78,15.4-1.87,22.8-3.28,3.69-.73,7.32-1.55,10.86-2.47l2.62-.72c.81-.23,1.58-.46,2.35-.72,1.55-.51,3.07-1.09,4.56-1.7a56.11,56.11,0,0,0,15.85-9.82,37.94,37.94,0,0,0,5.65-6.27,20.3,20.3,0,0,0,3-6.05,7,7,0,0,0,.25-3.49c-.2-.65-.35-1.1-2-2.57a9.9,9.9,0,0,0-4.15-2,8.73,8.73,0,0,0-4.8.38,10.19,10.19,0,0,0-4.46,3.16,10.07,10.07,0,0,0-1.5,2.43c-.09.23-.18.46-.28.68s-.15.47-.23.7l-.19.73c0,.08,0,.07-.07.23l-.1.45-.21.9c-.58,2.39-1.21,4.59-1.88,6.74s-1.36,4.23-2.08,6.28c-1.45,4.11-3,8.1-4.6,12-3.21,7.88-6.69,15.54-10.35,23.11s-7.5,15-11.53,22.36c-16.12,29.35-34.84,57.34-56.93,83a348.93,348.93,0,0,1-35.95,36.2,258.52,258.52,0,0,1-42.26,30,198.78,198.78,0,0,1-49,19.81c-2.18.5-4.34,1-6.53,1.51s-4.38.89-6.57,1.27q-6.55,1.11-13.28,1.78c-4.5.4-9,.66-13.67.67a120.17,120.17,0,0,1-14.07-.86,83.93,83.93,0,0,1-28.59-8.48,64.58,64.58,0,0,1-13.22-9,59.56,59.56,0,0,1-10.68-12.45,61.19,61.19,0,0,1-6.84-14.74,68.21,68.21,0,0,1-2.89-15.46,76.23,76.23,0,0,1,.43-15.14,86.76,86.76,0,0,1,3-14.4,104.83,104.83,0,0,1,11.8-26,122.77,122.77,0,0,1,8.22-11.48c1.48-1.83,3-3.64,4.55-5.38l.58-.66.66-.7,1.31-1.4c.89-.9,1.78-1.81,2.7-2.66,1.82-1.72,3.68-3.37,5.6-4.91s3.83-3,5.8-4.41a120.8,120.8,0,0,1,12.09-7.46c4.11-2.24,8.29-4.18,12.5-6s8.43-3.53,12.7-5.09a143.3,143.3,0,0,1,26.21-7c2.23-.36,4.49-.65,6.72-.91s4.35-.44,6.49-.62c4.3-.38,8.56-.67,12.78-.92,16.89-1,33.45-1.19,50-1.21,33,0,65.65,1.07,98.26,2s65.11,1.91,97.53,2.18,64.77-.11,96.72-2c15.95-.92,31.81-2.2,47.27-4.06,7.73-.91,15.35-2.05,22.72-3.38a170.34,170.34,0,0,0,20.72-5,62.19,62.19,0,0,0,8.17-3.22,27.57,27.57,0,0,0,2.73-1.52,9.63,9.63,0,0,0,1-.79s-.06,0-.06.07a2.92,2.92,0,0,0,.23-.27c.16-.21.28-.38.38-.53a4.1,4.1,0,0,0,.27-.5c.05-.13.14-.12,0-1a12.92,12.92,0,0,0-1.71-4.16,35.76,35.76,0,0,0-4.46-5.91,71.25,71.25,0,0,0-14.32-11.59,96.27,96.27,0,0,0-36.77-13.73,58.54,58.54,0,0,0-17.88,0,35.07,35.07,0,0,0-14.35,5.49l-.85.58a18.67,18.67,0,0,1-22.93-29.36,66.76,66.76,0,0,1,14-9.58,76.18,76.18,0,0,1,15.39-5.81,95.64,95.64,0,0,1,30.74-2.5,124.58,124.58,0,0,1,28.69,5.65,136.12,136.12,0,0,1,26.48,11.67A111.31,111.31,0,0,1,1584,168a77.46,77.46,0,0,1,10.52,13.34,57.9,57.9,0,0,1,7.54,18.34,48,48,0,0,1,1,11.38,46.6,46.6,0,0,1-1.9,11.81,47.6,47.6,0,0,1-4.68,10.64,52.09,52.09,0,0,1-3,4.55c-.26.37-.54.7-.81,1l-.4.51c-.13.17-.28.35-.46.56-.69.79-1.4,1.63-2.1,2.34a52.64,52.64,0,0,1-8.38,7,71.27,71.27,0,0,1-7.88,4.54,103.21,103.21,0,0,1-14.55,5.75,193.43,193.43,0,0,1-26.86,6.14c-8.7,1.44-17.25,2.37-25.74,3.15-17,1.52-33.66,2.13-50.28,2.46-33.22.55-66.08,0-98.86-.52l-98-2c-32.57-.67-65.08-1.32-97.3-1.41q-12.07,0-24.07.12c-8,.12-15.92.27-23.75.62q-5.87.26-11.62.67-2.87.21-5.68.47l-5.42.53c-7.21.78-14.49,1.57-21.65,2.86q-5.37.94-10.57,2.4a98.66,98.66,0,0,0-10,3.45,70.29,70.29,0,0,0-17.43,9.69c-.62.48-1.19,1-1.78,1.5l-.84.77-.42.39-.45.47c-1.2,1.23-2.4,2.48-3.51,3.8a74.43,74.43,0,0,0-6.11,8.3,70.46,70.46,0,0,0-8.43,18.34,51.15,51.15,0,0,0-2.09,18.78,33.1,33.1,0,0,0,5.27,15.8,31,31,0,0,0,12.33,10.5,55.2,55.2,0,0,0,18.16,4.94,105,105,0,0,0,21.06,0q5.45-.54,11-1.46c1.82-.31,3.62-.67,5.43-1s3.6-.8,5.4-1.2A171,171,0,0,0,1128.16,352a236.58,236.58,0,0,0,37.76-25.93,320,320,0,0,0,33.51-32.51,415.38,415.38,0,0,0,29.4-37,459.77,459.77,0,0,0,25.45-40.09,399.84,399.84,0,0,0,21-42.38c1.49-3.6,2.92-7.2,4.2-10.77.65-1.78,1.26-3.56,1.81-5.3s1.06-3.46,1.45-5l.34-1.39c.19-.74.37-1.49.58-2.23l.72-2.2.85-2.16a41.55,41.55,0,0,1,4.65-8.1,39.63,39.63,0,0,1,14.41-12,36.88,36.88,0,0,1,37.46,2.81,45,45,0,0,1,3.74,2.91c.57.47,1.23,1.12,1.85,1.73s1.23,1.29,1.81,2a33,33,0,0,1,5.63,9.57,34,34,0,0,1,2.13,10.65,38.58,38.58,0,0,1-.91,9.94,49.85,49.85,0,0,1-6.88,16.15,63.55,63.55,0,0,1-10.28,12.2,77.84,77.84,0,0,1-25.58,15.62c-2.31.88-4.64,1.64-7,2.3-1.17.34-2.36.64-3.53.93l-3.31.74c-4.4.94-8.78,1.66-13.13,2.23a236.57,236.57,0,0,1-25.81,1.84c-17,.33-33.7-.72-50.14-1.8l-12.25-.84-6-.37-3-.17-.37,0h-.29l-.57,0c-.39,0-.77,0-1.16,0a35.59,35.59,0,0,0-9.17,1.28,40.7,40.7,0,0,0-8.92,3.75,52.2,52.2,0,0,0-8.39,5.86,69.69,69.69,0,0,0-7.6,7.49,84.37,84.37,0,0,0-6.67,8.66c-1,1.52-2,3.08-2.91,4.64-.46.78-.89,1.57-1.31,2.35l-.6,1.16-.27.56-.12.26c0,.07-.09.19-.07.16l-15.15-15.13h0a61.11,61.11,0,0,0,20.44-17.67,97.83,97.83,0,0,0,13.3-25.34,251.61,251.61,0,0,0,8.39-29.59c1.25-5.22,2.42-10.52,4.11-16.37a59.17,59.17,0,0,1,3.68-9.79A26.75,26.75,0,0,1,1180,129a19.74,19.74,0,0,1,5.09-3.86,18.38,18.38,0,0,1,11.47-1.86,21.26,21.26,0,0,1,2.81.65,25.49,25.49,0,0,1,4,1.57,23.36,23.36,0,0,1,7.68,6,24.47,24.47,0,0,1,2.76,4.09,25.94,25.94,0,0,1,1.75,4.19,29.51,29.51,0,0,1,1.31,7.63,42.78,42.78,0,0,1-1.35,12,66.09,66.09,0,0,1-3.3,9.76,98.42,98.42,0,0,1-9.1,16.62,119.84,119.84,0,0,1-11.43,14.44A109.67,109.67,0,0,1,1178,212.87a85.42,85.42,0,0,1-16.78,10.19,59.14,59.14,0,0,1-21,5.35,47.92,47.92,0,0,1-11.88-.82,47,47,0,0,1-11.48-3.89,48.32,48.32,0,0,1-5.17-2.94c-.82-.54-1.62-1.09-2.39-1.66l-1.12-.85-1-.76a76,76,0,0,1-7.58-6.84,59.68,59.68,0,0,1-6.91-8.62,47,47,0,0,1-5.33-10.87,41.72,41.72,0,0,1-.36-25.9,44.7,44.7,0,0,1,5.48-11.51,45.49,45.49,0,0,1,8.42-9.51,39.21,39.21,0,0,1,5.73-4.06,31.38,31.38,0,0,1,3.67-1.82,27.88,27.88,0,0,1,4.79-1.54l1.5-.28c.56-.08,1.12-.14,1.69-.2s1.31-.07,1.86-.07l1.29,0a23.86,23.86,0,0,1,6.4,1.14,21.2,21.2,0,0,1,8.27,5,22.69,22.69,0,0,1,1.84,2.06,23.26,23.26,0,0,1,1.51,2.25c.43.75.8,1.51,1.15,2.28s.57,1.46.81,2.21a23.61,23.61,0,0,1,1,7.14,28,28,0,0,1-.52,5,38.12,38.12,0,0,1-2.06,6.91,65.18,65.18,0,0,1-5,9.8,118.46,118.46,0,0,1-11.2,15.27A149.48,149.48,0,0,1,1111,208.46c-2.25,2.06-4.56,4.06-7,6-1.19,1-2.42,1.92-3.66,2.86l-.94.7-1.1.79c-.75.55-1.54,1.06-2.31,1.57a59.74,59.74,0,0,1-43.88,8.49,62.73,62.73,0,0,1-21-8.16A58.68,58.68,0,0,1,1014,204.87a52.26,52.26,0,0,1-6-10.93c-.39-1-.76-2-1.08-3-.18-.51-.32-1-.47-1.55l-.22-.77-.16-.65c-.44-1.71-.81-3.44-1.13-5.19a62,62,0,0,1,0-22,53.11,53.11,0,0,1,3.55-11.53,43.31,43.31,0,0,1,7.2-11.35,38.47,38.47,0,0,1,5.42-5.05,35.52,35.52,0,0,1,21.21-7.16,39.91,39.91,0,0,1,6.76.49,26.88,26.88,0,0,1,9.28,3.11,23.84,23.84,0,0,1,5,3.71,23.44,23.44,0,0,1,3.91,5.08,25.23,25.23,0,0,1,3.13,10.17,32.63,32.63,0,0,1-.23,7.74,45.14,45.14,0,0,1-1.35,6.09,65.81,65.81,0,0,1-3.83,9.89,114.81,114.81,0,0,1-9.6,16.22A145.65,145.65,0,0,1,1031.1,215a86.82,86.82,0,0,1-15.87,10.94,75.42,75.42,0,0,1-9.91,4.49,50,50,0,0,1-5.93,1.75l-.81.18-.69.13-1.34.24c-.9.16-1.8.34-2.72.43a63.78,63.78,0,0,1-22.69-.86c-1.91-.41-3.77-1-5.64-1.55s-3.66-1.33-5.42-2.15a53,53,0,0,1-10-5.85,55.8,55.8,0,0,1-8.38-7.61,67.58,67.58,0,0,1-6.64-8.84,76.94,76.94,0,0,1-5-9.59,75,75,0,0,1-6-30.94,51.07,51.07,0,0,1,6-24.14,38.79,38.79,0,0,1,9.34-11.29,32.33,32.33,0,0,1,15.08-6.92,29.26,29.26,0,0,1,9.11-.08,28,28,0,0,1,8.75,2.82,30.53,30.53,0,0,1,12,11.21,38.78,38.78,0,0,1,4.89,12.41,49.68,49.68,0,0,1,.89,5.79c.05.47.08.93.11,1.4l.05.69,0,.35,0,.45a34.69,34.69,0,0,1,0,3.54,43.37,43.37,0,0,1-2.56,12.19,60.18,60.18,0,0,1-4.56,9.75,91.16,91.16,0,0,1-11.43,15.62,132.61,132.61,0,0,1-13.06,12.73,169,169,0,0,1-29.28,20A172.47,172.47,0,0,1,897,245.78a142.66,142.66,0,0,1-17.21,4.12,119.26,119.26,0,0,1-17.71,1.43c-5.93.08-11.83-.08-17.75-.18-3-.05-5.9-.14-8.94-.23s-6.47,0-10.11,0l-2.8,0c-1,0-2-.09-3-.16a39.39,39.39,0,0,1-6.34-1.09,28.31,28.31,0,0,1-13.29-7.9,31.39,31.39,0,0,1-5.14-7.34,36.23,36.23,0,0,1-3-8.27,39.35,39.35,0,0,1-1-8,44.51,44.51,0,0,1,.45-7.09,52.31,52.31,0,0,1,3.16-11.76,61.93,61.93,0,0,1,4.75-9.54,68.05,68.05,0,0,1,5.74-8.11c1-1.26,2.1-2.47,3.23-3.65.56-.6,1.14-1.18,1.75-1.75l2.05-1.93a16.94,16.94,0,0,1,26.3,21.37Z"/></g></svg>