<svg id="Decal" xmlns="http://www.w3.org/2000/svg" viewBox="0 0 2048 1024"><defs><style>.cls-1{fill:#8a928d;}.cls-2{fill:#b40000;}.cls-3{fill:#fff;}.cls-4,.cls-6{fill:none;stroke:#000;stroke-miterlimit:10;}.cls-4{stroke-width:24px;}.cls-5{fill:#fac80a;}.cls-6{stroke-width:20px;}</style></defs><rect id="Background_Color" data-name="Background Color" class="cls-1" width="2048" height="1024"/><g id="Red_Button_Right" data-name="Red Button Right"><g id="Red_Button_Right-2" data-name="Red Button Right"><rect class="cls-2" x="1580.1" y="711" width="366" height="216" rx="54"/><path d="M1892.1,726a39,39,0,0,1,39,39V873a39,39,0,0,1-39,39h-258a39,39,0,0,1-39-39V765a39,39,0,0,1,39-39h258m0-30h-258a69.07,69.07,0,0,0-69,69V873a69.07,69.07,0,0,0,69,69h258a69.07,69.07,0,0,0,69-69V765a69.07,69.07,0,0,0-69-69Z"/></g><polygon points="1725.43 888.67 1725.43 744.67 1834.1 819.33 1725.43 888.67"/></g><g id="Red_Button_Left" data-name="Red Button Left"><rect class="cls-2" x="1042.1" y="711" width="366" height="216" rx="54"/><path d="M1354.1,726a39,39,0,0,1,39,39V873a39,39,0,0,1-39,39h-258a39,39,0,0,1-39-39V765a39,39,0,0,1,39-39h258m0-30h-258a69.07,69.07,0,0,0-69,69V873a69.07,69.07,0,0,0,69,69h258a69.07,69.07,0,0,0,69-69V765a69.07,69.07,0,0,0-69-69Z"/><polygon points="1262.77 888.67 1262.77 744.67 1154.1 819.33 1262.77 888.67"/></g><g id="White_Gauge" data-name="White Gauge"><polygon id="Background_White_Gauge" data-name="Background White Gauge" points="943.1 830.49 943.1 191.04 836.01 84 196.3 84 87.1 193.16 87.1 837.53 189.61 940 836.01 940 943.1 830.49"/><g id="Background_Left_Yellow_Gauge" data-name="Background Left Yellow Gauge"><circle class="cls-3" cx="515.1" cy="512" r="376"/><polygon points="632.1 918 570.77 555.33 460.1 555.33 405.44 903.33 632.1 918"/></g><g id="Lines_White_Gauge" data-name="Lines White Gauge"><line class="cls-4" x1="113.1" y1="510" x2="205.1" y2="510"/><line class="cls-4" x1="923.1" y1="510" x2="828.1" y2="510"/><line class="cls-4" x1="518.1" y1="105" x2="518.1" y2="197"/></g><g id="_82" data-name="82"><rect class="cls-2" x="434.1" y="453" width="72" height="18"/><polygon class="cls-2" points="413.1 452 417.77 379.67 438.77 379.67 433.77 452 413.1 452"/><rect class="cls-2" x="443.1" y="361" width="72" height="18"/><rect class="cls-2" x="452.55" y="267.78" width="72" height="18"/><polygon class="cls-2" points="545.55 286.78 540.88 359.11 519.88 359.11 524.88 286.78 545.55 286.78"/><rect class="cls-2" x="290.55" y="453" width="72" height="18"/><polygon class="cls-2" points="269.55 452 274.21 379.67 295.21 379.67 290.21 452 269.55 452"/><rect class="cls-2" x="299.55" y="361" width="72" height="18"/><rect class="cls-2" x="308.99" y="267.78" width="72" height="18"/><polygon class="cls-2" points="401.99 286.78 397.32 359.11 376.32 359.11 381.32 286.78 401.99 286.78"/><polygon class="cls-2" points="367.55 452 372.21 379.67 393.21 379.67 388.21 452 367.55 452"/><polygon class="cls-2" points="302.99 286.78 298.32 359.11 277.32 359.11 282.32 286.78 302.99 286.78"/></g></g><g id="Yellow_Gauges" data-name="Yellow Gauges"><polygon id="Background_Yellow_Gauges" data-name="Background Yellow Gauges" points="1960.9 495.55 1960.9 217.29 1855.73 112.13 1117.48 112.13 1010.23 219.37 1010.23 502.47 1110.9 603.14 1855.73 603.14 1960.9 495.55"/><g id="Background_Left_Yellow_Gauge-2" data-name="Background Left Yellow Gauge"><circle class="cls-5" cx="1255.1" cy="359.01" r="200.33"/><polygon points="1342.32 571.33 1301.76 462 1209.1 462 1170.32 571.33 1342.32 571.33"/></g><g id="Background_Right_Yellow_Gauge" data-name="Background Right Yellow Gauge"><circle class="cls-5" cx="1715.1" cy="359.01" r="200.33"/><polygon points="1802.32 571.33 1761.76 462 1669.1 462 1630.32 571.33 1802.32 571.33"/></g><polygon id="Needle_Right" class="cls-2" points="1710.1 370.67 1704.77 353.33 1875.43 322.67 1877.43 330.67 1710.1 370.67"/><polygon id="Needle_Left" data-name="Needle Left" class="cls-2" points="1256.58 372.05 1268.18 358.12 1122.55 263.99 1117.62 270.6 1256.58 372.05"/><g id="Lines_Right_Yellow_Gauge" data-name="Lines Right Yellow Gauge"><line class="cls-6" x1="1915.43" y1="441.67" x2="1850.1" y2="414.33"/><line class="cls-6" x1="1933.43" y1="357.67" x2="1859.43" y2="357.67"/><line class="cls-6" x1="1913.47" y1="273.94" x2="1848.55" y2="302.24"/><line class="cls-6" x1="1868.57" y1="204.86" x2="1817.4" y2="258.32"/><line class="cls-6" x1="1798.79" y1="163.25" x2="1771.17" y2="228.47"/><line class="cls-6" x1="1714.87" y1="144.88" x2="1714.54" y2="218.88"/><line class="cls-6" x1="1517.17" y1="441.67" x2="1582.5" y2="414.33"/><line class="cls-6" x1="1499.17" y1="357.67" x2="1573.17" y2="357.67"/><line class="cls-6" x1="1519.13" y1="273.94" x2="1584.05" y2="302.24"/><line class="cls-6" x1="1564.03" y1="204.86" x2="1615.2" y2="258.32"/><line class="cls-6" x1="1633.81" y1="163.25" x2="1661.43" y2="228.47"/></g><g id="Lines_Left_Yellow_Gauge" data-name="Lines Left Yellow Gauge"><line class="cls-6" x1="1455.43" y1="441.67" x2="1390.1" y2="414.33"/><line class="cls-6" x1="1473.43" y1="357.67" x2="1399.43" y2="357.67"/><line class="cls-6" x1="1453.47" y1="273.94" x2="1388.55" y2="302.24"/><line class="cls-6" x1="1408.57" y1="204.86" x2="1357.4" y2="258.32"/><line class="cls-6" x1="1338.79" y1="163.25" x2="1311.17" y2="228.47"/><line class="cls-6" x1="1254.87" y1="144.88" x2="1254.54" y2="218.88"/><line class="cls-6" x1="1057.17" y1="441.67" x2="1122.5" y2="414.33"/><line class="cls-6" x1="1039.17" y1="357.67" x2="1113.17" y2="357.67"/><line class="cls-6" x1="1059.13" y1="273.94" x2="1124.05" y2="302.24"/><line class="cls-6" x1="1104.03" y1="204.86" x2="1155.2" y2="258.32"/><line class="cls-6" x1="1173.81" y1="163.25" x2="1201.43" y2="228.47"/></g></g></svg>