<svg id="Decal" xmlns="http://www.w3.org/2000/svg" viewBox="0 0 1024 1024"><defs><style>.cls-1{fill:#8a928d;stroke:#8a928d;}.cls-1,.cls-4{stroke-miterlimit:10;}.cls-2{fill:#fff;}.cls-3{fill:#b40000;}.cls-4{fill:none;stroke:#000;stroke-width:24px;}</style></defs><rect id="Background" class="cls-1" width="1024" height="1024"/><g id="White_Circle" data-name="White Circle"><circle class="cls-2" cx="512" cy="512" r="412"/></g><path id="Red_Part" data-name="Red Part" class="cls-3" d="M912,512H512L714,861.87C836.76,774.25,908,660.29,912,512Z"/><g id="Lines"><line class="cls-4" x1="108" y1="512" x2="172" y2="512"/><line class="cls-4" x1="852" y1="512" x2="916" y2="512"/><line class="cls-4" x1="512" y1="108" x2="512" y2="172"/><line class="cls-4" x1="310" y1="162.13" x2="342" y2="217.55"/><line class="cls-4" x1="714" y1="861.87" x2="682" y2="806.45"/><line class="cls-4" x1="162.13" y1="310" x2="217.55" y2="342"/><line class="cls-4" x1="806.45" y1="682" x2="861.87" y2="714"/><line class="cls-4" x1="162.13" y1="714" x2="217.55" y2="682"/><line class="cls-4" x1="806.45" y1="342" x2="861.87" y2="310"/><line class="cls-4" x1="310" y1="861.87" x2="342" y2="806.45"/><line class="cls-4" x1="682" y1="217.55" x2="714" y2="162.13"/></g><g id="Circle_Outline" data-name="Circle Outline"><path d="M512,132a378.73,378.73,0,1,1-147.9,29.85A377.5,377.5,0,0,1,512,132m0-32c-227.54,0-412,184.46-412,412S284.46,924,512,924,924,739.54,924,512,739.54,100,512,100Z"/></g><g id="Needle"><path d="M376,277,553.54,488A48.74,48.74,0,1,1,479,550.73a49.64,49.64,0,0,1-8.5-14.69Z"/></g><g id="Screw_Heads" data-name="Screw Heads"><path d="M201.94,131.63A52,52,0,0,0,106.87,173Z"/><path d="M110.06,180.37A52,52,0,0,0,205.13,139Z"/><path d="M917.13,173a52,52,0,0,0-95.07-41.4Z"/><path d="M818.87,139a52,52,0,0,0,95.07,41.4Z"/><path d="M173,818.87a52,52,0,0,0-41.4,95.07Z"/><path d="M180.37,822.06,139,917.13a52,52,0,0,0,41.4-95.07Z"/><path d="M829.39,833.17a52,52,0,0,0,71.42,75.17Z"/><path d="M906.61,902.83a52,52,0,0,0-71.42-75.17Z"/></g></svg>