<svg id="Decal" xmlns="http://www.w3.org/2000/svg" xmlns:xlink="http://www.w3.org/1999/xlink" viewBox="0 0 2048 2048"><defs><style>.cls-1,.cls-5,.cls-6{fill:none;}.cls-2{fill:#8a928d;}.cls-3{fill:#545955;}.cls-4{clip-path:url(#clip-path);}.cls-5,.cls-6{stroke:#000;stroke-miterlimit:10;stroke-width:48px;}.cls-6{stroke-dasharray:278 48;}</style><clipPath id="clip-path"><circle class="cls-1" cx="1024" cy="1024" r="880"/></clipPath></defs><circle id="Background" class="cls-2" cx="1024" cy="1024" r="1024"/><path id="Edge" class="cls-3" d="M1975.8,716.42l-39.43,12.45a953.52,953.52,0,0,0-80.57-181.78l38.9-15.22a1001.73,1001.73,0,0,0-91.12-134.23l-33.44,24.44A964.91,964.91,0,0,0,1627.86,279.4l30.89-28.14A995.39,995.39,0,0,0,1125.88,29.13l.82,41.66a969.06,969.06,0,0,0-204.79-.07l-.34-41.54A997.13,997.13,0,0,0,770.22,56.5l13.49,39.2a952,952,0,0,0-191.57,72.19L577.49,129C346.2,244.6,166,447.22,79.76,694l40.06,10.71A953.31,953.31,0,0,0,73,902.63L32.72,891.51A1008.91,1008.91,0,0,0,24,1024c0,193.3,54.85,373.78,149.83,526.75l32.28-26.42A962.33,962.33,0,0,0,333,1688.47l-36.33,21.8A1002.8,1002.8,0,0,0,589.26,1924.8l14.08-39.12A952,952,0,0,0,798.61,1956l-14.45,39A997.81,997.81,0,0,0,920,2018.65l3.92-41.15a969.79,969.79,0,0,0,201.73-.18l2.32,41.33a994.49,994.49,0,0,0,481.32-183.76l-22.86-34.47a964.41,964.41,0,0,0,148.23-133l26.1,32.71a999.73,999.73,0,0,0,205.42-340.27l-39.94-11.1a952.79,952.79,0,0,0,47.93-196.69c13.47,2.67,27.26,5.38,40.64,8a1007.34,1007.34,0,0,0-39-443.63ZM1024,1945.33c-508.84,0-921.33-412.49-921.33-921.33S515.16,102.67,1024,102.67,1945.33,515.16,1945.33,1024,1532.84,1945.33,1024,1945.33Z"/><g id="Grid"><g class="cls-4"><line class="cls-5" x1="1045" y1="30" x2="1045" y2="1986"/><line class="cls-5" x1="725" y1="30" x2="725" y2="1986"/><line class="cls-5" x1="405" y1="30" x2="405" y2="1986"/><line class="cls-5" x1="1685" y1="30" x2="1685" y2="1986"/><line class="cls-5" x1="1365" y1="30" x2="1365" y2="1986"/><line class="cls-6" x1="2036" y1="410" x2="80" y2="410"/><line class="cls-6" x1="2036" y1="306.5" x2="80" y2="306.5"/><line class="cls-6" x1="2036" y1="203" x2="80" y2="203"/><line class="cls-6" x1="2036" y1="617" x2="80" y2="617"/><line class="cls-6" x1="2036" y1="513.5" x2="80" y2="513.5"/><line class="cls-6" x1="2036" y1="916" x2="80" y2="916"/><line class="cls-6" x1="2036" y1="812.5" x2="80" y2="812.5"/><line class="cls-6" x1="2036" y1="709" x2="80" y2="709"/><line class="cls-6" x1="2036" y1="1123" x2="80" y2="1123"/><line class="cls-6" x1="2036" y1="1019.5" x2="80" y2="1019.5"/><line class="cls-6" x1="2036" y1="1430" x2="80" y2="1430"/><line class="cls-6" x1="2036" y1="1326.5" x2="80" y2="1326.5"/><line class="cls-6" x1="2036" y1="1223" x2="80" y2="1223"/><line class="cls-6" x1="2036" y1="1637" x2="80" y2="1637"/><line class="cls-6" x1="2036" y1="1533.5" x2="80" y2="1533.5"/><line class="cls-6" x1="2036" y1="1936" x2="80" y2="1936"/><line class="cls-6" x1="2036" y1="1832.5" x2="80" y2="1832.5"/><line class="cls-6" x1="2036" y1="1729" x2="80" y2="1729"/></g></g></svg>