<svg id="Decal" xmlns="http://www.w3.org/2000/svg" viewBox="0 0 2048 2048"><defs><style>.cls-1{fill:#646464;}.cls-2{fill:#969696;}.cls-3{fill:#1e5aa8;}.cls-4{fill:#f4f4f4;}.cls-5{fill:#050306;}</style></defs><circle id="Background_Color" data-name="Background Color" class="cls-1" cx="1024" cy="1024" r="1024"/><g id="Light_Grey_Sectors" data-name="Light Grey Sectors"><path class="cls-2" d="M1918.18,646.31a973.89,973.89,0,0,0-516.39-516.39C1282.17,79.33,1155.1,53.68,1024.1,53.68c-188.06,0-370.47,53.86-527.5,155.77a972.46,972.46,0,0,0-342.8,385l896.38,410.84,1.21.55,1.12.7,810.07,506.1A968.54,968.54,0,0,0,1994.42,1024C1994.42,893,1968.77,765.92,1918.18,646.31Z"/><path class="cls-2" d="M792.16,1140.72,130.06,1396.4c34,81.52,76.85,158.69,131.91,228.33,59.26,75,131.21,139.92,209.57,194.48,162.6,113.21,353.57,175.11,552.46,175.11,106.07,0,210.2-19.06,309.65-52.6L1024.71,1104.8Z"/></g><g id="Blue_Sectors" data-name="Blue Sectors"><path class="cls-3" d="M1202.58,722.58l354.5-509.48C1404.09,112.32,1220.9,53.68,1024,53.68q-42.86,0-84.79,3.66L968.6,786.52,897,1091.44,229.15,1580.65c175.5,250.15,466.08,413.67,794.85,413.67q17.94,0,35.71-.65L1024,1224.6Z"/></g><g id="White_Reflection" data-name="White Reflection"><path class="cls-4" d="M1257.63,951.05l659.55-306.8A972.77,972.77,0,0,0,1669,299.08l-615.06,652Z"/><path class="cls-4" d="M924.56,1168.52,446,1803.41a967.49,967.49,0,0,0,286,146.18l253.15-725Z"/></g><g id="Center_Part" data-name="Center Part"><circle id="Ring" class="cls-5" cx="1024" cy="1024" r="395.01"/><circle id="Center" class="cls-2" cx="1024" cy="1024" r="200.6"/></g></svg>