<svg id="Decal" xmlns="http://www.w3.org/2000/svg" viewBox="0 0 2048 2048"><defs><style>.cls-1{fill:#f4f4f4;}.cls-2,.cls-3{fill:#fff;}.cls-2,.cls-3,.cls-4,.cls-5{stroke:#000;}.cls-2{stroke-width:64.17px;}.cls-3{stroke-width:48.13px;}.cls-4,.cls-5{fill:none;stroke-linecap:round;}.cls-4{stroke-width:64px;}.cls-5{stroke-width:32px;}</style></defs><circle id="Background_Color" data-name="Background Color" class="cls-1" cx="1024" cy="1024" r="1024"/><g id="Black_Edge" data-name="Black Edge"><path d="M1024,256c424.15,0,768,343.85,768,768s-343.85,768-768,768-768-343.85-768-768,343.85-768,768-768m0-64a838.22,838.22,0,0,0-167.61,16.9A831.77,831.77,0,0,0,208.9,856.39a839.61,839.61,0,0,0,0,335.22A831.77,831.77,0,0,0,856.39,1839.1a839.61,839.61,0,0,0,335.22,0,831.77,831.77,0,0,0,647.49-647.49,839.61,839.61,0,0,0,0-335.22A831.77,831.77,0,0,0,1191.61,208.9,838.22,838.22,0,0,0,1024,192Z"/></g><g id="Lines"><line class="cls-2" x1="1024" y1="460.53" x2="1024" y2="256"/><line class="cls-2" x1="1024" y1="1792" x2="1024" y2="1587.47"/><line class="cls-2" x1="460.53" y1="1024" x2="256" y2="1024"/><line class="cls-2" x1="1792" y1="1024" x2="1587.47" y2="1024"/><line class="cls-3" x1="1343.98" y1="474.75" x2="1410.59" y2="360.4"/><line class="cls-3" x1="637.41" y1="1687.6" x2="704.02" y2="1573.25"/><line class="cls-3" x1="474.75" y1="704.02" x2="360.4" y2="637.41"/><line class="cls-3" x1="1687.6" y1="1410.59" x2="1573.25" y2="1343.98"/><line class="cls-3" x1="1574.71" y1="706.55" x2="1689.37" y2="640.46"/><line class="cls-3" x1="358.63" y1="1407.54" x2="473.29" y2="1341.45"/><line class="cls-3" x1="706.55" y1="473.29" x2="640.46" y2="358.63"/><line class="cls-3" x1="1407.54" y1="1689.37" x2="1341.45" y2="1574.71"/></g><g id="Arms"><polyline class="cls-4" points="850 484 1024 1024 1436 1022"/><line class="cls-5" x1="1032" y1="1020" x2="604" y2="1460"/></g></svg>