<svg id="Decal" xmlns="http://www.w3.org/2000/svg" xmlns:xlink="http://www.w3.org/1999/xlink" viewBox="0 0 2048 2048"><defs><style>.cls-1{fill:#fac80a;}.cls-2{clip-path:url(#clip-path);}.cls-3{fill:#b40000;}.cls-4{fill:#00451a;}</style><clipPath id="clip-path"/></defs><path id="Base" class="cls-1" d="M2048,1024C2013.71,2389.48,34.09,2389.2,0,1024,34.29-341.47,2013.91-341.19,2048,1024Z"/><g id="Sauce"><g class="cls-2"><path class="cls-3" d="M1049.55,1014.57c-.72-4.84,1.29-8.85,3.47-13L1436,280.4c14.3-27,37-19.63,64-15.84,18.63,2.61,53.67,58.68,66,82.4,14.33,27.47,11.09,37.41,27.46,38.65,18.31,1.39,14.2,2.67,134.79,123.27,1.39,1.38,3.2,2.53,4.09,4.18,19.35,35.77,45.39,68.43,52.38,110,8.23,48.88,3.3,56.17,14.29,60.48,40.78,16,60.09,27.7,64.39,77.43,1.13,13.14-10.07,27.38-22.27,31.18C1012.84,1047.83,1071.31,1044.87,1049.55,1014.57Z"/><path class="cls-3" d="M992.91,1007.54C753.13,135.26,764,187.64,774.1,187.85c19.89.42,32.87,1.62,42.92-16.93,9-29.47,32.47-33.82,58.3-34.41,13.45-.54,23.77,29.39,60.37,10.27,35.61-18.6,37.17-20.69,40.45-27.42,7.26-14.87,17.78-19.8,34.43-17.59,106.29,14.08,115.76,52.67,125.19,31.67,5.63-12.55,21-19,35.33-16,56.46,7.68,25.62,43.26,67.58,51.69,15.91,2.25,31.74,4.46,47.41-.09,7.46-2.17,11.17.62,15.21,6.26,9.31,13,9.54,12.79,23.54,4.17,15.52-9.55,31.33-15.8,45.44-4,12.07,10.09,27.7,15.42,36.92,29.64,9.49,14.65,10,30.74,2.73,44.29C1368,327.74,996.07,1002.08,992.91,1007.54Z"/><path class="cls-3" d="M1845.77,830.22c22.56-5.1,28.62-2,37.51,19.07,23.07,54.72,38,56.52,26,76.43-8.1,13.47-10.48,28.36-9.33,44.08.43,5.83,1.52,10.28,7.21,12.33,15.62,5.61,21.35,17,20.61,33,11.29,93.45-29.55,51.59-72.32,157.13-35.85,82.64.42,94.63-9.24,148-2,10.9-4.36,20.94-12.59,28.67-8.75,8.21-12.2,18.15-10.32,29.9,4.65,29.06-30.42,16.68-37.92,66.35-.76,5.06.28,12.7-6,14.28-9.71,2.45-19.44,7.41-30.12,1.36-694.89-393.54-735.51-390.71-687.15-404.47C1895.4,819.25,1818.05,836.49,1845.77,830.22Z"/><path class="cls-3" d="M961.71,1018.53C526.39,784.27,666.06,857.19,503,757,283.35,622,285.79,633.5,283.11,619.36c-10-52.63-36.72-59.4-23.44-94.38,10-26.35,28.74-46.35,45.39-67.86,10.75-13.89,43.37-17.33,72.06-55.26,12.61-16.67,28.72-30.19,43.14-45.23,9.89-10.31,23.93-6.24,111-47.48,24.17-11.46,45.62-1.74,50.29-20,6.37-24.91,18.84-46.93,33-68.17,3.49-5.23,7.34-7.43,13.41-7.83,11.69-.77,23.32-2.49,35-3.3,5.14-.36,8.92-1.86,10.33-7,5.58-20.46,19.78-29.21,40.08-31.81,15.63-2,12.42-5.65,17,10.81C766.81,312.88,960.36,1012.66,961.71,1018.53Z"/><path class="cls-3" d="M1131.75,1468.54c-2.58-36.24,16.81-29,4.42-39-31.18-25.32-34.81-26.14-38.17-38.69-75.08-280.24-79.69-292.58-72-293.48s-14-8,718.44,399.11c12.14,6.74,13.94,17,5.28,27.72-53.31,66.06-83.19,64.41-88,79.95-6.73,21.8-20.86,38.12-36.76,54.06-119.46,119.74-127.69,104.34-180.73,120.8-28.23,8.76-30.62-7.5-48.64,3.85-36.51,22.31-29.93,58.2-85.67,96.72-14.7,1.38-57.15,12.68-63-7C1126.44,1466.07,1128.62,1485.93,1131.75,1468.54Z"/><path class="cls-3" d="M653,882.33c275.22,165.43,316.63,174,266.26,187.3L206,1259.18c-17.31,4.61-27.51-1.34-37.21-16.52s-6.44-29.82-3.19-44.85c1.59-7.37,9.84-9.9,15.07-14.6,11.26-10.12,13.22-6.84,3.87-20.56-19.33-28.36-20.24-62-28-93.71-1.18-4.83,6.85-34.76,8.65-39.8,13.2-37.73-8.76-43-2-62.09,13.89-47,31.46-38.23,27.09-58.38-4.95-22.81-3.78-46-4-69.12-.21-26,47.48-54.24,40.92-121.64-2.49-25.56,12.3-40.17,32.16-51.47,14-8,27.82-2.77,39.7,4C653.52,873.5,534.06,821.76,653,882.33Z"/><path class="cls-3" d="M1088.27,1909.85c-41-4.35-28.47-19.49-55.85-20.62-30.59-1-66.25-6.57-86.73-1.85-18.11,4.18-36.45,2.48-54.48.22-77.56-9.75-125.41,24.61-161.18-6.48-23.57-20.49-51.48-34.1-78.6-48.94-19.45-10.64-48.48-34.88-37.69-54.11,384-684.44,364.92-661.68,371.48-660.21,9.26,2.07-4.28-45.39,215.52,728.65,4.87,16.94-6.7,33.82-23.72,36.29C1142.58,1877.93,1114.88,1908.26,1088.27,1909.85Z"/><path class="cls-3" d="M542.24,1782.25c-14.47,1.8-20.15-9.42-27-18.6-6.17-8.28-1.6-21-21.28-25.61-15.77-3.68-26.63-15.33-36.78-27.3-3-3.51-9.86-32.35-45.56-46.65-5.59-2.24-9.13-6.68-12.23-12-22-37.68-43.81-75.46-58.44-116.83-8.51-24.06-19.59,5.45-63.07-49.33-87.67-107.33-46.55-87-93.46-160.93-10.86-15.25-4.8-31,13.23-35.63,796.61-204.91,522.75-129.73,730.91-191.26,4.55-1.35,10.16-4.66,16,2.12,4.92,5.65-176.88,311.1-274.58,503.16-9.07,17.82-21.29,33.55-38.17,44.89-19.27,13,5.17,21.42-19.93,56-35.23,48.52-13,30.47-55.24,74.09C552.39,1782.82,547.39,1782.18,542.24,1782.25Z"/></g></g><g id="Olives"><path class="cls-4" d="M1429.94,952.49c17.28,6.51,45,13.49,43.91,50.22s-32.07,67.34-71.69,57.38c-10.69-2.14,2.89-17.19-11.88-15.62-13.23.88-19.48,12-31.94-14.94s-1.52-41.62,17.33-57.86S1412.65,946,1429.94,952.49Z"/><path class="cls-4" d="M547.67,952.56c-5.87-18.5-12-33.34-7.11-43.56s10-13.9,22.62-17.86c30.28-14.25,49.82,10.42,28.34-30.67-10.19-37.29,49.63-3.83,59.33,11s14.67,84.51-32.36,56.85c-15.36-14.43-31.44-10.85-48.33-1.6,15.93,14.54,50.73,14.82,38.63,45.94C605.57,981,553.53,971.05,547.67,952.56Z"/><path class="cls-4" d="M1428.94,479.86c44.78-48.47,121.84-22.68,127.17,39.34S1526,624.66,1469,595.6c10.08-6.11,19.17-11,12.22-23.53-12-12.85-41.2,11.27-52.09-6.07C1414.16,543,1409.07,498.51,1428.94,479.86Z"/><path class="cls-4" d="M1350,768c-31.31-35.69-72.06-1.18-50.75-42.22,34.8-74.46,146.44-8.57,94.34,17.71-19.73,13.4,6.94,11.44,1.66,23.27-9.58,14-20.88,24.89-38.62,28.36-18.17,2.67-46.38,6.51-53.87-14.54C1296.56,775.43,1343.76,770.61,1350,768Z"/><path class="cls-4" d="M1033.94,510.68c10.62,20.1,23.32,56.55,7.85,85.63-7.57,15.63-18,29.28-38.16,30.05-41.94,11.61-80.89-23.16-83-65.58-.88-38.61,6.4-73.33,53.7-76.22S1023.32,490.58,1033.94,510.68Z"/><path class="cls-4" d="M1205.26,239.69c91.24,7.65,71.62,123-14.93,117.06C1119.43,352.57,1144.06,234.57,1205.26,239.69Z"/><path class="cls-4" d="M1650.36,1074.48c4.38,6.56,7.42,11.54,10.64,30.85s-16.13,41-47.58,45.73c-11.22,2.52-21.45-9.17-31.05-14.33-28.31-15.09-27.79-41.87-20.26-64.51C1568.49,1047.48,1629.74,1037.28,1650.36,1074.48Z"/><path class="cls-4" d="M644.63,313.83c-9.08-71.62,54.64-105.55,87.17-30.22C748.13,318.22,750,376.19,707,387.35,665.11,398.56,640.25,353.94,644.63,313.83Z"/><path class="cls-4" d="M711.61,522.09c19.08,25,20.74,52.91,5.09,78.88-9.53,17.78-51.89,19.63-63.33-12-11.51-26.07-14.43-62,16.3-75.35S711.61,522.09,711.61,522.09Z"/><path class="cls-4" d="M1606.42,1490.43c30,6.32,26.6-20.64,51.67-4.37s4.48,57.57-26.89,71.44c-13.81,7-25.88.2-39-3.83-19.21-5.91-23.82-22.41-29.07-37.27-3.29-7.85-7.77-20.46,3.35-28.06S1576.43,1484.1,1606.42,1490.43Z"/><path class="cls-4" d="M1238.93,1367c-.49-60.21,86.31-55.63,86-5C1332.16,1424.23,1239.41,1425.81,1238.93,1367Z"/><path class="cls-4" d="M290.8,875.87c20.81.47,51.24,24.75,56,44.92,3.2,42.1-27.42,69.6-68.27,50-32.7-17.1-33.5-44.18-21.38-74.53C262.22,878.35,276.33,877.64,290.8,875.87Z"/><path class="cls-4" d="M802.73,1607.59C801,1605.67,793,1594,790.63,1584c18.34,5.64,36.28,10.48,53.13,18.61,11.83,5.71,11.38,5.59,18.35-5.41,4.4-7-1.36-10.23-4-14.33a27.56,27.56,0,0,0-34.74-10.37c-64.1-24.47-4.31-45.77,26.68-62,15.83-6,27,5.36,35.79,15,16.34,8.87,22.78,22.6,24,41.06s-7.86,31.67-18.15,44.26c-14.36,19.93-49.82,8.14-59.92,8.61S804.46,1609.52,802.73,1607.59Z"/><path class="cls-4" d="M964.83,1666.33c59.53-43.2,111.31,36.8,74.75,71.86-5,4.85-4.78,9.81-15.18,14.31s-32.06,8-45.5-1.3C927.64,1715.62,944.74,1680.92,964.83,1666.33Z"/><path class="cls-4" d="M943.67,1433.67c-10.75-21.57-4.31-31.49,2.51-43,13.3-20.77,38.38-14.46,52.38-6.73s18.47,21.44,11.93,37.73c-3.69,9.19-18.07,19.41-29,22.38S954.41,1455.24,943.67,1433.67Z"/><path class="cls-4" d="M634.69,1444.32c-.36,20.35-37.73,47.58-64,50.13s-81.43-41.23-43.85-84.59c15.52-17.9,37.43-17,61.48-20s35.09,14.2,38.28,21S635,1424,634.69,1444.32Z"/><path class="cls-4" d="M449.85,1336.42c-31.22,80.86-107.92,36.68-88-31.7,10.8-25.51,50.21-22.88,67.1-9.52S457.24,1317.28,449.85,1336.42Z"/><path class="cls-4" d="M661.45,1223.56c5.58,1.57,43.71,23,43.51.27-.05-5.61-14.08-19.51-41-10.83-6.73,2.17-11.27,12.74-11.94,10.35C645,1198,671.24,1168,702.9,1173c18.84,2.78,29.07,23.86,38.43,38.84,5.39,7.92,1,26.18-9.08,32.06-28.29,21.66-73.93,3.09-75.09-2.88S659.91,1223.13,661.45,1223.56Z"/></g><g id="Cheese"><path class="cls-1" d="M1494.88,454.94c-31.91.09-30.94,10.11-30.32,8.73,15.89-35.39-34.88-41.61-15.28-80.85,6.67-13.35,7.34-22.22,21.87-17.2,6.08,2.09,10,4.05,8.68,11.08C1474.67,403.17,1488.46,419.53,1494.88,454.94Z"/><path class="cls-1" d="M1444.92,629.82c9.66,4,36.32,7.11,18.32,30.48-10.66,13.85-24,25.36-40.41,32.54-6.76,2.94-10.19,2.18-9.61-6.41s.11-17.5.12-26.26C1413.36,646.13,1428.83,630.32,1444.92,629.82Z"/><path class="cls-1" d="M1567,793.24c-4,.43-4.73-2.1-5-6-1.18-14.9-10.23-23.61-25.06-24.6-7.48-.5-17-16.72-14.29-24.78,4.22-12.73,19.06-46.57,31.43-41.08,4.26,1.89,1.14,5.67.66,8.57-5.66,34.43-13.35,31.48,7.79,45.71,12.67,8.53,17.17,23.47,11.19,37.16C1571.72,792.65,1571.12,793.13,1567,793.24Z"/><path class="cls-1" d="M1221.35,926.73c-5-.74-12.38,2.66-14.57-1.6-2.92-5.69,14.81-15.28,19.91-33.1,3.59-12.53,26-20.2,39.74-12.22,6.29,3.66-5.06,7.09-11.21,37.52-.8,4-3.73,5-7,5.77C1239.42,925.2,1230.62,928.11,1221.35,926.73Z"/><path class="cls-1" d="M1368.11,858.31c8.64-21.86,14.51-41.64,30.75-56.19,5.75-5.15,10.34-1,15.31.24,18,4.56,5,47.15-15.2,42.46C1386.78,842,1379.55,851.51,1368.11,858.31Z"/><path class="cls-1" d="M1428.94,479.86c-13,48.69-9.27,42-16.11,42-16.14-.11-19.18-3.12-20.3-19.44-.63-9.28,1.89-18,3.93-26.85,1.23-5.33,5.22-5.73,9.48-6.6C1422.55,465.54,1422.53,465.44,1428.94,479.86Z"/><path class="cls-1" d="M1498.93,859.86a13.05,13.05,0,0,1-12.28-18.25,258.41,258.41,0,0,1,12.15-24.44c2.65-4.88,29.29-15.38,25.24-2.57C1509.55,860.34,1505.42,860.15,1498.93,859.86Z"/><path class="cls-1" d="M1389.7,603c-7,.29-16.86-6.89-15.67-11.82,1.84-7.59,9.89-5.69,15.21-6.56,8-1.31,10.77,7.38,11.32,11.76C1401.34,602.61,1392.51,600.21,1389.7,603Z"/><path class="cls-1" d="M1182.92,905.62l-42.64-4.31C1149,892.44,1165.45,893.69,1182.92,905.62Z"/><path class="cls-1" d="M1079.2,743.48c-2.86,11.56-1.35,24.11-7,35.13-2.19,4.23.13,6.53,2.63,9.3,4.89,5.39,2.32,17.74-5.11,25.52-6.71,7-28.68,6.15-23-6.75,3.09-7,4.9-27.89.34-31.08-11-7.72-7.11-19.16-7.49-29.49,0-1.43.69-3.89,1.64-4.21,10.37-3.52,19.4-12.59,31.93-7.62C1077.54,736.06,1080.57,737.94,1079.2,743.48Z"/><path class="cls-1" d="M920.59,297.75c-1.57,5.62-1.46,13.63-5.14,16.2-4,2.81-9.05-4.21-13.67-6.86-5.78-3.31-11.31-18.34-33.34-19.4-13.7-.66-8.36-11.46-17.06-38.72-2.77-8.69.87-13.83,7.55-17.69,2.94-1.69,16.36,7.07,16.44,11.53.32,18.37,9.83,26.56,27.38,29.17C910.8,273.17,920.68,289.83,920.59,297.75Z"/><path class="cls-1" d="M1121,562.93c10.3,0,17.36,6.43,14.46,16.59-4.43,15.53-1.68,30,.64,45.06.93,6,.05,12.34.24,18.51.14,4.47-1.32,7-6,8.49-19.27,6-21.95-11.71-17.2-26.09,2.4-7.27,2.82-12.43-7.75-11.73-5.87.39-11.08-11.29-8.35-18.62,3.51-9.41,7.91-18.5,11.76-27.8C1111.42,561,1116.93,563.58,1121,562.93Z"/><path class="cls-1" d="M1033.94,510.68c-.73-.78-2.53-1.61-5.38-4.57,1.64-.57-8.61-15.58-.75-32,1.77-3.7-1.92-5.61-4.58-7.53-20.46-14.71-9.91-56.09,22.18-47.48,3.66,1,3.51,2.95,2.92,5.78C1040.71,461.71,1061.16,494.48,1033.94,510.68Z"/><path class="cls-1" d="M1203,478.15c-22-25.22-25-32.45-31.13-19.95-1.47,3-3.1,6.37-7.28,7.3-23.77,5.29-2.46-18.26-21.78-26.8-9.17-4.05-8.19-13.23-10.5-20.72a2.46,2.46,0,0,1,2.46-3.34c4.46-.2,11-2.44,12.85,1.65,8.63,19,25.67,19.13,42.27,20,14.11.72,18,11.38,21.7,21.61C1214.26,465.23,1205.78,468.74,1203,478.15Z"/><path class="cls-1" d="M1212.49,545.15c1.15,4,1,8.29-5.3,10.43-7,2.39-7.21-3.89-9.45-7.17-7.36-10.81-12.81-22.59-17.57-34.79-2.21-5.69-1.05-7.95,4.67-9.91C1211.4,494.6,1209.54,517.42,1212.49,545.15Z"/><path class="cls-1" d="M972.35,835.33c-1-6.55,3.49-9.25,17.69-23.44,8.51-8.51,11.43-8.53,20.45-.14,5.12,4.76,4.06,11-3.16,18.28-21.21,21.41-17.09,20-30.05,16.35C971.51,844.73,972.54,840.25,972.35,835.33Z"/><path class="cls-1" d="M1039.46,685.89c-3.37-1.1-8.67,2.19-10.47-3.82-1.65-5.51,1.91-8.65,6.09-10.81,16.08-8.31,25.05-31.54,33.63-33,3.61-.59,8-5.14,10.59-1.19,9.08,13.62-14.37,21.92-28.65,46.2C1048.3,687.32,1043.52,685.32,1039.46,685.89Z"/><path class="cls-1" d="M900.87,367.21c0,16.77,1.22,18.12-2,19.46-4.11,1.72-9-1-12.67-3.5-12.7-8.71-11.59-34.52,1.35-43C891,338,891.92,340,893.7,342,900.9,349.85,902,359.24,900.87,367.21Z"/><path class="cls-1" d="M1609.88,1198.41c11.24-2,13.91,7.07,16.78,13.56s-.24,15-5.76,18.07c-24.9,13.68-23,51.07-42.75,43.11-17.61-7.12-5.76-26.06-6.35-30.08-2.49-16.92,6.21-26.79,20-34.19C1598.12,1205.53,1601,1196.23,1609.88,1198.41Z"/><path class="cls-1" d="M1744.27,976.84c-1.65-12.54,16.79-17.56,8.38-38.15-3.53-8.67,9.19-22.47,18.94-22.42,11.08.05,21.64-11.06,30-10.19,3.76.39,9.54-2.73,10.73,3.23,1.09,5.41,2.56,12.15-4.09,15.71-12.91,6.92-19.19,17.62-19.69,32.1C1788.34,963.74,1787,962.59,1744.27,976.84Z"/><path class="cls-1" d="M1428.33,1198.28c-9.44,2.13-17.83-4.08-26.84-8.41-4.28-2-4.17-5.68-3.32-9.1,1.19-4.81,4.68-1.41,7.16-1.34,8.05.23,16.63,8.22,25.94-6.57,2.47-3.93,3.74-11,11.64-9.31,8.48,1.77,12.95,5.44,11.66,15.14C1452.94,1190.87,1444.27,1198.28,1428.33,1198.28Z"/><path class="cls-1" d="M1691.59,942.3c8.87-1.78,15.62.17,20.21,9,8.44,16.23-20.09,7.51-40.08,14.4-11.92,4.11-32.36-3-9.36-14.89C1671.53,946.08,1680.32,939.77,1691.59,942.3Z"/><path class="cls-1" d="M1290.24,1119.77c1.53,8.81-5,9.08-25,23.44-3.59,2.57-6.59,3.86-10-.18-2.85-3.34-6.83-5.52-3.71-11.4,4.9-9.23,9.34-18.36,19.56-23.11C1280,1104.38,1290.28,1109.82,1290.24,1119.77Z"/><path class="cls-1" d="M1358.33,1106.14c8-8.32,12.42-4.29,44,7.79,2.65,1,6.25,1.88,4.76,5.83-2.08,5.52-.23,13.36-6.47,16.21-3.82,1.75-11.18,3.12-13.45-1.47C1380.73,1121.55,1367,1116.61,1358.33,1106.14Z"/><path class="cls-1" d="M1516,1269.6c-13-7-19.82-1.69-23.56,10.62-2.41,7.92-16.91-7.28-6.33-16.55,9.63-8.45,21.81-12.47,33.08-18,3-1.49,15.66,6.44,15.52,9.56C1534.21,1265.47,1527.2,1266,1516,1269.6Z"/><path class="cls-1" d="M1535.6,1016c-12.31,28.73,17.4,33.49,7.29,41.91-2.61,1.91-4.19,7.39-8.17,4.84-8.92-5.72-8.33-8.4-7.12-14.22,3-14.18,3.2-14.69-10.45-21.18-10.88-5.17-3-12.08-2.68-18.18C1515,997.64,1533.73,1004.47,1535.6,1016Z"/><path class="cls-1" d="M1238.08,1079.55c-33.66-24.11-36.25-23.5-34.6-31.73,1-4.82,5.09-3.14,8-3.19C1228.3,1044.33,1240.5,1059.44,1238.08,1079.55Z"/><path class="cls-1" d="M803.34,674.7c-.67,4.64,2.09,10.2-5.23,12.89-6.92,2.56-12.08,2.71-16.92-3.68-3.3-4.36-8-7.66-11.51-11.87-4.3-5.11-9.21-7.17-16-7-11.93.31-22.64-13.12-20.21-24.66,1.77-8.44,2.53-17,10.13-23.44,14.9-13.31,20.78,3.87,21.8,17.23.34,13.82,11.29,13.42,23.4,19.18C797.71,657.6,805,663.16,803.34,674.7Z"/><path class="cls-1" d="M644.55,636.65c0,8.05.87,13.52-3.42,12.07-6.84-2.31-15.81-.57-19.84-8.39-4.81-9.33-11.09-11.25-21.26-8.94-16.37,3.71-16.58,2.94-18.51-13.74-.82-7.11-.61-14.46-2.41-21.3-5.55-21.07,23.77-30.08,24.38-12.83.82,23.29-3,31.57,7.45,28.87C631.39,607.09,644.6,615,644.55,636.65Z"/><path class="cls-1" d="M803.76,794.41C807,776,822.07,751.13,831,766.64c4.89,8.46,9.55,17.07,8,27.45-1,6.9,1.53,11.15,8.73,12.38,9,1.52,12.32,9.31,15.46,16.13,2.1,4.58-.68,9.76-6,11.46-15,4.82-4.56-18.16-20.44-12.69C814.44,829.63,805.94,814.42,803.76,794.41Z"/><path class="cls-1" d="M430.46,579.71c-18.47,17-34,37.32-60.38,42.45-5.36,1.05-7.92,1.08-10.23-4.57-7.8-19.09-7.54-18,10.82-27.25C389.78,580.7,410.67,584.58,430.46,579.71Z"/><path class="cls-1" d="M813.58,887.1c.17-13.54,4.61-17.91,21.25-20.86,8.34-1.49,33.32,11.86,20.07,38.51-5.11,10.29-10.23,12-21.14,8C822.64,908.6,813.45,896.92,813.58,887.1Z"/><path class="cls-1" d="M743.29,537.22c12.92,0,25.17-.56,37.33.2,7.51.47,11.86,9.86,12.91,20.13,1,9.76-4.32,12.38-11.88,14-1.94.42-3.95,1.26-5.6-.13C764.32,561.56,749.91,554.24,743.29,537.22Z"/><path class="cls-1" d="M623.43,713.88c-2.25,6.62-10.13,6.82-15.39,10.39-4.29,2.91-6.07-.49-8.69-3.07-9.18-9-12.5-19-7.13-31.38C596,681,604.67,678,611.33,672.58,614.82,669.75,614.87,675.26,623.43,713.88Z"/><path class="cls-1" d="M711.61,522.09l-30.26-10.87c39.3-26.87,24.84-19.29,52.34-19.87,3.2-.07,3,2.93,2.95,5.14C736.55,508.89,739.6,504.7,711.61,522.09Z"/><path class="cls-1" d="M484.3,679.21c-27.82,7.65-31.44-8.39-46.35-25.17-4-5.2-1-27.58,5-20.94Z"/><path class="cls-1" d="M747.62,747.26c-.15-12.57,11.46-29.74,18.74-29.11,2.4.2,10.92,15.87,10.81,19.89-.26,10-10.43,18.78-21.74,18.51C748.43,756.39,750.05,749.58,747.62,747.26Z"/><path class="cls-1" d="M1128.19,1272.62c4.83-1,2.5,4.73,3.36,12.38.48,4.16-2.19,9.61,3.87,11.8,5.64,2,11.07,5.08,17.28.21,3.24-2.53,7.22-8.64,12.22-3.17,5.15,5.64,15.46,9.22,9.77,20.38-3.39,6.66-2.38,14-2,21.09.49,9-6.8,8.22-11.73,10-5.48,2-6.12-3.28-7.83-6.47-5.13-9.59,4.61-24.68-8.83-20.52-15.38,4.76-34.15-10.14-33.67-26.13C1110.8,1286.56,1122.93,1273.18,1128.19,1272.62Z"/><path class="cls-1" d="M1195.69,1425.43c5.56,1.27,7.69,5,7.69,11.19,0,12.6.33,12.6,12.63,10.05,30-6.24,19.2,18.35,34.68,38,2,2.52,4.27,5.54.7,8.5-3.26,2.7-5,8.1-11,6.26-24.21-7.42-13.63-19.77-40.54-31.23C1185.19,1462,1186,1420.7,1195.69,1425.43Z"/><path class="cls-1" d="M1302.15,1572.43c9.31-3.12,12.35,5.56,16.77,12.22,2.28,3.43-.34,5.25-2.16,7.52-15.12,18.77-45.92,25-56.27,29.44-7.13,3.06-10.61-1.62-13.61-6-3.69-5.32,3-6,5.23-8.24,5-4.92,12.86-7.35,15-14.77C1272.16,1575.41,1285.63,1572.92,1302.15,1572.43Z"/><path class="cls-1" d="M1403.12,1513.56c-.09,5.8.52,11.6-2.49,17.16-2.65,4.91-4.81,4.57-7.47.42-2.94-4.59,1.26-21.86-22.81-29.05-14.93-4.46-20.18-17.54-26.82-29.27a8.43,8.43,0,0,1,5-12.59c27.56-7,.86,18.64,34.32,23C1397.08,1485.15,1403.41,1495.13,1403.12,1513.56Z"/><path class="cls-1" d="M1167.24,1218.94c-4.44,9.63.3,23.2-12.45,30.51-24.39,14-22.9-31.29-10-56.89,3.08-6.09,7.86-4.51,12.48-4.66C1163.31,1187.7,1162.35,1190.2,1167.24,1218.94Z"/><path class="cls-1" d="M1377.51,1393c21.14-5.71,14.57,33.14,8.6,54-1.72,6-4.39,6.76-9.35,1.91-14-13.68-18.6-36.28-10.26-52.86C1369.23,1390.61,1374,1393.93,1377.51,1393Z"/><path class="cls-1" d="M1238.93,1367l5,21.38c-3,5.13-1.9,12.45-8.35,15.78-9.82,5.08-30.87-.68-27.24-29,.61-4.75-2.93-10.69,3.5-14C1224.87,1354.53,1228.41,1360.55,1238.93,1367Z"/><path class="cls-1" d="M1243.12,1561.35c-8.6,10.24-18.95,12.37-30.46,11.11-8.35-.91-29.28-30.79-15.05-30.9C1217.5,1541.42,1212.1,1540.59,1243.12,1561.35Z"/><path class="cls-1" d="M1566.91,1488.89c-22.79-6.63-40.54-21.18-57.72-36.64-4.44-4,.61-8.7,4.84-5.64,12.44,9,26.75,14.59,40,22.16,7.44,4.27,7.27,14.23,13,20.08Z"/><path class="cls-1" d="M434.35,875.09c-5.27,33.46-4.21,33.34-27.14,35.27-19.9,1.67-10.33-18.9-11-27.64C394.84,866,406.36,857,416.75,847.33c3.7-3.44,11.4-.51,12.91,5.07C431.76,860.22,433,868.27,434.35,875.09Z"/><path class="cls-1" d="M675.34,986.61c-.82-7.09,2-8.66,8.43-6.48,5.22,1.79,11,2.32,15.86,4.7,19.37,9.44,15.12-17.31,24.24-15.77,5.46.92,9.1,4.65,9.3,10.88.24,7.5,5.86,14.64,1,22.53-8,12.85-35.39,19.76-39.46,14.65C670.79,987.1,676.25,994.41,675.34,986.61Z"/><path class="cls-1" d="M294.88,1130.19c-4,25-18.11,40.13-42.26,46.28-4.62,1.17-13.24-7.68-11.65-12.3,7.28-21.09,20.08-37.56,41.33-46.14C287.65,1115.87,295.26,1123.56,294.88,1130.19Z"/><path class="cls-1" d="M787.8,1066.06c-4,15.62-2.68,18.17-8.5,19.41-15.48,3.29-25-29.78-31.12-44.16-1.57-3.66.91-7,3.29-9.64,2.69-3,5.22.21,7.81,1C776.36,1038,780.8,1053.49,787.8,1066.06Z"/><path class="cls-1" d="M327.51,1166.93c-13.92-16.82-8.84-30,11.91-35.84,24.28-6.89,25-5.21,36.71,10.48C354.45,1153.12,335.63,1144.49,327.51,1166.93Z"/><path class="cls-1" d="M492.59,1099c-8.62-1.64-14.76-5.65-18.92-13.44-12.44-23.34-15.83-12.6-9.31-32.69C468.63,1039.78,522.18,1104.66,492.59,1099Z"/><path class="cls-1" d="M499.85,869.54c-10.8-1.79-21.07-5.69-32.33-.78-4.75,2.08-8.69-3.55-10-7.41s4.06-4,6.72-5.28c23.59-9.41,20.84-13.88,47.2-7.28C520.64,850.59,517.45,872.46,499.85,869.54Z"/><path class="cls-1" d="M609,972.65c5.11-.09,18.4,11.15,19.2,35.51.78,24.17-24.18-1.38-25.64-18S603.89,972.74,609,972.65Z"/><path class="cls-1" d="M429.44,1016.33c0,6.87,1.46,13.41-6,16.62-4.58,2-7.58,7.89-14.42,3.24-30.82-20.92,11.05-38.13,18.6-31.89C431.56,1007.56,428.64,1012.89,429.44,1016.33Z"/><path class="cls-1" d="M967.8,1668.92l-1.47,1.68c-11.71,2.74-23.4,5.57-34-3.31-1.87-1.56-5.63-2.41-2.6-5.59,12.48-13.1,10.07-30.12,12-45.84,2.91-23.22-4.87-32.85,6.71-36.64,5.33-1.74,5.85,3,7.23,5.85,5.55,11.56,13.86,22.26,11.86,36.32a3.66,3.66,0,0,0,.58,2.79C982.45,1637.65,973.2,1651,967.8,1668.92Z"/><path class="cls-1" d="M910.84,1375.49c9.27-16.83.89-32.58-3.37-48.73-2.34-8.85,9.08-25.06,18.18-25.18,5.42-.07,11.15,1.87,10.86,9.47a78.28,78.28,0,0,0,2,18.35c4.68,23.53,18.58,5.22,18.89,17.13.35,14-14.46-2.43-19.28,25-.85,4.84-15.1,15.4-20.08,14.73C912.26,1385.51,912.79,1379.88,910.84,1375.49Z"/><path class="cls-1" d="M880.7,1521,850,1510.54c1.37-15.56,2.52-31.14,4.22-46.66.87-7.9,30.18-31,30.57,4.06.13,11.25-10.15,21,4.57,23.18,9.53,1.42,11,9.85,4.35,16.62Z"/><path class="cls-1" d="M1065.37,1769.76c5.85,4.11,7.06,12,14.41,14.31,23.43,7.45,16.68-12.49,32.08-1.46,15.15,10.83,16.85,26.78,19,42.91a11.53,11.53,0,0,1-3.93,10.56c-3.77,3-6.21-1.77-9.21-3.11-15.25-6.8-9.61-27.83-25.89-25.11a5.12,5.12,0,0,1-2,0c-7.24-1.62-16.12,4.07-21.8-3.72C1060.54,1793.88,1057.72,1782.61,1065.37,1769.76Z"/><path class="cls-1" d="M802.73,1607.59c39.64,16.15,47.52,19.07,49.71,29.12,1.35,6.13-.11,7.63-5.67,7-1.93-.2-4,0-5.77-.71-29.51-11.42-44.45,10-52.71-6.07-2.36-4.58-6.08-8.47-8.37-13.07-1.93-3.88-8.94-7.37-4.26-12.09C787.22,1600.17,789.36,1603.73,802.73,1607.59Z"/><path class="cls-1" d="M1013.35,1280.05c-8.74,17.11-2.09,20.58-43.64,34.36-4.35,1.45-8.34-7-5-11.46,11.24-14.67,22.94-29,34.52-43.4C1004.35,1253.24,1004.69,1258.49,1013.35,1280.05Z"/><path class="cls-1" d="M1075.09,1710.41c0-9.22-1.08-12.83,1.86-13.25,5.32-.76,11.63.86,15.07,6.62,6.92,11.6,10.68,24.21,12.61,37.55,1.89,13.14-22.54,13.57-26.07-3C1073,1712.51,1076.15,1710.41,1075.09,1710.41Z"/><path class="cls-1" d="M1038.48,1558.51c-6.43,31.08-9.39,18.63-27.35,34.35-6.3,5.51-10.9,3.7-15.13-2.23-8.16-11.45,13.84-18.47,22.82-28.94a68.79,68.79,0,0,1,8.25-8.21c2.25-1.86,3.73-6.66,7.47-4.3C1037.41,1551,1038.5,1554.94,1038.48,1558.51Z"/><path class="cls-1" d="M941.75,1429,956.13,1444c-11.67,6.23-25,9-35.57,17.62-1.7,1.39-4,2.75-5.81-.1-2-3.28-3.65-6.15-1.49-10.65C919.16,1438.52,930.33,1433.75,941.75,1429Z"/><path class="cls-1" d="M796.37,1549.57l27.3,20.32c-7.14,13.24-13.1,12.64-24.45,12.89C793.58,1582.9,791,1582.6,796.37,1549.57Z"/><path class="cls-1" d="M578.13,1648.72c-.06,23.25-34.9,40.52-37.72,26.3-.89-4.46-4.89-8.43-.71-13.62,8-10,7.56-17.57-2.56-27.12-12.56-11.86-3.87-33.17,14.37-31.36,14.3,1.43,9.42,22.43,24.74,34.65C579.9,1640.48,577.48,1645.64,578.13,1648.72Z"/><path class="cls-1" d="M449.85,1336.42,444.93,1311c31.64-13.13,48.36,19.86,54.27,46,1.57,8,.05,12.79-6.76,16.92-6.51,4-11.64,10.19-20.66,9-4.81-.61-6.79-1.86-6.91-6.93C464,1336.58,482.44,1336.63,449.85,1336.42Z"/><path class="cls-1" d="M597.2,1305.48c-5.07-1.34-10.53-2.37-15.67-4.26-4.36-1.61-4.8-12.53-1.35-19.18,14.47-27.89,35.3-19.06,44.7-36.31,1.22-2.24,2.64-7.48,6.87-3.6,2.94,2.69,8.79,4.64,5.76,10.7-1.27,2.56-2.54,6.32-4.67,7.05-9.87,3.38-9.08,11-9.13,19C623.63,1290.62,632.24,1296.77,597.2,1305.48Z"/><path class="cls-1" d="M732.25,1243.85c2-11,8-20.81,9.08-32.06,2.93-29.5,37.23-35.85,36.46-22.19-1.15,20.26-14.6,27.35-19.11,45.39C757.35,1240.3,754.87,1239.67,732.25,1243.85Z"/><path class="cls-1" d="M526,1259.94c-.72,22.35-7.9,32-27,38.16-8.57,2.77-14-1.44-12.35-10.49,4.64-24.94,6.55-16.27,20.74-37.37,2.46-3.67,4.86-6.52,10-6.1C522.83,1244.58,522.89,1248,526,1259.94Z"/><path class="cls-1" d="M618.21,1574.49c-.42,13.19-13.5,28.79-26.77,31.94-7.37,1.75-30.2-27.52,13.55-47.39C609.26,1557.1,618.42,1568,618.21,1574.49Z"/><path class="cls-1" d="M835.85,1203.27c21,0,22.68-1.45,23.49,3.32s2,10.06-2.62,14.55c-16.73,16.08-30,15-46-.33-2.36-2.26-7.31-4.4-5.16-8.3,2.38-4.33,5.77-9,11.77-9.15C825.72,1203.11,835.85,1203.45,835.85,1203.27Z"/><path class="cls-1" d="M634.69,1444.32l-5.2-25.73c22.45-2.46,50.82,8.78,37.39,22.62C656.84,1451.56,645.83,1447.71,634.69,1444.32Z"/><path class="cls-1" d="M664,1286.73c-5.89-2.31-5-8.24-2.89-11.57,12-19,8.47-3.71,44.9,3.82,2.72.56,5.33,1.63,3.72,5.18-1.85,4.08-.59,10.39-7.4,11.08C682.22,1297.27,676.82,1291.76,664,1286.73Z"/></g></svg>